<svg xmlns:xlink="http://www.w3.org/1999/xlink" width="268.718" xmlns="http://www.w3.org/2000/svg" height="91.995" id="screenshot-8bd02990-24d2-11ec-a597-6bd30b8da739" viewBox="1830.641 612.627 268.718 91.995" style="-webkit-print-color-adjust: exact;" fill="none" version="1.1"><g id="shape-8bd02990-24d2-11ec-a597-6bd30b8da739"><g class="fills" id="fills-8bd02990-24d2-11ec-a597-6bd30b8da739"><path rx="0" ry="0" d="M1852.675,619.018L1844.346,630.750L1844.346,637.381L1837.097,640.829L1837.032,640.799L1837.032,643.524L1837.032,684.065L1865.292,697.416L1867.019,698.231L1868.746,697.416L1897.007,684.065L1897.007,640.799L1896.953,640.824L1889.703,637.375L1889.703,630.750L1889.449,630.393L1881.373,619.018L1873.043,630.750L1873.043,630.762L1866.981,622.225L1860.967,630.696L1860.752,630.393L1852.675,619.018ZZM1854.149,625.833L1857.371,630.370L1847.980,630.370L1851.164,625.886L1854.149,625.833ZZM1882.846,625.833L1886.068,630.370L1876.677,630.370L1879.861,625.886L1882.846,625.833ZZM1868.455,629.040L1871.677,633.577L1862.286,633.577L1865.470,629.093L1868.455,629.040ZZM1847.089,632.657L1851.543,632.657L1851.543,647.654L1847.089,645.550L1847.089,632.657ZZM1853.830,632.657L1858.262,632.657L1858.262,650.828L1853.830,648.734L1853.830,632.657ZZM1875.787,632.657L1880.241,632.657L1880.241,648.719L1875.787,650.823L1875.787,632.657ZZM1882.527,632.657L1886.958,632.657L1886.958,645.545L1882.527,647.638L1882.527,632.657ZZM1861.395,635.864L1865.849,635.864L1865.849,654.412L1861.395,652.308L1861.395,635.864ZZM1868.136,635.864L1872.567,635.864L1872.567,652.344L1868.136,654.438L1868.136,635.864ZZM2079.857,637.501L2079.835,645.850L2075.358,645.820L2075.358,649.222L2079.848,649.222L2079.848,667.158C2079.848,668.465,2079.950,669.676,2080.157,670.793L2080.159,670.803L2080.160,670.813C2080.414,671.954,2080.842,672.948,2081.454,673.778C2082.070,674.615,2082.896,675.258,2083.892,675.692C2084.908,676.176,2086.144,676.401,2087.594,676.401C2088.255,676.401,2089.012,676.293,2089.880,676.087C2090.742,675.881,2091.604,675.615,2092.464,675.287L2092.968,675.095L2091.880,671.832L2091.309,672.096C2090.201,672.576,2089.115,672.935,2087.953,672.942C2087.018,672.942,2086.282,672.807,2085.743,672.575C2085.229,672.297,2084.832,671.949,2084.531,671.516C2084.215,671.023,2083.984,670.457,2083.838,669.807C2083.725,669.087,2083.666,668.285,2083.666,667.398L2083.666,649.222L2091.988,649.222L2091.988,645.823L2083.666,645.823L2083.666,637.501L2079.857,637.501ZZM1889.702,640.793L1893.623,642.396L1889.702,644.248L1889.702,640.793ZZM1844.346,640.799L1844.346,644.254L1840.425,642.401L1844.346,640.799ZZM2028.103,645.103L2028.103,645.103ZL2028.103,645.103ZC2026.216,645.104,2024.384,645.569,2022.635,646.485L2022.632,646.487L2022.630,646.488C2021.216,647.247,2020.037,648.038,2018.797,648.974L2018.774,645.823L2015.089,645.823L2015.089,688.674L2018.848,688.674L2018.848,673.357C2020.079,674.197,2021.296,674.925,2022.487,675.455L2022.493,675.458L2022.500,675.460C2023.994,676.083,2025.467,676.401,2026.907,676.401C2028.659,676.401,2030.338,676.045,2031.925,675.335L2031.928,675.333L2031.932,675.332C2033.559,674.581,2034.982,673.512,2036.189,672.139L2036.188,672.140C2037.437,670.724,2038.411,669.021,2039.110,667.047C2039.813,665.060,2040.160,662.820,2040.160,660.333C2040.160,655.785,2039.184,652.105,2037.181,649.349L2037.180,649.348C2035.161,646.531,2032.065,645.103,2028.103,645.103ZZM1937.084,645.104L1937.084,645.104ZC1935.196,645.104,1933.364,645.569,1931.615,646.485L1931.612,646.487L1931.610,646.488C1930.196,647.247,1929.017,648.039,1927.777,648.974L1927.755,645.823L1924.070,645.823L1924.070,688.675L1927.828,688.675L1927.828,673.357C1929.060,674.198,1930.276,674.925,1931.468,675.455L1931.474,675.458L1931.480,675.461C1932.975,676.084,1934.447,676.402,1935.887,676.402C1937.639,676.402,1939.318,676.045,1940.906,675.335L1940.909,675.333L1940.912,675.332C1942.539,674.581,1943.963,673.513,1945.169,672.140L1945.168,672.140C1946.417,670.724,1947.391,669.022,1948.090,667.047C1948.794,665.061,1949.140,662.821,1949.140,660.334C1949.140,655.785,1948.164,652.106,1946.161,649.350L1946.160,649.348C1944.141,646.531,1941.045,645.104,1937.084,645.104ZZM1998.278,645.104L1998.278,645.104ZC1996.191,645.104,1994.299,645.632,1992.652,646.686C1991.307,647.514,1990.004,648.569,1988.727,649.765L1988.753,645.823L1985.143,645.823L1985.143,675.683L1988.903,675.683L1988.903,654.017C1990.570,652.329,1992.072,650.730,1993.369,649.914L1993.374,649.911L1993.378,649.908C1994.687,649.048,1996.123,648.623,1997.739,648.623C1999.976,648.623,2001.419,649.284,2002.302,650.591L2002.307,650.598L2002.312,650.605C2003.239,651.888,2003.762,654.031,2003.762,657.041L2003.762,675.683L2007.521,675.683L2007.521,656.682C2007.521,652.860,2006.821,649.961,2005.307,648.015C2003.791,646.065,2001.384,645.104,1998.278,645.104ZZM1967.372,645.104C1965.693,645.104,1964.051,645.484,1962.467,646.233C1962.466,646.234,1962.466,646.234,1962.465,646.234C1960.916,646.946,1959.517,647.993,1958.275,649.359L1958.275,649.360C1957.064,650.696,1956.092,652.335,1955.353,654.266L1955.350,654.271L1955.349,654.276C1954.645,656.222,1954.297,658.404,1954.297,660.813C1954.297,663.221,1954.645,665.403,1955.349,667.350L1955.351,667.357L1955.354,667.363C1956.094,669.256,1957.088,670.895,1958.335,672.266L1958.338,672.269L1958.341,672.273C1959.589,673.605,1961.055,674.631,1962.722,675.339L1962.724,675.340L1962.726,675.341C1964.431,676.048,1966.245,676.401,1968.150,676.401C1970.316,676.401,1972.125,676.099,1973.580,675.458L1973.583,675.457C1974.998,674.850,1976.295,674.202,1977.474,673.510L1977.939,673.238L1976.303,670.149L1975.778,670.538C1974.743,671.304,1973.723,671.781,1972.495,672.242C1971.329,672.655,1969.891,672.866,1968.390,672.866C1966.825,672.866,1965.436,672.718,1964.201,672.158C1962.953,671.552,1961.883,670.744,1960.976,669.726C1960.108,668.667,1959.423,667.416,1958.924,665.960C1958.924,665.960,1958.924,665.959,1958.924,665.959C1958.482,664.632,1958.250,663.195,1958.168,661.675L1978.891,661.675C1978.891,661.089,1978.947,660.527,1978.949,660.035L1978.949,658.957C1978.949,654.640,1977.948,651.220,1975.883,648.776C1973.823,646.337,1970.931,645.105,1967.372,645.104ZL1967.372,645.104ZZM2058.462,645.104C2056.672,645.104,2054.955,645.460,2053.329,646.169C2051.702,646.878,2050.259,647.904,2049.012,649.233L2049.009,649.236L2049.006,649.240C2047.793,650.578,2046.821,652.239,2046.082,654.209L2046.081,654.212L2046.080,654.216C2045.375,656.164,2045.028,658.365,2045.028,660.813C2045.028,663.260,2045.375,665.462,2046.080,667.410L2046.082,667.417L2046.085,667.423C2046.825,669.314,2047.797,670.932,2049.005,672.266L2049.009,672.269L2049.012,672.273C2050.259,673.602,2051.701,674.628,2053.328,675.337C2054.954,676.046,2056.672,676.401,2058.462,676.401C2060.252,676.401,2061.970,676.046,2063.596,675.337C2065.260,674.628,2066.706,673.602,2067.915,672.269C2069.166,670.934,2070.141,669.310,2070.842,667.416C2071.588,665.466,2071.956,663.262,2071.956,660.813C2071.956,658.364,2071.588,656.161,2070.843,654.212C2070.143,652.240,2069.169,650.575,2067.915,649.236C2066.706,647.904,2065.260,646.877,2063.596,646.169C2061.970,645.460,2060.253,645.104,2058.462,645.104ZL2058.462,645.104ZZM1840.485,646.250L1865.292,657.969L1865.292,693.596L1840.485,681.877L1840.485,646.250ZZM1893.553,646.250L1893.553,681.877L1868.746,693.596L1868.746,657.969L1893.553,646.250ZZM1967.431,648.504L1967.431,648.504ZC1969.893,648.504,1971.748,649.339,1973.165,651.053L1973.166,651.056L1973.168,651.058C1974.484,652.617,1975.201,655.068,1975.279,658.395L1958.211,658.395C1958.390,656.986,1958.686,655.693,1959.150,654.565C1959.726,653.263,1960.429,652.164,1961.257,651.259C1962.127,650.353,1963.079,649.683,1964.121,649.237L1964.128,649.233L1964.136,649.230C1965.182,648.744,1966.272,648.504,1967.431,648.504ZZM1936.665,648.563L1936.665,648.563ZC1938.228,648.564,1939.525,648.867,1940.584,649.452L1940.591,649.455L1940.597,649.459C1941.670,650.014,1942.527,650.797,1943.196,651.837L1943.199,651.841L1943.202,651.845C1943.874,652.853,1944.368,654.081,1944.676,655.540L1944.677,655.547L1944.679,655.554C1945.027,657.023,1945.203,658.616,1945.203,660.334C1945.203,662.240,1944.950,663.977,1944.451,665.552L1944.449,665.556L1944.448,665.560C1943.985,667.102,1943.336,668.415,1942.503,669.513C1941.672,670.608,1940.682,671.447,1939.520,672.047C1938.361,672.645,1937.120,672.942,1935.767,672.942C1934.743,672.942,1933.530,672.683,1932.139,672.142C1930.837,671.635,1929.389,670.391,1927.828,669.152L1927.828,653.247C1929.484,651.836,1931.028,650.497,1932.437,649.756L1932.439,649.755L1932.442,649.753C1933.935,648.950,1935.338,648.563,1936.665,648.563ZZM2027.684,648.563L2027.684,648.563ZC2029.248,648.564,2030.544,648.867,2031.604,649.452L2031.610,649.455L2031.617,649.459C2032.690,650.014,2033.547,650.797,2034.216,651.837L2034.219,651.841L2034.221,651.845C2034.893,652.853,2035.388,654.081,2035.695,655.540L2035.697,655.547L2035.699,655.554C2036.047,657.023,2036.222,658.616,2036.222,660.334C2036.222,662.240,2035.970,663.977,2035.470,665.552L2035.468,665.556L2035.467,665.560C2035.004,667.102,2034.355,668.415,2033.522,669.513C2032.691,670.608,2031.702,671.447,2030.539,672.047C2029.381,672.645,2028.140,672.942,2026.786,672.942C2025.762,672.942,2024.550,672.683,2023.159,672.142C2021.856,671.635,2020.409,670.391,2018.848,669.152L2018.848,653.247C2020.503,651.836,2022.047,650.497,2023.456,649.756L2023.458,649.755L2023.461,649.753C2024.954,648.950,2026.357,648.563,2027.684,648.563ZZM2058.462,648.563L2058.462,648.563ZC2059.816,648.564,2061.057,648.861,2062.215,649.459L2062.225,649.464L2062.235,649.468C2063.431,650.029,2064.432,650.843,2065.259,651.933L2065.265,651.942L2065.272,651.950C2066.141,653.009,2066.828,654.282,2067.328,655.782C2067.825,657.273,2068.077,658.948,2068.077,660.813C2068.077,662.637,2067.825,664.291,2067.328,665.783C2066.828,667.284,2066.141,668.556,2065.272,669.615L2065.268,669.620L2065.264,669.625C2064.437,670.678,2063.430,671.498,2062.225,672.101C2061.066,672.662,2059.820,672.942,2058.462,672.942C2057.106,672.942,2055.862,672.662,2054.703,672.103C2053.538,671.501,2052.527,670.677,2051.657,669.619C2050.826,668.560,2050.157,667.285,2049.657,665.783C2049.159,664.291,2048.907,662.637,2048.907,660.813C2048.907,658.948,2049.160,657.273,2049.657,655.782C2050.158,654.279,2050.827,653.003,2051.659,651.943L2051.660,651.942C2051.660,651.942,2051.661,651.941,2051.661,651.940C2052.531,650.844,2053.539,650.025,2054.696,649.465L2054.703,649.462L2054.709,649.459C2055.868,648.861,2057.109,648.563,2058.462,648.563ZZ" style="font: medium sans-serif; stroke-opacity: 1; stroke: none; word-spacing: normal; text-decoration: none solid; isolation: auto; baseline-shift: baseline; color: rgb(0, 0, 0); fill-rule: nonzero; text-transform: none; overflow: visible; image-rendering: auto; stroke-dashoffset: 0; text-anchor: start; text-indent: 0px; writing-mode: lr-tb; letter-spacing: normal; color-rendering: auto; opacity: 1; mix-blend-mode: normal; stroke-linejoin: miter; stroke-dasharray: none; white-space: normal; stroke-miterlimit: 4; text-align: start; display: inline; shape-rendering: auto; text-rendering: auto; visibility: visible; direction: ltr; color-interpolation: srgb; clip-rule: nonzero; color-interpolation-filters: linearrgb; fill: rgb(0, 0, 0); fill-opacity: 1;"/></g><g id="strokes-8bd02990-24d2-11ec-a597-6bd30b8da739" class="strokes"><g class="stroke-shape"><path rx="0" ry="0" d="M1852.675,619.018L1844.346,630.750L1844.346,637.381L1837.097,640.829L1837.032,640.799L1837.032,643.524L1837.032,684.065L1865.292,697.416L1867.019,698.231L1868.746,697.416L1897.007,684.065L1897.007,640.799L1896.953,640.824L1889.703,637.375L1889.703,630.750L1889.449,630.393L1881.373,619.018L1873.043,630.750L1873.043,630.762L1866.981,622.225L1860.967,630.696L1860.752,630.393L1852.675,619.018ZZM1854.149,625.833L1857.371,630.370L1847.980,630.370L1851.164,625.886L1854.149,625.833ZZM1882.846,625.833L1886.068,630.370L1876.677,630.370L1879.861,625.886L1882.846,625.833ZZM1868.455,629.040L1871.677,633.577L1862.286,633.577L1865.470,629.093L1868.455,629.040ZZM1847.089,632.657L1851.543,632.657L1851.543,647.654L1847.089,645.550L1847.089,632.657ZZM1853.830,632.657L1858.262,632.657L1858.262,650.828L1853.830,648.734L1853.830,632.657ZZM1875.787,632.657L1880.241,632.657L1880.241,648.719L1875.787,650.823L1875.787,632.657ZZM1882.527,632.657L1886.958,632.657L1886.958,645.545L1882.527,647.638L1882.527,632.657ZZM1861.395,635.864L1865.849,635.864L1865.849,654.412L1861.395,652.308L1861.395,635.864ZZM1868.136,635.864L1872.567,635.864L1872.567,652.344L1868.136,654.438L1868.136,635.864ZZM2079.857,637.501L2079.835,645.850L2075.358,645.820L2075.358,649.222L2079.848,649.222L2079.848,667.158C2079.848,668.465,2079.950,669.676,2080.157,670.793L2080.159,670.803L2080.160,670.813C2080.414,671.954,2080.842,672.948,2081.454,673.778C2082.070,674.615,2082.896,675.258,2083.892,675.692C2084.908,676.176,2086.144,676.401,2087.594,676.401C2088.255,676.401,2089.012,676.293,2089.880,676.087C2090.742,675.881,2091.604,675.615,2092.464,675.287L2092.968,675.095L2091.880,671.832L2091.309,672.096C2090.201,672.576,2089.115,672.935,2087.953,672.942C2087.018,672.942,2086.282,672.807,2085.743,672.575C2085.229,672.297,2084.832,671.949,2084.531,671.516C2084.215,671.023,2083.984,670.457,2083.838,669.807C2083.725,669.087,2083.666,668.285,2083.666,667.398L2083.666,649.222L2091.988,649.222L2091.988,645.823L2083.666,645.823L2083.666,637.501L2079.857,637.501ZZM1889.702,640.793L1893.623,642.396L1889.702,644.248L1889.702,640.793ZZM1844.346,640.799L1844.346,644.254L1840.425,642.401L1844.346,640.799ZZM2028.103,645.103L2028.103,645.103ZL2028.103,645.103ZC2026.216,645.104,2024.384,645.569,2022.635,646.485L2022.632,646.487L2022.630,646.488C2021.216,647.247,2020.037,648.038,2018.797,648.974L2018.774,645.823L2015.089,645.823L2015.089,688.674L2018.848,688.674L2018.848,673.357C2020.079,674.197,2021.296,674.925,2022.487,675.455L2022.493,675.458L2022.500,675.460C2023.994,676.083,2025.467,676.401,2026.907,676.401C2028.659,676.401,2030.338,676.045,2031.925,675.335L2031.928,675.333L2031.932,675.332C2033.559,674.581,2034.982,673.512,2036.189,672.139L2036.188,672.140C2037.437,670.724,2038.411,669.021,2039.110,667.047C2039.813,665.060,2040.160,662.820,2040.160,660.333C2040.160,655.785,2039.184,652.105,2037.181,649.349L2037.180,649.348C2035.161,646.531,2032.065,645.103,2028.103,645.103ZZM1937.084,645.104L1937.084,645.104ZC1935.196,645.104,1933.364,645.569,1931.615,646.485L1931.612,646.487L1931.610,646.488C1930.196,647.247,1929.017,648.039,1927.777,648.974L1927.755,645.823L1924.070,645.823L1924.070,688.675L1927.828,688.675L1927.828,673.357C1929.060,674.198,1930.276,674.925,1931.468,675.455L1931.474,675.458L1931.480,675.461C1932.975,676.084,1934.447,676.402,1935.887,676.402C1937.639,676.402,1939.318,676.045,1940.906,675.335L1940.909,675.333L1940.912,675.332C1942.539,674.581,1943.963,673.513,1945.169,672.140L1945.168,672.140C1946.417,670.724,1947.391,669.022,1948.090,667.047C1948.794,665.061,1949.140,662.821,1949.140,660.334C1949.140,655.785,1948.164,652.106,1946.161,649.350L1946.160,649.348C1944.141,646.531,1941.045,645.104,1937.084,645.104ZZM1998.278,645.104L1998.278,645.104ZC1996.191,645.104,1994.299,645.632,1992.652,646.686C1991.307,647.514,1990.004,648.569,1988.727,649.765L1988.753,645.823L1985.143,645.823L1985.143,675.683L1988.903,675.683L1988.903,654.017C1990.570,652.329,1992.072,650.730,1993.369,649.914L1993.374,649.911L1993.378,649.908C1994.687,649.048,1996.123,648.623,1997.739,648.623C1999.976,648.623,2001.419,649.284,2002.302,650.591L2002.307,650.598L2002.312,650.605C2003.239,651.888,2003.762,654.031,2003.762,657.041L2003.762,675.683L2007.521,675.683L2007.521,656.682C2007.521,652.860,2006.821,649.961,2005.307,648.015C2003.791,646.065,2001.384,645.104,1998.278,645.104ZZM1967.372,645.104C1965.693,645.104,1964.051,645.484,1962.467,646.233C1962.466,646.234,1962.466,646.234,1962.465,646.234C1960.916,646.946,1959.517,647.993,1958.275,649.359L1958.275,649.360C1957.064,650.696,1956.092,652.335,1955.353,654.266L1955.350,654.271L1955.349,654.276C1954.645,656.222,1954.297,658.404,1954.297,660.813C1954.297,663.221,1954.645,665.403,1955.349,667.350L1955.351,667.357L1955.354,667.363C1956.094,669.256,1957.088,670.895,1958.335,672.266L1958.338,672.269L1958.341,672.273C1959.589,673.605,1961.055,674.631,1962.722,675.339L1962.724,675.340L1962.726,675.341C1964.431,676.048,1966.245,676.401,1968.150,676.401C1970.316,676.401,1972.125,676.099,1973.580,675.458L1973.583,675.457C1974.998,674.850,1976.295,674.202,1977.474,673.510L1977.939,673.238L1976.303,670.149L1975.778,670.538C1974.743,671.304,1973.723,671.781,1972.495,672.242C1971.329,672.655,1969.891,672.866,1968.390,672.866C1966.825,672.866,1965.436,672.718,1964.201,672.158C1962.953,671.552,1961.883,670.744,1960.976,669.726C1960.108,668.667,1959.423,667.416,1958.924,665.960C1958.924,665.960,1958.924,665.959,1958.924,665.959C1958.482,664.632,1958.250,663.195,1958.168,661.675L1978.891,661.675C1978.891,661.089,1978.947,660.527,1978.949,660.035L1978.949,658.957C1978.949,654.640,1977.948,651.220,1975.883,648.776C1973.823,646.337,1970.931,645.105,1967.372,645.104ZL1967.372,645.104ZZM2058.462,645.104C2056.672,645.104,2054.955,645.460,2053.329,646.169C2051.702,646.878,2050.259,647.904,2049.012,649.233L2049.009,649.236L2049.006,649.240C2047.793,650.578,2046.821,652.239,2046.082,654.209L2046.081,654.212L2046.080,654.216C2045.375,656.164,2045.028,658.365,2045.028,660.813C2045.028,663.260,2045.375,665.462,2046.080,667.410L2046.082,667.417L2046.085,667.423C2046.825,669.314,2047.797,670.932,2049.005,672.266L2049.009,672.269L2049.012,672.273C2050.259,673.602,2051.701,674.628,2053.328,675.337C2054.954,676.046,2056.672,676.401,2058.462,676.401C2060.252,676.401,2061.970,676.046,2063.596,675.337C2065.260,674.628,2066.706,673.602,2067.915,672.269C2069.166,670.934,2070.141,669.310,2070.842,667.416C2071.588,665.466,2071.956,663.262,2071.956,660.813C2071.956,658.364,2071.588,656.161,2070.843,654.212C2070.143,652.240,2069.169,650.575,2067.915,649.236C2066.706,647.904,2065.260,646.877,2063.596,646.169C2061.970,645.460,2060.253,645.104,2058.462,645.104ZL2058.462,645.104ZZM1840.485,646.250L1865.292,657.969L1865.292,693.596L1840.485,681.877L1840.485,646.250ZZM1893.553,646.250L1893.553,681.877L1868.746,693.596L1868.746,657.969L1893.553,646.250ZZM1967.431,648.504L1967.431,648.504ZC1969.893,648.504,1971.748,649.339,1973.165,651.053L1973.166,651.056L1973.168,651.058C1974.484,652.617,1975.201,655.068,1975.279,658.395L1958.211,658.395C1958.390,656.986,1958.686,655.693,1959.150,654.565C1959.726,653.263,1960.429,652.164,1961.257,651.259C1962.127,650.353,1963.079,649.683,1964.121,649.237L1964.128,649.233L1964.136,649.230C1965.182,648.744,1966.272,648.504,1967.431,648.504ZZM1936.665,648.563L1936.665,648.563ZC1938.228,648.564,1939.525,648.867,1940.584,649.452L1940.591,649.455L1940.597,649.459C1941.670,650.014,1942.527,650.797,1943.196,651.837L1943.199,651.841L1943.202,651.845C1943.874,652.853,1944.368,654.081,1944.676,655.540L1944.677,655.547L1944.679,655.554C1945.027,657.023,1945.203,658.616,1945.203,660.334C1945.203,662.240,1944.950,663.977,1944.451,665.552L1944.449,665.556L1944.448,665.560C1943.985,667.102,1943.336,668.415,1942.503,669.513C1941.672,670.608,1940.682,671.447,1939.520,672.047C1938.361,672.645,1937.120,672.942,1935.767,672.942C1934.743,672.942,1933.530,672.683,1932.139,672.142C1930.837,671.635,1929.389,670.391,1927.828,669.152L1927.828,653.247C1929.484,651.836,1931.028,650.497,1932.437,649.756L1932.439,649.755L1932.442,649.753C1933.935,648.950,1935.338,648.563,1936.665,648.563ZZM2027.684,648.563L2027.684,648.563ZC2029.248,648.564,2030.544,648.867,2031.604,649.452L2031.610,649.455L2031.617,649.459C2032.690,650.014,2033.547,650.797,2034.216,651.837L2034.219,651.841L2034.221,651.845C2034.893,652.853,2035.388,654.081,2035.695,655.540L2035.697,655.547L2035.699,655.554C2036.047,657.023,2036.222,658.616,2036.222,660.334C2036.222,662.240,2035.970,663.977,2035.470,665.552L2035.468,665.556L2035.467,665.560C2035.004,667.102,2034.355,668.415,2033.522,669.513C2032.691,670.608,2031.702,671.447,2030.539,672.047C2029.381,672.645,2028.140,672.942,2026.786,672.942C2025.762,672.942,2024.550,672.683,2023.159,672.142C2021.856,671.635,2020.409,670.391,2018.848,669.152L2018.848,653.247C2020.503,651.836,2022.047,650.497,2023.456,649.756L2023.458,649.755L2023.461,649.753C2024.954,648.950,2026.357,648.563,2027.684,648.563ZZM2058.462,648.563L2058.462,648.563ZC2059.816,648.564,2061.057,648.861,2062.215,649.459L2062.225,649.464L2062.235,649.468C2063.431,650.029,2064.432,650.843,2065.259,651.933L2065.265,651.942L2065.272,651.950C2066.141,653.009,2066.828,654.282,2067.328,655.782C2067.825,657.273,2068.077,658.948,2068.077,660.813C2068.077,662.637,2067.825,664.291,2067.328,665.783C2066.828,667.284,2066.141,668.556,2065.272,669.615L2065.268,669.620L2065.264,669.625C2064.437,670.678,2063.430,671.498,2062.225,672.101C2061.066,672.662,2059.820,672.942,2058.462,672.942C2057.106,672.942,2055.862,672.662,2054.703,672.103C2053.538,671.501,2052.527,670.677,2051.657,669.619C2050.826,668.560,2050.157,667.285,2049.657,665.783C2049.159,664.291,2048.907,662.637,2048.907,660.813C2048.907,658.948,2049.160,657.273,2049.657,655.782C2050.158,654.279,2050.827,653.003,2051.659,651.943L2051.660,651.942C2051.660,651.942,2051.661,651.941,2051.661,651.940C2052.531,650.844,2053.539,650.025,2054.696,649.465L2054.703,649.462L2054.709,649.459C2055.868,648.861,2057.109,648.563,2058.462,648.563ZZ" style="font: medium sans-serif; stroke-opacity: 1; stroke: none; word-spacing: normal; text-decoration: none solid; isolation: auto; baseline-shift: baseline; color: rgb(0, 0, 0); fill-rule: nonzero; text-transform: none; overflow: visible; image-rendering: auto; stroke-dashoffset: 0; text-anchor: start; text-indent: 0px; writing-mode: lr-tb; letter-spacing: normal; color-rendering: auto; opacity: 1; mix-blend-mode: normal; stroke-linejoin: miter; stroke-dasharray: none; white-space: normal; stroke-miterlimit: 4; text-align: start; display: inline; shape-rendering: auto; text-rendering: auto; visibility: visible; direction: ltr; color-interpolation: srgb; clip-rule: nonzero; color-interpolation-filters: linearrgb; fill: none;"/></g></g></g></svg>