<svg xmlns:xlink="http://www.w3.org/1999/xlink" width="152.495" xmlns="http://www.w3.org/2000/svg" height="114.181" id="screenshot-2b715921-24d7-11ec-a597-6bd30b8da739" viewBox="-1.202 -0.904 152.495 114.181" style="-webkit-print-color-adjust: exact;" fill="none" version="1.1"><g id="shape-2b715921-24d7-11ec-a597-6bd30b8da739" width="153.52748mm" version="1.1" height="115.44312mm" rx="0" ry="0" style="fill: rgb(0, 0, 0);"><g id="shape-2b715922-24d7-11ec-a597-6bd30b8da739" rx="0" ry="0" style="fill: rgb(0, 0, 0);"><g id="shape-2b715923-24d7-11ec-a597-6bd30b8da739" rx="0" ry="0" style="fill: rgb(0, 0, 0);"><g id="shape-2b715924-24d7-11ec-a597-6bd30b8da739" rx="0" ry="0" style="fill: rgb(0, 0, 0);"><g id="shape-2b715925-24d7-11ec-a597-6bd30b8da739"><g class="fills" id="fills-2b715925-24d7-11ec-a597-6bd30b8da739"><path rx="0" ry="0" d="m123.534,42.356C127.935,42.373,131.769,42.723,133.508,42.845C138.143,43.168,144.532,43.776,145.160,45.554C146.562,49.520,142.289,50.485,135.929,51.832C127.387,53.642,128.510,57.855,128.295,62.538C128.017,68.572,125.627,72.945,119.445,74.007C113.335,75.056,117.347,85.710,132.493,89.537C146.814,93.155,146.562,106.784,146.562,106.784L87.917,108.294C87.917,108.294,87.055,103.550,91.259,98.053C95.463,92.555,108.399,92.706,109.154,85.278C109.311,77.087,104.262,72.396,98.059,72.489C96.191,72.489,94.677,71.000,94.677,69.162C94.230,65.866,99.752,66.671,99.489,65.232C98.946,63.909,96.101,66.136,94.491,66.164C92.376,66.164,90.662,64.477,90.662,62.397C90.662,60.317,92.376,58.631,94.491,58.631C95.608,58.618,98.583,60.291,98.676,59.413C96.181,57.415,91.779,57.125,91.662,53.326C91.662,50.466,94.019,48.147,96.926,48.147C99.006,48.147,100.891,49.353,101.736,51.223C102.122,50.277,102.771,49.085,103.872,47.656C107.285,43.226,116.197,42.327,123.534,42.356ZZ" style="stroke: none; stroke-linecap: butt; stroke-linejoin: miter; stroke-opacity: 1; fill: rgb(177, 247, 228); fill-opacity: 1;"/></g><g id="strokes-2b715925-24d7-11ec-a597-6bd30b8da739" class="strokes"><g class="stroke-shape"><path rx="0" ry="0" d="m123.534,42.356C127.935,42.373,131.769,42.723,133.508,42.845C138.143,43.168,144.532,43.776,145.160,45.554C146.562,49.520,142.289,50.485,135.929,51.832C127.387,53.642,128.510,57.855,128.295,62.538C128.017,68.572,125.627,72.945,119.445,74.007C113.335,75.056,117.347,85.710,132.493,89.537C146.814,93.155,146.562,106.784,146.562,106.784L87.917,108.294C87.917,108.294,87.055,103.550,91.259,98.053C95.463,92.555,108.399,92.706,109.154,85.278C109.311,77.087,104.262,72.396,98.059,72.489C96.191,72.489,94.677,71.000,94.677,69.162C94.230,65.866,99.752,66.671,99.489,65.232C98.946,63.909,96.101,66.136,94.491,66.164C92.376,66.164,90.662,64.477,90.662,62.397C90.662,60.317,92.376,58.631,94.491,58.631C95.608,58.618,98.583,60.291,98.676,59.413C96.181,57.415,91.779,57.125,91.662,53.326C91.662,50.466,94.019,48.147,96.926,48.147C99.006,48.147,100.891,49.353,101.736,51.223C102.122,50.277,102.771,49.085,103.872,47.656C107.285,43.226,116.197,42.327,123.534,42.356ZZ" style="stroke: none; stroke-linecap: butt; stroke-linejoin: miter; stroke-opacity: 1; fill: none; stroke-width: 1.5644;"/></g></g></g><g id="shape-2b715926-24d7-11ec-a597-6bd30b8da739"><g class="fills" id="fills-2b715926-24d7-11ec-a597-6bd30b8da739"><path rx="0" ry="0" d="m112.752,48.580C110.580,48.127,108.430,49.541,107.980,51.715C107.530,53.889,108.941,56.046,111.114,56.498C113.287,56.951,115.435,55.536,115.885,53.362C116.335,51.187,114.925,49.032,112.752,48.580ZZM112.357,50.488C113.497,50.726,114.214,51.819,113.977,52.964C113.740,54.109,112.648,54.827,111.509,54.590C110.369,54.352,109.651,53.257,109.888,52.112C110.125,50.968,111.218,50.251,112.357,50.488ZZ" style="font: medium sans-serif; stroke-opacity: 1; vector-effect: none; stroke: none; word-spacing: normal; text-decoration: none solid; isolation: auto; baseline-shift: baseline; color: rgb(0, 0, 0); fill-rule: nonzero; text-transform: none; overflow: visible; image-rendering: auto; stroke-dashoffset: 0; text-anchor: start; font-feature-settings: normal; text-indent: 0px; writing-mode: lr-tb; letter-spacing: normal; color-rendering: auto; text-orientation: mixed; opacity: 1; mix-blend-mode: normal; stroke-linejoin: miter; stroke-dasharray: none; white-space: normal; stroke-miterlimit: 4; text-align: start; display: inline; shape-rendering: auto; text-rendering: auto; dominant-baseline: auto; stroke-linecap: butt; visibility: visible; direction: ltr; color-interpolation: srgb; clip-rule: nonzero; color-interpolation-filters: linearrgb; fill: rgb(255, 255, 255); fill-opacity: 1;"/></g><g id="strokes-2b715926-24d7-11ec-a597-6bd30b8da739" class="strokes"><g class="stroke-shape"><path rx="0" ry="0" d="m112.752,48.580C110.580,48.127,108.430,49.541,107.980,51.715C107.530,53.889,108.941,56.046,111.114,56.498C113.287,56.951,115.435,55.536,115.885,53.362C116.335,51.187,114.925,49.032,112.752,48.580ZZM112.357,50.488C113.497,50.726,114.214,51.819,113.977,52.964C113.740,54.109,112.648,54.827,111.509,54.590C110.369,54.352,109.651,53.257,109.888,52.112C110.125,50.968,111.218,50.251,112.357,50.488ZZ" style="font: medium sans-serif; stroke-opacity: 1; vector-effect: none; stroke: none; word-spacing: normal; text-decoration: none solid; isolation: auto; baseline-shift: baseline; color: rgb(0, 0, 0); fill-rule: nonzero; text-transform: none; overflow: visible; image-rendering: auto; stroke-dashoffset: 0; text-anchor: start; font-feature-settings: normal; text-indent: 0px; writing-mode: lr-tb; letter-spacing: normal; color-rendering: auto; text-orientation: mixed; opacity: 1; mix-blend-mode: normal; stroke-linejoin: miter; stroke-dasharray: none; white-space: normal; stroke-miterlimit: 4; text-align: start; display: inline; shape-rendering: auto; text-rendering: auto; dominant-baseline: auto; stroke-linecap: butt; visibility: visible; direction: ltr; color-interpolation: srgb; clip-rule: nonzero; color-interpolation-filters: linearrgb; fill: none; stroke-width: 3.12879;"/></g></g></g><g id="shape-2b715927-24d7-11ec-a597-6bd30b8da739"><g class="fills" id="fills-2b715927-24d7-11ec-a597-6bd30b8da739"><path rx="0" ry="0" d="m105.305,58.039L107.250,58.160C107.165,59.521,107.314,61.433,108.171,63.078C109.028,64.723,110.526,66.164,113.498,66.781C116.469,67.398,118.669,66.698,120.285,65.548C121.902,64.397,122.904,62.726,123.229,61.555L125.106,62.077C124.643,63.744,123.428,65.702,121.416,67.135C119.403,68.568,116.564,69.408,113.102,68.689C109.641,67.969,107.534,66.074,106.442,63.977C105.350,61.880,105.205,59.642,105.305,58.039ZZ" style="font: medium sans-serif; stroke-opacity: 1; vector-effect: none; stroke: none; word-spacing: normal; text-decoration: none solid; isolation: auto; baseline-shift: baseline; color: rgb(0, 0, 0); fill-rule: nonzero; text-transform: none; overflow: visible; image-rendering: auto; stroke-dashoffset: 0; text-anchor: start; font-feature-settings: normal; text-indent: 0px; writing-mode: lr-tb; letter-spacing: normal; color-rendering: auto; text-orientation: mixed; opacity: 1; mix-blend-mode: normal; stroke-linejoin: miter; stroke-dasharray: none; white-space: normal; stroke-miterlimit: 4; text-align: start; display: inline; shape-rendering: auto; text-rendering: auto; dominant-baseline: auto; stroke-linecap: butt; visibility: visible; direction: ltr; color-interpolation: srgb; clip-rule: nonzero; color-interpolation-filters: linearrgb; fill: rgb(255, 255, 255); fill-opacity: 1;"/></g><g id="strokes-2b715927-24d7-11ec-a597-6bd30b8da739" class="strokes"><g class="stroke-shape"><path rx="0" ry="0" d="m105.305,58.039L107.250,58.160C107.165,59.521,107.314,61.433,108.171,63.078C109.028,64.723,110.526,66.164,113.498,66.781C116.469,67.398,118.669,66.698,120.285,65.548C121.902,64.397,122.904,62.726,123.229,61.555L125.106,62.077C124.643,63.744,123.428,65.702,121.416,67.135C119.403,68.568,116.564,69.408,113.102,68.689C109.641,67.969,107.534,66.074,106.442,63.977C105.350,61.880,105.205,59.642,105.305,58.039ZZ" style="font: medium sans-serif; stroke-opacity: 1; vector-effect: none; stroke: none; word-spacing: normal; text-decoration: none solid; isolation: auto; baseline-shift: baseline; color: rgb(0, 0, 0); fill-rule: nonzero; text-transform: none; overflow: visible; image-rendering: auto; stroke-dashoffset: 0; text-anchor: start; font-feature-settings: normal; text-indent: 0px; writing-mode: lr-tb; letter-spacing: normal; color-rendering: auto; text-orientation: mixed; opacity: 1; mix-blend-mode: normal; stroke-linejoin: miter; stroke-dasharray: none; white-space: normal; stroke-miterlimit: 4; text-align: start; display: inline; shape-rendering: auto; text-rendering: auto; dominant-baseline: auto; stroke-linecap: butt; visibility: visible; direction: ltr; color-interpolation: srgb; clip-rule: nonzero; color-interpolation-filters: linearrgb; fill: none; stroke-width: 3.12879;"/></g></g></g></g><g id="shape-2b715928-24d7-11ec-a597-6bd30b8da739" rx="0" ry="0" style="fill: rgb(0, 0, 0);"><g id="shape-2b715929-24d7-11ec-a597-6bd30b8da739"><g class="fills" id="fills-2b715929-24d7-11ec-a597-6bd30b8da739"><path rx="0" ry="0" d="m42.313,110.957C42.313,110.957,39.565,99.769,47.928,89.015C57.019,77.327,64.011,77.698,67.380,73.674C72.648,67.382,68.728,64.491,66.460,62.671C63.356,60.180,50.907,57.960,46.653,44.126C43.469,33.773,50.998,20.679,65.223,19.930C79.448,19.182,83.679,26.783,83.679,26.783C83.679,26.783,81.428,21.476,86.206,17.892C91.419,13.981,97.685,17.007,98.091,22.758C98.588,29.800,92.008,32.023,92.008,32.023L92.850,33.895C92.850,33.895,93.037,31.181,97.717,29.496C102.396,27.812,107.123,29.850,108.105,35.111C109.055,40.200,105.391,43.440,101.648,43.534C98.233,43.619,95.471,42.130,95.471,42.130L95.845,44.376C95.845,44.376,100.524,42.598,103.894,45.967C107.263,49.336,106.795,53.828,102.864,55.606C97.644,57.968,94.348,54.577,94.348,54.577C94.348,54.577,101.753,59.732,95.845,64.684C91.014,68.733,86.861,61.970,86.861,61.970C86.861,61.970,85.080,66.776,86.072,69.891C87.916,75.680,98.372,75.633,105.672,89.296C112.972,102.959,111.193,110.633,111.193,110.633Z" style="stroke-dasharray: none; stroke: none; stroke-opacity: 1; stroke-linejoin: miter; stroke-linecap: butt; stroke-miterlimit: 4; fill: rgb(250, 181, 245); fill-opacity: 1;"/></g><g id="strokes-2b715929-24d7-11ec-a597-6bd30b8da739" class="strokes"><g class="stroke-shape"><path rx="0" ry="0" d="m42.313,110.957C42.313,110.957,39.565,99.769,47.928,89.015C57.019,77.327,64.011,77.698,67.380,73.674C72.648,67.382,68.728,64.491,66.460,62.671C63.356,60.180,50.907,57.960,46.653,44.126C43.469,33.773,50.998,20.679,65.223,19.930C79.448,19.182,83.679,26.783,83.679,26.783C83.679,26.783,81.428,21.476,86.206,17.892C91.419,13.981,97.685,17.007,98.091,22.758C98.588,29.800,92.008,32.023,92.008,32.023L92.850,33.895C92.850,33.895,93.037,31.181,97.717,29.496C102.396,27.812,107.123,29.850,108.105,35.111C109.055,40.200,105.391,43.440,101.648,43.534C98.233,43.619,95.471,42.130,95.471,42.130L95.845,44.376C95.845,44.376,100.524,42.598,103.894,45.967C107.263,49.336,106.795,53.828,102.864,55.606C97.644,57.968,94.348,54.577,94.348,54.577C94.348,54.577,101.753,59.732,95.845,64.684C91.014,68.733,86.861,61.970,86.861,61.970C86.861,61.970,85.080,66.776,86.072,69.891C87.916,75.680,98.372,75.633,105.672,89.296C112.972,102.959,111.193,110.633,111.193,110.633Z" style="stroke-dasharray: none; stroke: none; stroke-opacity: 1; stroke-linejoin: miter; stroke-linecap: butt; stroke-miterlimit: 4; fill: none; stroke-width: 2.49686;"/></g></g></g><g id="shape-2b718030-24d7-11ec-a597-6bd30b8da739"><g class="fills" id="fills-2b718030-24d7-11ec-a597-6bd30b8da739"><path rx="0" ry="0" d="m67.583,27.892C64.983,26.929,62.068,28.270,61.104,30.871C60.140,33.472,61.477,36.389,64.077,37.352C66.677,38.315,69.591,36.973,70.555,34.372C71.519,31.771,70.183,28.855,67.583,27.892ZZM66.906,29.719C68.517,30.315,69.327,32.080,68.728,33.695C68.130,35.310,66.365,36.122,64.754,35.525C63.144,34.928,62.332,33.163,62.931,31.548C63.529,29.933,65.295,29.122,66.906,29.719ZZ" style="font: medium sans-serif; stroke-opacity: 1; vector-effect: none; stroke: none; word-spacing: normal; text-decoration: none solid; isolation: auto; baseline-shift: baseline; color: rgb(0, 0, 0); fill-rule: nonzero; text-transform: none; overflow: visible; image-rendering: auto; stroke-dashoffset: 0; text-anchor: start; font-feature-settings: normal; text-indent: 0px; writing-mode: lr-tb; letter-spacing: normal; color-rendering: auto; text-orientation: mixed; opacity: 1; mix-blend-mode: normal; stroke-linejoin: miter; stroke-dasharray: none; white-space: normal; stroke-miterlimit: 4; text-align: start; display: inline; shape-rendering: auto; text-rendering: auto; dominant-baseline: auto; stroke-linecap: butt; visibility: visible; direction: ltr; color-interpolation: srgb; clip-rule: nonzero; color-interpolation-filters: linearrgb; fill: rgb(255, 255, 255); fill-opacity: 1;"/></g><g id="strokes-2b718030-24d7-11ec-a597-6bd30b8da739" class="strokes"><g class="stroke-shape"><path rx="0" ry="0" d="m67.583,27.892C64.983,26.929,62.068,28.270,61.104,30.871C60.140,33.472,61.477,36.389,64.077,37.352C66.677,38.315,69.591,36.973,70.555,34.372C71.519,31.771,70.183,28.855,67.583,27.892ZZM66.906,29.719C68.517,30.315,69.327,32.080,68.728,33.695C68.130,35.310,66.365,36.122,64.754,35.525C63.144,34.928,62.332,33.163,62.931,31.548C63.529,29.933,65.295,29.122,66.906,29.719ZZ" style="font: medium sans-serif; stroke-opacity: 1; vector-effect: none; stroke: none; word-spacing: normal; text-decoration: none solid; isolation: auto; baseline-shift: baseline; color: rgb(0, 0, 0); fill-rule: nonzero; text-transform: none; overflow: visible; image-rendering: auto; stroke-dashoffset: 0; text-anchor: start; font-feature-settings: normal; text-indent: 0px; writing-mode: lr-tb; letter-spacing: normal; color-rendering: auto; text-orientation: mixed; opacity: 1; mix-blend-mode: normal; stroke-linejoin: miter; stroke-dasharray: none; white-space: normal; stroke-miterlimit: 4; text-align: start; display: inline; shape-rendering: auto; text-rendering: auto; dominant-baseline: auto; stroke-linecap: butt; visibility: visible; direction: ltr; color-interpolation: srgb; clip-rule: nonzero; color-interpolation-filters: linearrgb; fill: none; stroke-width: 2.49686;"/></g></g></g><g id="shape-2b718031-24d7-11ec-a597-6bd30b8da739"><g class="fills" id="fills-2b718031-24d7-11ec-a597-6bd30b8da739"><path rx="0" ry="0" d="m53.689,37.199C53.201,39.458,52.931,42.678,54.023,45.864C55.114,49.049,57.641,52.149,62.422,53.920C67.202,55.691,71.376,55.101,74.525,53.507C77.675,51.913,79.820,49.385,80.813,47.167L79.034,46.371C78.251,48.120,76.360,50.395,73.644,51.769C70.929,53.144,67.409,53.689,63.099,52.092C58.788,50.496,56.793,47.936,55.867,45.233C54.941,42.529,55.158,39.632,55.594,37.609Z" style="font: medium sans-serif; stroke-opacity: 1; vector-effect: none; stroke: none; word-spacing: normal; text-decoration: none solid; isolation: auto; baseline-shift: baseline; color: rgb(0, 0, 0); fill-rule: nonzero; text-transform: none; overflow: visible; image-rendering: auto; stroke-dashoffset: 0; text-anchor: start; font-feature-settings: normal; text-indent: 0px; writing-mode: lr-tb; letter-spacing: normal; color-rendering: auto; text-orientation: mixed; opacity: 1; mix-blend-mode: normal; stroke-linejoin: miter; stroke-dasharray: none; white-space: normal; stroke-miterlimit: 4; text-align: start; display: inline; shape-rendering: auto; text-rendering: auto; dominant-baseline: auto; stroke-linecap: butt; visibility: visible; direction: ltr; color-interpolation: srgb; clip-rule: nonzero; color-interpolation-filters: linearrgb; fill: rgb(255, 255, 255); fill-opacity: 1;"/></g><g id="strokes-2b718031-24d7-11ec-a597-6bd30b8da739" class="strokes"><g class="stroke-shape"><path rx="0" ry="0" d="m53.689,37.199C53.201,39.458,52.931,42.678,54.023,45.864C55.114,49.049,57.641,52.149,62.422,53.920C67.202,55.691,71.376,55.101,74.525,53.507C77.675,51.913,79.820,49.385,80.813,47.167L79.034,46.371C78.251,48.120,76.360,50.395,73.644,51.769C70.929,53.144,67.409,53.689,63.099,52.092C58.788,50.496,56.793,47.936,55.867,45.233C54.941,42.529,55.158,39.632,55.594,37.609Z" style="font: medium sans-serif; stroke-opacity: 1; vector-effect: none; stroke: none; word-spacing: normal; text-decoration: none solid; isolation: auto; baseline-shift: baseline; color: rgb(0, 0, 0); fill-rule: nonzero; text-transform: none; overflow: visible; image-rendering: auto; stroke-dashoffset: 0; text-anchor: start; font-feature-settings: normal; text-indent: 0px; writing-mode: lr-tb; letter-spacing: normal; color-rendering: auto; text-orientation: mixed; opacity: 1; mix-blend-mode: normal; stroke-linejoin: miter; stroke-dasharray: none; white-space: normal; stroke-miterlimit: 4; text-align: start; display: inline; shape-rendering: auto; text-rendering: auto; dominant-baseline: auto; stroke-linecap: butt; visibility: visible; direction: ltr; color-interpolation: srgb; clip-rule: nonzero; color-interpolation-filters: linearrgb; fill: none; stroke-width: 2.49686;"/></g></g></g></g><g id="shape-2b718032-24d7-11ec-a597-6bd30b8da739" rx="0" ry="0" style="fill: rgb(177, 247, 228); fill-opacity: 1;"><g id="shape-2b718033-24d7-11ec-a597-6bd30b8da739"><g class="fills" id="fills-2b718033-24d7-11ec-a597-6bd30b8da739"><path rx="0" ry="0" d="m16.417,64.170C15.858,67.118,21.950,68.702,23.860,69.416C19.058,70.591,7.755,66.735,7.455,69.890C7.156,73.044,12.706,76.412,16.306,77.927C19.906,79.443,25.401,81.148,24.454,81.527C23.506,81.906,15.107,78.655,14.296,81.169C13.486,83.683,18.608,85.229,22.370,86.643C32.164,90.323,30.273,112.590,30.273,112.590L101.141,112.144C101.141,111.196,90.926,76.026,69.741,67.507C55.841,61.455,42.274,67.488,31.197,65.746C25.582,64.824,16.976,61.222,16.417,64.170ZZ" style="stroke: none; stroke-linecap: butt; stroke-linejoin: miter; stroke-opacity: 1; fill: rgb(177, 247, 228); fill-opacity: 1;"/></g><g id="strokes-2b718033-24d7-11ec-a597-6bd30b8da739" class="strokes"><g class="stroke-shape"><path rx="0" ry="0" d="m16.417,64.170C15.858,67.118,21.950,68.702,23.860,69.416C19.058,70.591,7.755,66.735,7.455,69.890C7.156,73.044,12.706,76.412,16.306,77.927C19.906,79.443,25.401,81.148,24.454,81.527C23.506,81.906,15.107,78.655,14.296,81.169C13.486,83.683,18.608,85.229,22.370,86.643C32.164,90.323,30.273,112.590,30.273,112.590L101.141,112.144C101.141,111.196,90.926,76.026,69.741,67.507C55.841,61.455,42.274,67.488,31.197,65.746C25.582,64.824,16.976,61.222,16.417,64.170ZZ" style="stroke: none; stroke-linecap: butt; stroke-linejoin: miter; stroke-opacity: 1; fill: none; stroke-width: 0.363683;"/></g></g></g><g id="shape-2b718034-24d7-11ec-a597-6bd30b8da739"><g class="fills" id="fills-2b718034-24d7-11ec-a597-6bd30b8da739"><path rx="0" ry="0" d="m60.849,77.150C63.805,76.054,67.116,77.578,68.212,80.536C69.309,83.494,67.790,86.808,64.833,87.903C61.877,88.999,58.567,87.474,57.470,84.515C56.374,81.557,57.892,78.245,60.849,77.150ZZM61.525,78.976C59.558,79.705,58.566,81.867,59.297,83.839C60.028,85.811,62.189,86.806,64.156,86.077C66.124,85.348,67.115,83.185,66.384,81.213C65.653,79.241,63.493,78.248,61.525,78.976ZZ" style="font: medium sans-serif; stroke-opacity: 1; vector-effect: none; stroke: none; word-spacing: normal; text-decoration: none solid; isolation: auto; baseline-shift: baseline; color: rgb(0, 0, 0); fill-rule: nonzero; text-transform: none; overflow: visible; image-rendering: auto; stroke-dashoffset: 0; text-anchor: start; font-feature-settings: normal; text-indent: 0px; writing-mode: lr-tb; letter-spacing: normal; color-rendering: auto; text-orientation: mixed; opacity: 1; mix-blend-mode: normal; stroke-linejoin: miter; stroke-dasharray: none; white-space: normal; stroke-miterlimit: 4; text-align: start; display: inline; shape-rendering: auto; text-rendering: auto; dominant-baseline: auto; stroke-linecap: butt; visibility: visible; direction: ltr; color-interpolation: srgb; clip-rule: nonzero; color-interpolation-filters: linearrgb; fill: rgb(255, 255, 255); fill-opacity: 1;"/></g><g id="strokes-2b718034-24d7-11ec-a597-6bd30b8da739" class="strokes"><g class="stroke-shape"><path rx="0" ry="0" d="m60.849,77.150C63.805,76.054,67.116,77.578,68.212,80.536C69.309,83.494,67.790,86.808,64.833,87.903C61.877,88.999,58.567,87.474,57.470,84.515C56.374,81.557,57.892,78.245,60.849,77.150ZZM61.525,78.976C59.558,79.705,58.566,81.867,59.297,83.839C60.028,85.811,62.189,86.806,64.156,86.077C66.124,85.348,67.115,83.185,66.384,81.213C65.653,79.241,63.493,78.248,61.525,78.976ZZ" style="font: medium sans-serif; stroke-opacity: 1; vector-effect: none; stroke: none; word-spacing: normal; text-decoration: none solid; isolation: auto; baseline-shift: baseline; color: rgb(0, 0, 0); fill-rule: nonzero; text-transform: none; overflow: visible; image-rendering: auto; stroke-dashoffset: 0; text-anchor: start; font-feature-settings: normal; text-indent: 0px; writing-mode: lr-tb; letter-spacing: normal; color-rendering: auto; text-orientation: mixed; opacity: 1; mix-blend-mode: normal; stroke-linejoin: miter; stroke-dasharray: none; white-space: normal; stroke-miterlimit: 4; text-align: start; display: inline; shape-rendering: auto; text-rendering: auto; dominant-baseline: auto; stroke-linecap: butt; visibility: visible; direction: ltr; color-interpolation: srgb; clip-rule: nonzero; color-interpolation-filters: linearrgb; fill: none; stroke-width: 2.7491;"/></g></g></g><g id="shape-2b718035-24d7-11ec-a597-6bd30b8da739"><g class="fills" id="fills-2b718035-24d7-11ec-a597-6bd30b8da739"><path rx="0" ry="0" d="m76.876,87.913L74.970,88.324C75.485,90.710,75.743,94.126,74.646,97.328C73.550,100.530,71.172,103.569,66.092,105.451C61.012,107.333,56.840,106.690,53.628,105.064C50.416,103.438,48.183,100.758,47.250,98.673L45.471,99.470C46.614,102.024,49.102,104.958,52.749,106.803C56.395,108.649,61.220,109.334,66.770,107.278C72.320,105.222,75.229,101.643,76.491,97.959C77.753,94.275,77.442,90.535,76.876,87.913ZZ" style="font: medium sans-serif; stroke-opacity: 1; vector-effect: none; stroke: none; word-spacing: normal; text-decoration: none solid; isolation: auto; baseline-shift: baseline; color: rgb(0, 0, 0); fill-rule: nonzero; text-transform: none; overflow: visible; image-rendering: auto; stroke-dashoffset: 0; text-anchor: start; font-feature-settings: normal; text-indent: 0px; writing-mode: lr-tb; letter-spacing: normal; color-rendering: auto; text-orientation: mixed; opacity: 1; mix-blend-mode: normal; stroke-linejoin: miter; stroke-dasharray: none; white-space: normal; stroke-miterlimit: 4; text-align: start; display: inline; shape-rendering: auto; text-rendering: auto; dominant-baseline: auto; stroke-linecap: butt; visibility: visible; direction: ltr; color-interpolation: srgb; clip-rule: nonzero; color-interpolation-filters: linearrgb; fill: rgb(255, 255, 255); fill-opacity: 1;"/></g><g id="strokes-2b718035-24d7-11ec-a597-6bd30b8da739" class="strokes"><g class="stroke-shape"><path rx="0" ry="0" d="m76.876,87.913L74.970,88.324C75.485,90.710,75.743,94.126,74.646,97.328C73.550,100.530,71.172,103.569,66.092,105.451C61.012,107.333,56.840,106.690,53.628,105.064C50.416,103.438,48.183,100.758,47.250,98.673L45.471,99.470C46.614,102.024,49.102,104.958,52.749,106.803C56.395,108.649,61.220,109.334,66.770,107.278C72.320,105.222,75.229,101.643,76.491,97.959C77.753,94.275,77.442,90.535,76.876,87.913ZZ" style="font: medium sans-serif; stroke-opacity: 1; vector-effect: none; stroke: none; word-spacing: normal; text-decoration: none solid; isolation: auto; baseline-shift: baseline; color: rgb(0, 0, 0); fill-rule: nonzero; text-transform: none; overflow: visible; image-rendering: auto; stroke-dashoffset: 0; text-anchor: start; font-feature-settings: normal; text-indent: 0px; writing-mode: lr-tb; letter-spacing: normal; color-rendering: auto; text-orientation: mixed; opacity: 1; mix-blend-mode: normal; stroke-linejoin: miter; stroke-dasharray: none; white-space: normal; stroke-miterlimit: 4; text-align: start; display: inline; shape-rendering: auto; text-rendering: auto; dominant-baseline: auto; stroke-linecap: butt; visibility: visible; direction: ltr; color-interpolation: srgb; clip-rule: nonzero; color-interpolation-filters: linearrgb; fill: none; stroke-width: 2.7491;"/></g></g></g></g><g id="shape-2b718036-24d7-11ec-a597-6bd30b8da739"><g class="fills" id="fills-2b718036-24d7-11ec-a597-6bd30b8da739"><path rx="0" ry="0" d="m71.034,0.240L70.849,2.768L72.795,2.909L72.977,0.381ZM57.293,0.779L55.477,1.489L58.585,9.427L60.401,8.717ZM70.684,6.447L70.427,11.464L72.374,11.563L72.629,6.546ZM60.856,10.023L59.078,10.819L59.664,12.128L61.444,11.330ZM43.235,11.597L42.255,13.281L44.080,14.343L45.061,12.659ZM46.195,13.576L45.238,15.274L51.931,19.044L52.889,17.347Z" style="font: medium sans-serif; stroke-opacity: 1; vector-effect: none; stroke: none; word-spacing: normal; text-decoration: none solid; isolation: auto; baseline-shift: baseline; color: rgb(0, 0, 0); fill-rule: nonzero; text-transform: none; overflow: visible; image-rendering: auto; stroke-dashoffset: 0; text-anchor: start; font-feature-settings: normal; text-indent: 0px; writing-mode: lr-tb; letter-spacing: normal; color-rendering: auto; text-orientation: mixed; opacity: 1; mix-blend-mode: normal; stroke-linejoin: miter; stroke-dasharray: none; white-space: normal; stroke-miterlimit: 4; text-align: start; display: inline; shape-rendering: auto; text-rendering: auto; dominant-baseline: auto; stroke-linecap: butt; visibility: visible; direction: ltr; color-interpolation: srgb; clip-rule: nonzero; color-interpolation-filters: linearrgb; fill: rgb(242, 58, 229); fill-opacity: 1;"/></g><g id="strokes-2b718036-24d7-11ec-a597-6bd30b8da739" class="strokes"><g class="stroke-shape"><path rx="0" ry="0" d="m71.034,0.240L70.849,2.768L72.795,2.909L72.977,0.381ZM57.293,0.779L55.477,1.489L58.585,9.427L60.401,8.717ZM70.684,6.447L70.427,11.464L72.374,11.563L72.629,6.546ZM60.856,10.023L59.078,10.819L59.664,12.128L61.444,11.330ZM43.235,11.597L42.255,13.281L44.080,14.343L45.061,12.659ZM46.195,13.576L45.238,15.274L51.931,19.044L52.889,17.347Z" style="font: medium sans-serif; stroke-opacity: 1; vector-effect: none; stroke: none; word-spacing: normal; text-decoration: none solid; isolation: auto; baseline-shift: baseline; color: rgb(0, 0, 0); fill-rule: nonzero; text-transform: none; overflow: visible; image-rendering: auto; stroke-dashoffset: 0; text-anchor: start; font-feature-settings: normal; text-indent: 0px; writing-mode: lr-tb; letter-spacing: normal; color-rendering: auto; text-orientation: mixed; opacity: 1; mix-blend-mode: normal; stroke-linejoin: miter; stroke-dasharray: none; white-space: normal; stroke-miterlimit: 4; text-align: start; display: inline; shape-rendering: auto; text-rendering: auto; dominant-baseline: auto; stroke-linecap: butt; visibility: visible; direction: ltr; color-interpolation: srgb; clip-rule: nonzero; color-interpolation-filters: linearrgb; fill: none; stroke-width: 2;"/></g></g></g><g id="shape-2b718037-24d7-11ec-a597-6bd30b8da739"><g class="fills" id="fills-2b718037-24d7-11ec-a597-6bd30b8da739"><path rx="0" ry="0" d="M121.921,78.994L117.007,83.872L117.692,84.565L121.921,80.366L126.637,85.052L130.619,81.099L134.967,85.418L140.325,80.100L139.638,79.407L134.967,84.045L130.619,79.725L126.637,83.678L121.921,78.994ZZM126.217,86.078L121.302,90.956L121.989,91.649L126.217,87.450L130.934,92.136L134.916,88.183L139.265,92.502L144.621,87.184L143.933,86.491L139.265,91.129L134.916,86.809L130.934,90.762L126.217,86.078ZZM130.999,93.080L126.085,97.960L126.772,98.651L130.999,94.454L135.717,99.138L139.697,95.185L144.048,99.505L149.404,94.186L148.716,93.495L144.048,98.131L139.697,93.813L135.717,97.766L130.999,93.080ZZ" style="font: medium sans-serif; stroke-opacity: 1; vector-effect: none; stroke: none; word-spacing: normal; text-decoration: none solid; isolation: auto; baseline-shift: baseline; color: rgb(0, 0, 0); fill-rule: nonzero; text-transform: none; overflow: visible; image-rendering: auto; stroke-dashoffset: 0; text-anchor: start; font-feature-settings: normal; text-indent: 0px; writing-mode: lr-tb; letter-spacing: normal; color-rendering: auto; text-orientation: mixed; opacity: 1; mix-blend-mode: normal; stroke-linejoin: miter; stroke-dasharray: none; white-space: normal; stroke-miterlimit: 4; text-align: start; display: inline; shape-rendering: auto; text-rendering: auto; dominant-baseline: auto; stroke-linecap: butt; visibility: visible; direction: ltr; color-interpolation: srgb; clip-rule: nonzero; color-interpolation-filters: linearrgb; fill: rgb(49, 239, 184); fill-opacity: 1;"/></g><g id="strokes-2b718037-24d7-11ec-a597-6bd30b8da739" class="strokes"><g class="stroke-shape"><path rx="0" ry="0" d="M121.921,78.994L117.007,83.872L117.692,84.565L121.921,80.366L126.637,85.052L130.619,81.099L134.967,85.418L140.325,80.100L139.638,79.407L134.967,84.045L130.619,79.725L126.637,83.678L121.921,78.994ZZM126.217,86.078L121.302,90.956L121.989,91.649L126.217,87.450L130.934,92.136L134.916,88.183L139.265,92.502L144.621,87.184L143.933,86.491L139.265,91.129L134.916,86.809L130.934,90.762L126.217,86.078ZZM130.999,93.080L126.085,97.960L126.772,98.651L130.999,94.454L135.717,99.138L139.697,95.185L144.048,99.505L149.404,94.186L148.716,93.495L144.048,98.131L139.697,93.813L135.717,97.766L130.999,93.080ZZ" style="font: medium sans-serif; stroke-opacity: 1; vector-effect: none; stroke: none; word-spacing: normal; text-decoration: none solid; isolation: auto; baseline-shift: baseline; color: rgb(0, 0, 0); fill-rule: nonzero; text-transform: none; overflow: visible; image-rendering: auto; stroke-dashoffset: 0; text-anchor: start; font-feature-settings: normal; text-indent: 0px; writing-mode: lr-tb; letter-spacing: normal; color-rendering: auto; text-orientation: mixed; opacity: 1; mix-blend-mode: normal; stroke-linejoin: miter; stroke-dasharray: none; white-space: normal; stroke-miterlimit: 4; text-align: start; display: inline; shape-rendering: auto; text-rendering: auto; dominant-baseline: auto; stroke-linecap: butt; visibility: visible; direction: ltr; color-interpolation: srgb; clip-rule: nonzero; color-interpolation-filters: linearrgb; fill: none; stroke-width: 3.77953;"/></g></g></g><g id="shape-2b718038-24d7-11ec-a597-6bd30b8da739" rx="0" ry="0" style="fill: rgb(0, 0, 0);"><g id="shape-2b718039-24d7-11ec-a597-6bd30b8da739"><g class="fills" id="fills-2b718039-24d7-11ec-a597-6bd30b8da739"><path rx="0" ry="0" d="m4.052,20.873C2.235,20.873,0.772,22.336,0.772,24.154L0.772,48.299C0.772,50.117,2.235,51.580,4.052,51.580L15.082,51.580C15.502,53.342,16.290,55.813,17.658,57.426C19.977,60.161,24.533,61.653,24.450,61.321C24.368,60.994,22.105,57.266,23.330,51.580L35.680,51.580C37.497,51.580,38.960,50.117,38.960,48.299L38.960,35.250C42.426,35.913,48.706,37.062,48.405,36.641C48.116,36.237,42.451,31.479,38.960,28.561L38.960,24.154C38.960,22.336,37.497,20.873,35.680,20.873Z" style="stroke: none; stroke-opacity: 1; paint-order: markers; fill: rgb(255, 255, 255);"/></g><g id="strokes-2b718039-24d7-11ec-a597-6bd30b8da739" class="strokes"><g class="stroke-shape"><path rx="0" ry="0" d="m4.052,20.873C2.235,20.873,0.772,22.336,0.772,24.154L0.772,48.299C0.772,50.117,2.235,51.580,4.052,51.580L15.082,51.580C15.502,53.342,16.290,55.813,17.658,57.426C19.977,60.161,24.533,61.653,24.450,61.321C24.368,60.994,22.105,57.266,23.330,51.580L35.680,51.580C37.497,51.580,38.960,50.117,38.960,48.299L38.960,35.250C42.426,35.913,48.706,37.062,48.405,36.641C48.116,36.237,42.451,31.479,38.960,28.561L38.960,24.154C38.960,22.336,37.497,20.873,35.680,20.873Z" style="stroke: none; stroke-opacity: 1; paint-order: markers; fill: none; stroke-width: 2;"/></g></g></g><g id="shape-2b71803a-24d7-11ec-a597-6bd30b8da739"><g class="fills" id="fills-2b71803a-24d7-11ec-a597-6bd30b8da739"><path rx="0" ry="0" d="m13.518,23.595L7.733,28.706L21.286,44.155L22.449,45.078L29.113,48.013L30.621,48.693L30.093,47.131L30.084,47.104L27.851,40.306L27.072,39.045ZM13.387,25.662L25.976,40.012L24.817,41.035L12.171,26.736ZM11.076,27.703L23.723,42.002L22.381,43.187L9.792,28.837ZM26.658,41.360L27.752,44.685L26.999,45.485L23.655,44.013Z" style="font: medium sans-serif; stroke-opacity: 1; vector-effect: none; stroke: none; word-spacing: normal; text-decoration: none solid; isolation: auto; baseline-shift: baseline; color: rgb(0, 0, 0); fill-rule: nonzero; text-transform: none; overflow: visible; paint-order: markers; image-rendering: auto; stroke-dashoffset: 0; text-anchor: start; font-feature-settings: normal; text-indent: 0px; writing-mode: lr-tb; letter-spacing: normal; color-rendering: auto; text-orientation: mixed; opacity: 1; mix-blend-mode: normal; stroke-linejoin: miter; stroke-dasharray: none; white-space: normal; stroke-miterlimit: 4; text-align: start; display: inline; shape-rendering: auto; text-rendering: auto; dominant-baseline: auto; stroke-linecap: butt; visibility: visible; direction: ltr; color-interpolation: srgb; clip-rule: nonzero; color-interpolation-filters: linearrgb; fill: rgb(0, 0, 0); fill-opacity: 1;"/></g><g id="strokes-2b71803a-24d7-11ec-a597-6bd30b8da739" class="strokes"><g class="stroke-shape"><path rx="0" ry="0" d="m13.518,23.595L7.733,28.706L21.286,44.155L22.449,45.078L29.113,48.013L30.621,48.693L30.093,47.131L30.084,47.104L27.851,40.306L27.072,39.045ZM13.387,25.662L25.976,40.012L24.817,41.035L12.171,26.736ZM11.076,27.703L23.723,42.002L22.381,43.187L9.792,28.837ZM26.658,41.360L27.752,44.685L26.999,45.485L23.655,44.013Z" style="font: medium sans-serif; stroke-opacity: 1; vector-effect: none; stroke: none; word-spacing: normal; text-decoration: none solid; isolation: auto; baseline-shift: baseline; color: rgb(0, 0, 0); fill-rule: nonzero; text-transform: none; overflow: visible; paint-order: markers; image-rendering: auto; stroke-dashoffset: 0; text-anchor: start; font-feature-settings: normal; text-indent: 0px; writing-mode: lr-tb; letter-spacing: normal; color-rendering: auto; text-orientation: mixed; opacity: 1; mix-blend-mode: normal; stroke-linejoin: miter; stroke-dasharray: none; white-space: normal; stroke-miterlimit: 4; text-align: start; display: inline; shape-rendering: auto; text-rendering: auto; dominant-baseline: auto; stroke-linecap: butt; visibility: visible; direction: ltr; color-interpolation: srgb; clip-rule: nonzero; color-interpolation-filters: linearrgb; fill: none; stroke-width: 5.66929;"/></g></g></g><g id="shape-2b71803b-24d7-11ec-a597-6bd30b8da739"><g class="fills" id="fills-2b71803b-24d7-11ec-a597-6bd30b8da739"><path rx="0" ry="0" d="m4.052,19.899C1.711,19.899,-0.202,21.814,-0.202,24.154L-0.202,48.299C-0.202,50.640,1.711,52.555,4.052,52.555L14.367,52.555C14.829,54.303,15.538,56.432,16.916,58.057C18.222,59.598,20.037,60.693,21.537,61.405C22.287,61.761,22.954,62.015,23.468,62.170C23.726,62.247,23.933,62.302,24.161,62.330C24.275,62.343,24.379,62.368,24.628,62.312C24.752,62.284,24.948,62.239,25.162,62.006C25.376,61.773,25.456,61.329,25.395,61.085C25.309,60.742,25.278,60.773,25.212,60.630C25.145,60.487,25.061,60.307,24.966,60.082C24.776,59.631,24.543,59.006,24.346,58.222C23.994,56.821,23.845,54.857,24.213,52.555L35.680,52.555C38.020,52.555,39.933,50.640,39.933,48.299L39.933,36.415C41.526,36.715,43.327,37.053,44.939,37.313C45.931,37.474,46.806,37.601,47.449,37.664C47.771,37.695,48.020,37.715,48.277,37.702C48.406,37.695,48.513,37.722,48.808,37.580C48.956,37.509,49.228,37.340,49.345,36.963C49.462,36.586,49.309,36.229,49.198,36.074C48.987,35.778,48.919,35.764,48.719,35.580C48.519,35.395,48.257,35.162,47.940,34.885C47.307,34.330,46.460,33.605,45.514,32.801C43.732,31.287,41.634,29.530,39.933,28.108L39.933,24.154C39.933,21.814,38.020,19.899,35.680,19.899ZM4.052,21.848L35.680,21.848C36.973,21.848,37.984,22.859,37.984,24.154L37.984,29.017L38.335,29.308C40.079,30.767,42.367,32.686,44.252,34.287C44.777,34.733,45.150,35.057,45.592,35.437C45.458,35.416,45.390,35.412,45.251,35.389C43.304,35.075,40.871,34.623,39.142,34.293L37.984,34.072L37.984,48.299C37.984,49.594,36.973,50.606,35.680,50.606L22.543,50.606L22.378,51.375C21.730,54.381,22.002,56.898,22.454,58.698C22.573,59.173,22.701,59.455,22.831,59.827C22.659,59.753,22.557,59.732,22.372,59.644C21.035,59.009,19.415,57.991,18.402,56.797C17.232,55.418,16.434,53.049,16.031,51.356L15.852,50.606L4.052,50.606C2.758,50.606,1.747,49.594,1.747,48.299L1.747,24.155C1.747,22.859,2.758,21.848,4.052,21.848ZZ" style="font: medium sans-serif; stroke-opacity: 1; vector-effect: none; stroke: none; word-spacing: normal; text-decoration: none solid; isolation: auto; baseline-shift: baseline; color: rgb(0, 0, 0); fill-rule: nonzero; text-transform: none; overflow: visible; paint-order: markers; image-rendering: auto; stroke-dashoffset: 0; text-anchor: start; font-feature-settings: normal; text-indent: 0px; writing-mode: lr-tb; letter-spacing: normal; color-rendering: auto; text-orientation: mixed; opacity: 1; mix-blend-mode: normal; stroke-linejoin: miter; stroke-dasharray: none; white-space: normal; stroke-miterlimit: 4; text-align: start; display: inline; shape-rendering: auto; text-rendering: auto; dominant-baseline: auto; stroke-linecap: butt; visibility: visible; direction: ltr; color-interpolation: srgb; clip-rule: nonzero; color-interpolation-filters: linearrgb; fill: rgb(0, 0, 0); fill-opacity: 1;"/></g><g id="strokes-2b71803b-24d7-11ec-a597-6bd30b8da739" class="strokes"><g class="stroke-shape"><path rx="0" ry="0" d="m4.052,19.899C1.711,19.899,-0.202,21.814,-0.202,24.154L-0.202,48.299C-0.202,50.640,1.711,52.555,4.052,52.555L14.367,52.555C14.829,54.303,15.538,56.432,16.916,58.057C18.222,59.598,20.037,60.693,21.537,61.405C22.287,61.761,22.954,62.015,23.468,62.170C23.726,62.247,23.933,62.302,24.161,62.330C24.275,62.343,24.379,62.368,24.628,62.312C24.752,62.284,24.948,62.239,25.162,62.006C25.376,61.773,25.456,61.329,25.395,61.085C25.309,60.742,25.278,60.773,25.212,60.630C25.145,60.487,25.061,60.307,24.966,60.082C24.776,59.631,24.543,59.006,24.346,58.222C23.994,56.821,23.845,54.857,24.213,52.555L35.680,52.555C38.020,52.555,39.933,50.640,39.933,48.299L39.933,36.415C41.526,36.715,43.327,37.053,44.939,37.313C45.931,37.474,46.806,37.601,47.449,37.664C47.771,37.695,48.020,37.715,48.277,37.702C48.406,37.695,48.513,37.722,48.808,37.580C48.956,37.509,49.228,37.340,49.345,36.963C49.462,36.586,49.309,36.229,49.198,36.074C48.987,35.778,48.919,35.764,48.719,35.580C48.519,35.395,48.257,35.162,47.940,34.885C47.307,34.330,46.460,33.605,45.514,32.801C43.732,31.287,41.634,29.530,39.933,28.108L39.933,24.154C39.933,21.814,38.020,19.899,35.680,19.899ZM4.052,21.848L35.680,21.848C36.973,21.848,37.984,22.859,37.984,24.154L37.984,29.017L38.335,29.308C40.079,30.767,42.367,32.686,44.252,34.287C44.777,34.733,45.150,35.057,45.592,35.437C45.458,35.416,45.390,35.412,45.251,35.389C43.304,35.075,40.871,34.623,39.142,34.293L37.984,34.072L37.984,48.299C37.984,49.594,36.973,50.606,35.680,50.606L22.543,50.606L22.378,51.375C21.730,54.381,22.002,56.898,22.454,58.698C22.573,59.173,22.701,59.455,22.831,59.827C22.659,59.753,22.557,59.732,22.372,59.644C21.035,59.009,19.415,57.991,18.402,56.797C17.232,55.418,16.434,53.049,16.031,51.356L15.852,50.606L4.052,50.606C2.758,50.606,1.747,49.594,1.747,48.299L1.747,24.155C1.747,22.859,2.758,21.848,4.052,21.848ZZ" style="font: medium sans-serif; stroke-opacity: 1; vector-effect: none; stroke: none; word-spacing: normal; text-decoration: none solid; isolation: auto; baseline-shift: baseline; color: rgb(0, 0, 0); fill-rule: nonzero; text-transform: none; overflow: visible; paint-order: markers; image-rendering: auto; stroke-dashoffset: 0; text-anchor: start; font-feature-settings: normal; text-indent: 0px; writing-mode: lr-tb; letter-spacing: normal; color-rendering: auto; text-orientation: mixed; opacity: 1; mix-blend-mode: normal; stroke-linejoin: miter; stroke-dasharray: none; white-space: normal; stroke-miterlimit: 4; text-align: start; display: inline; shape-rendering: auto; text-rendering: auto; dominant-baseline: auto; stroke-linecap: butt; visibility: visible; direction: ltr; color-interpolation: srgb; clip-rule: nonzero; color-interpolation-filters: linearrgb; fill: none; stroke-width: 2;"/></g></g></g></g><g id="shape-2b71803c-24d7-11ec-a597-6bd30b8da739" rx="0" ry="0" style="fill: rgb(0, 0, 0);"><g id="shape-2b71803d-24d7-11ec-a597-6bd30b8da739"><g class="fills" id="fills-2b71803d-24d7-11ec-a597-6bd30b8da739"><path rx="0" ry="0" d="m115.607,1.070C113.989,1.070,112.686,2.373,112.686,3.991L112.686,22.556C112.686,24.174,113.989,25.477,115.607,25.477L121.733,25.477L121.031,32.882L127.298,25.477L137.200,25.477C138.818,25.477,140.121,24.174,140.121,22.556L140.121,3.991C140.121,2.373,138.818,1.070,137.200,1.070Z" style="stroke: none; stroke-miterlimit: 4; stroke-dasharray: none; stroke-opacity: 1; paint-order: markers; fill: rgb(255, 255, 255);"/></g><g id="strokes-2b71803d-24d7-11ec-a597-6bd30b8da739" class="strokes"><g class="stroke-shape"><path rx="0" ry="0" d="m115.607,1.070C113.989,1.070,112.686,2.373,112.686,3.991L112.686,22.556C112.686,24.174,113.989,25.477,115.607,25.477L121.733,25.477L121.031,32.882L127.298,25.477L137.200,25.477C138.818,25.477,140.121,24.174,140.121,22.556L140.121,3.991C140.121,2.373,138.818,1.070,137.200,1.070Z" style="stroke: none; stroke-miterlimit: 4; stroke-dasharray: none; stroke-opacity: 1; paint-order: markers; fill: none; stroke-width: 2;"/></g></g></g><g id="shape-2b71a740-24d7-11ec-a597-6bd30b8da739"><g class="fills" id="fills-2b71a740-24d7-11ec-a597-6bd30b8da739"><path rx="0" ry="0" d="M122.694,7.246C121.072,7.241,119.588,8.217,118.929,9.718C118.749,10.127,118.585,10.874,118.583,11.292C118.581,12.107,118.916,13.146,119.390,13.770C119.415,13.803,119.448,13.838,119.504,13.898C119.559,13.958,119.635,14.037,119.727,14.132C119.909,14.322,120.157,14.575,120.450,14.872C121.034,15.467,121.795,16.234,122.555,16.996C123.314,17.758,124.072,18.514,124.652,19.088C124.942,19.375,125.188,19.617,125.368,19.791C125.457,19.877,125.530,19.947,125.585,19.998C125.612,20.023,125.635,20.043,125.653,20.059C125.671,20.075,125.677,20.083,125.704,20.101L125.929,20.243L125.929,20.110C126.097,20.151,126.269,20.215,126.428,20.131C126.469,20.109,126.468,20.104,126.485,20.089C126.502,20.074,126.522,20.056,126.547,20.032C126.599,19.985,126.669,19.919,126.755,19.836C126.927,19.670,127.168,19.436,127.457,19.151C128.037,18.580,128.816,17.804,129.657,16.959C130.761,15.849,131.537,15.061,132.053,14.522C132.312,14.253,132.506,14.046,132.644,13.892C132.781,13.738,132.860,13.646,132.906,13.567C133.286,12.917,133.546,12.058,133.546,11.416C133.546,10.700,133.262,9.752,132.868,9.151C131.968,7.778,130.300,7.036,128.742,7.324C127.827,7.493,127.191,7.827,126.437,8.531C126.310,8.649,126.191,8.757,126.102,8.834C126.076,8.857,126.059,8.870,126.039,8.887C126.027,8.876,126.020,8.869,126.005,8.856C125.935,8.793,125.841,8.705,125.742,8.607C124.826,7.702,123.821,7.249,122.694,7.246ZZM122.680,8.759C123.121,8.759,123.444,8.818,123.780,8.988C124.117,9.158,124.470,9.445,124.941,9.911C125.284,10.249,125.477,10.437,125.632,10.550C125.787,10.663,125.928,10.695,126.062,10.695C126.208,10.695,126.356,10.652,126.517,10.535C126.679,10.418,126.872,10.229,127.185,9.911C127.848,9.235,127.998,9.122,128.487,8.927C129.583,8.490,130.944,8.936,131.620,9.958C132.147,10.756,132.157,11.970,131.642,12.789C131.646,12.783,131.613,12.825,131.568,12.876C131.524,12.927,131.462,12.995,131.386,13.078C131.232,13.243,131.020,13.466,130.763,13.732C130.261,14.252,129.586,14.939,128.862,15.666C128.846,15.682,128.836,15.692,128.820,15.708C128.083,16.448,127.402,17.126,126.899,17.623C126.648,17.871,126.441,18.074,126.294,18.216C126.221,18.288,126.162,18.344,126.121,18.382L126.117,18.386C126.107,18.379,126.106,18.381,126.093,18.371C126.018,18.313,125.891,18.200,125.693,18.013C125.297,17.638,124.617,16.961,123.449,15.794C122.704,15.049,122.013,14.352,121.498,13.828C121.241,13.566,121.027,13.348,120.874,13.188C120.797,13.109,120.737,13.043,120.693,12.996C120.649,12.949,120.616,12.909,120.622,12.918C120.210,12.342,120.075,11.886,120.111,11.201C120.150,10.454,120.358,9.977,120.864,9.481C121.364,8.990,121.945,8.759,122.680,8.759ZL122.680,8.759ZZ" style="stroke: none; stroke-miterlimit: 4; stroke-dasharray: none; fill: rgb(0, 0, 0);"/></g><g id="strokes-2b71a740-24d7-11ec-a597-6bd30b8da739" class="strokes"><g class="stroke-shape"><path rx="0" ry="0" d="M122.694,7.246C121.072,7.241,119.588,8.217,118.929,9.718C118.749,10.127,118.585,10.874,118.583,11.292C118.581,12.107,118.916,13.146,119.390,13.770C119.415,13.803,119.448,13.838,119.504,13.898C119.559,13.958,119.635,14.037,119.727,14.132C119.909,14.322,120.157,14.575,120.450,14.872C121.034,15.467,121.795,16.234,122.555,16.996C123.314,17.758,124.072,18.514,124.652,19.088C124.942,19.375,125.188,19.617,125.368,19.791C125.457,19.877,125.530,19.947,125.585,19.998C125.612,20.023,125.635,20.043,125.653,20.059C125.671,20.075,125.677,20.083,125.704,20.101L125.929,20.243L125.929,20.110C126.097,20.151,126.269,20.215,126.428,20.131C126.469,20.109,126.468,20.104,126.485,20.089C126.502,20.074,126.522,20.056,126.547,20.032C126.599,19.985,126.669,19.919,126.755,19.836C126.927,19.670,127.168,19.436,127.457,19.151C128.037,18.580,128.816,17.804,129.657,16.959C130.761,15.849,131.537,15.061,132.053,14.522C132.312,14.253,132.506,14.046,132.644,13.892C132.781,13.738,132.860,13.646,132.906,13.567C133.286,12.917,133.546,12.058,133.546,11.416C133.546,10.700,133.262,9.752,132.868,9.151C131.968,7.778,130.300,7.036,128.742,7.324C127.827,7.493,127.191,7.827,126.437,8.531C126.310,8.649,126.191,8.757,126.102,8.834C126.076,8.857,126.059,8.870,126.039,8.887C126.027,8.876,126.020,8.869,126.005,8.856C125.935,8.793,125.841,8.705,125.742,8.607C124.826,7.702,123.821,7.249,122.694,7.246ZZM122.680,8.759C123.121,8.759,123.444,8.818,123.780,8.988C124.117,9.158,124.470,9.445,124.941,9.911C125.284,10.249,125.477,10.437,125.632,10.550C125.787,10.663,125.928,10.695,126.062,10.695C126.208,10.695,126.356,10.652,126.517,10.535C126.679,10.418,126.872,10.229,127.185,9.911C127.848,9.235,127.998,9.122,128.487,8.927C129.583,8.490,130.944,8.936,131.620,9.958C132.147,10.756,132.157,11.970,131.642,12.789C131.646,12.783,131.613,12.825,131.568,12.876C131.524,12.927,131.462,12.995,131.386,13.078C131.232,13.243,131.020,13.466,130.763,13.732C130.261,14.252,129.586,14.939,128.862,15.666C128.846,15.682,128.836,15.692,128.820,15.708C128.083,16.448,127.402,17.126,126.899,17.623C126.648,17.871,126.441,18.074,126.294,18.216C126.221,18.288,126.162,18.344,126.121,18.382L126.117,18.386C126.107,18.379,126.106,18.381,126.093,18.371C126.018,18.313,125.891,18.200,125.693,18.013C125.297,17.638,124.617,16.961,123.449,15.794C122.704,15.049,122.013,14.352,121.498,13.828C121.241,13.566,121.027,13.348,120.874,13.188C120.797,13.109,120.737,13.043,120.693,12.996C120.649,12.949,120.616,12.909,120.622,12.918C120.210,12.342,120.075,11.886,120.111,11.201C120.150,10.454,120.358,9.977,120.864,9.481C121.364,8.990,121.945,8.759,122.680,8.759ZL122.680,8.759ZZ" style="stroke: none; stroke-miterlimit: 4; stroke-dasharray: none; fill: none; stroke-width: 1.13386;"/></g></g></g><g id="shape-2b71a741-24d7-11ec-a597-6bd30b8da739"><g class="fills" id="fills-2b71a741-24d7-11ec-a597-6bd30b8da739"><path rx="0" ry="0" d="m115.606,0.096C113.465,0.096,111.712,1.849,111.712,3.990L111.712,22.556C111.712,24.697,113.465,26.452,115.606,26.452L120.663,26.452L119.768,35.884L127.750,26.452L137.200,26.452C139.341,26.452,141.096,24.697,141.096,22.556L141.096,3.990C141.096,1.849,139.341,0.096,137.200,0.096ZM115.606,2.045L137.200,2.045C138.295,2.045,139.147,2.895,139.147,3.990L139.147,22.556C139.147,23.651,138.295,24.503,137.200,24.503L126.846,24.503L122.294,29.883L122.804,24.503L115.606,24.503C114.511,24.503,113.661,23.651,113.661,22.556L113.661,3.990C113.661,2.895,114.511,2.045,115.606,2.045ZZ" style="font: medium sans-serif; stroke-opacity: 1; vector-effect: none; stroke: none; word-spacing: normal; text-decoration: none solid; isolation: auto; baseline-shift: baseline; color: rgb(0, 0, 0); fill-rule: nonzero; text-transform: none; overflow: visible; paint-order: markers; image-rendering: auto; stroke-dashoffset: 0; text-anchor: start; font-feature-settings: normal; text-indent: 0px; writing-mode: lr-tb; letter-spacing: normal; color-rendering: auto; text-orientation: mixed; opacity: 1; mix-blend-mode: normal; stroke-linejoin: miter; stroke-dasharray: none; white-space: normal; stroke-miterlimit: 4; text-align: start; display: inline; shape-rendering: auto; text-rendering: auto; dominant-baseline: auto; stroke-linecap: butt; visibility: visible; direction: ltr; color-interpolation: srgb; clip-rule: nonzero; color-interpolation-filters: linearrgb; fill: rgb(0, 0, 0); fill-opacity: 1;"/></g><g id="strokes-2b71a741-24d7-11ec-a597-6bd30b8da739" class="strokes"><g class="stroke-shape"><path rx="0" ry="0" d="m115.606,0.096C113.465,0.096,111.712,1.849,111.712,3.990L111.712,22.556C111.712,24.697,113.465,26.452,115.606,26.452L120.663,26.452L119.768,35.884L127.750,26.452L137.200,26.452C139.341,26.452,141.096,24.697,141.096,22.556L141.096,3.990C141.096,1.849,139.341,0.096,137.200,0.096ZM115.606,2.045L137.200,2.045C138.295,2.045,139.147,2.895,139.147,3.990L139.147,22.556C139.147,23.651,138.295,24.503,137.200,24.503L126.846,24.503L122.294,29.883L122.804,24.503L115.606,24.503C114.511,24.503,113.661,23.651,113.661,22.556L113.661,3.990C113.661,2.895,114.511,2.045,115.606,2.045ZZ" style="font: medium sans-serif; stroke-opacity: 1; vector-effect: none; stroke: none; word-spacing: normal; text-decoration: none solid; isolation: auto; baseline-shift: baseline; color: rgb(0, 0, 0); fill-rule: nonzero; text-transform: none; overflow: visible; paint-order: markers; image-rendering: auto; stroke-dashoffset: 0; text-anchor: start; font-feature-settings: normal; text-indent: 0px; writing-mode: lr-tb; letter-spacing: normal; color-rendering: auto; text-orientation: mixed; opacity: 1; mix-blend-mode: normal; stroke-linejoin: miter; stroke-dasharray: none; white-space: normal; stroke-miterlimit: 4; text-align: start; display: inline; shape-rendering: auto; text-rendering: auto; dominant-baseline: auto; stroke-linecap: butt; visibility: visible; direction: ltr; color-interpolation: srgb; clip-rule: nonzero; color-interpolation-filters: linearrgb; fill: none; stroke-width: 2;"/></g></g></g></g></g></g></g></svg>