<svg xmlns:xlink="http://www.w3.org/1999/xlink" width="148.715" xmlns="http://www.w3.org/2000/svg" height="129.859" id="screenshot-2b71a742-24d7-11ec-a597-6bd30b8da739" viewBox="-1.379 -0.859 148.715 129.859" style="-webkit-print-color-adjust: exact;" fill="none" version="1.1"><g id="shape-2b71a742-24d7-11ec-a597-6bd30b8da739" width="143.56073mm" version="1.1" height="125.10999mm" rx="0" ry="0" style="fill: rgb(0, 0, 0);"><g id="shape-2b71a743-24d7-11ec-a597-6bd30b8da739" rx="0" ry="0" style="fill: rgb(0, 0, 0);"><g id="shape-2b71a744-24d7-11ec-a597-6bd30b8da739" rx="0" ry="0" style="fill: rgb(0, 0, 0);"><g id="shape-2b71a745-24d7-11ec-a597-6bd30b8da739"><g class="fills" id="fills-2b71a745-24d7-11ec-a597-6bd30b8da739"><path rx="0" ry="0" d="m25.563,49.685C25.563,49.685,22.376,51.906,13.106,52.775C3.835,53.644,0.262,52.679,0.262,52.679L13.202,63.108L5.573,78.656L20.252,77.208Z" style="stroke: none; stroke-linecap: butt; stroke-linejoin: miter; stroke-miterlimit: 4; stroke-dasharray: none; stroke-opacity: 1; fill: rgb(255, 255, 255);"/></g><g id="strokes-2b71a745-24d7-11ec-a597-6bd30b8da739" class="strokes"><g class="stroke-shape"><path rx="0" ry="0" d="m25.563,49.685C25.563,49.685,22.376,51.906,13.106,52.775C3.835,53.644,0.262,52.679,0.262,52.679L13.202,63.108L5.573,78.656L20.252,77.208Z" style="stroke: none; stroke-linecap: butt; stroke-linejoin: miter; stroke-miterlimit: 4; stroke-dasharray: none; stroke-opacity: 1; fill: none; stroke-width: 2;"/></g></g></g><g id="shape-2b71a746-24d7-11ec-a597-6bd30b8da739"><g class="fills" id="fills-2b71a746-24d7-11ec-a597-6bd30b8da739"><path rx="0" ry="0" d="m27.043,47.408L24.979,48.847C24.979,48.847,24.353,49.301,22.482,49.937C20.610,50.572,17.576,51.329,13.011,51.757C8.422,52.187,5.265,52.161,3.274,52.033C1.282,51.904,0.529,51.693,0.529,51.693L-0.379,53.474L11.925,63.392L3.847,79.853L21.111,78.151ZM24.190,51.402L19.392,76.267L7.300,77.460L14.480,62.825L3.603,54.061C5.720,54.180,8.732,54.212,13.200,53.793C17.905,53.352,21.101,52.565,23.140,51.873C23.852,51.631,23.735,51.608,24.190,51.402ZZ" style="font: medium sans-serif; stroke-opacity: 1; vector-effect: none; stroke: none; word-spacing: normal; text-decoration: none solid; isolation: auto; baseline-shift: baseline; color: rgb(0, 0, 0); fill-rule: nonzero; text-transform: none; overflow: visible; image-rendering: auto; stroke-dashoffset: 0; text-anchor: start; font-feature-settings: normal; text-indent: 0px; writing-mode: lr-tb; letter-spacing: normal; color-rendering: auto; text-orientation: mixed; opacity: 1; mix-blend-mode: normal; stroke-linejoin: miter; stroke-dasharray: none; white-space: normal; stroke-miterlimit: 4; text-align: start; display: inline; shape-rendering: auto; text-rendering: auto; dominant-baseline: auto; stroke-linecap: butt; visibility: visible; direction: ltr; color-interpolation: srgb; clip-rule: nonzero; color-interpolation-filters: linearrgb; fill: rgb(0, 0, 0); fill-opacity: 1;"/></g><g id="strokes-2b71a746-24d7-11ec-a597-6bd30b8da739" class="strokes"><g class="stroke-shape"><path rx="0" ry="0" d="m27.043,47.408L24.979,48.847C24.979,48.847,24.353,49.301,22.482,49.937C20.610,50.572,17.576,51.329,13.011,51.757C8.422,52.187,5.265,52.161,3.274,52.033C1.282,51.904,0.529,51.693,0.529,51.693L-0.379,53.474L11.925,63.392L3.847,79.853L21.111,78.151ZM24.190,51.402L19.392,76.267L7.300,77.460L14.480,62.825L3.603,54.061C5.720,54.180,8.732,54.212,13.200,53.793C17.905,53.352,21.101,52.565,23.140,51.873C23.852,51.631,23.735,51.608,24.190,51.402ZZ" style="font: medium sans-serif; stroke-opacity: 1; vector-effect: none; stroke: none; word-spacing: normal; text-decoration: none solid; isolation: auto; baseline-shift: baseline; color: rgb(0, 0, 0); fill-rule: nonzero; text-transform: none; overflow: visible; image-rendering: auto; stroke-dashoffset: 0; text-anchor: start; font-feature-settings: normal; text-indent: 0px; writing-mode: lr-tb; letter-spacing: normal; color-rendering: auto; text-orientation: mixed; opacity: 1; mix-blend-mode: normal; stroke-linejoin: miter; stroke-dasharray: none; white-space: normal; stroke-miterlimit: 4; text-align: start; display: inline; shape-rendering: auto; text-rendering: auto; dominant-baseline: auto; stroke-linecap: butt; visibility: visible; direction: ltr; color-interpolation: srgb; clip-rule: nonzero; color-interpolation-filters: linearrgb; fill: none; stroke-width: 2;"/></g></g></g><g id="shape-2b71a747-24d7-11ec-a597-6bd30b8da739"><g class="fills" id="fills-2b71a747-24d7-11ec-a597-6bd30b8da739"><path rx="0" ry="0" d="m126.190,60.501C126.190,60.501,128.701,60.501,135.171,60.694C141.641,60.887,144.345,62.239,144.345,62.239L131.115,71.510L139.323,86.382C139.323,86.382,129.763,86.865,126.480,86.672C123.196,86.478,120.106,85.126,120.106,85.126L120.975,63.302Z" style="stroke: none; stroke-linecap: butt; stroke-linejoin: miter; stroke-miterlimit: 4; stroke-dasharray: none; stroke-opacity: 1; fill: rgb(255, 255, 255);"/></g><g id="strokes-2b71a747-24d7-11ec-a597-6bd30b8da739" class="strokes"><g class="stroke-shape"><path rx="0" ry="0" d="m126.190,60.501C126.190,60.501,128.701,60.501,135.171,60.694C141.641,60.887,144.345,62.239,144.345,62.239L131.115,71.510L139.323,86.382C139.323,86.382,129.763,86.865,126.480,86.672C123.196,86.478,120.106,85.126,120.106,85.126L120.975,63.302Z" style="stroke: none; stroke-linecap: butt; stroke-linejoin: miter; stroke-miterlimit: 4; stroke-dasharray: none; stroke-opacity: 1; fill: none; stroke-width: 2;"/></g></g></g><g id="shape-2b71a748-24d7-11ec-a597-6bd30b8da739"><g class="fills" id="fills-2b71a748-24d7-11ec-a597-6bd30b8da739"><path rx="0" ry="0" d="m125.933,59.480L125.707,59.602L119.977,62.677L119.056,85.784L119.697,86.063C119.697,86.063,122.895,87.485,126.420,87.692C129.919,87.898,139.374,87.402,139.374,87.402L141.009,87.321L132.454,71.819L146.336,62.093L144.801,61.326C144.801,61.326,143.984,60.926,142.426,60.546C140.868,60.166,138.502,59.772,135.200,59.673C128.722,59.480,126.190,59.480,126.190,59.480ZM126.436,61.530C126.570,61.530,128.855,61.528,135.141,61.715C138.309,61.810,140.531,62.187,141.943,62.532C142.044,62.556,141.990,62.552,142.083,62.576L129.777,71.201L137.614,85.398C135.664,85.488,129.208,85.809,126.540,85.652C124.019,85.504,121.932,84.724,121.156,84.418L121.973,63.925Z" style="font: medium sans-serif; stroke-opacity: 1; vector-effect: none; stroke: none; word-spacing: normal; text-decoration: none solid; isolation: auto; baseline-shift: baseline; color: rgb(0, 0, 0); fill-rule: nonzero; text-transform: none; overflow: visible; image-rendering: auto; stroke-dashoffset: 0; text-anchor: start; font-feature-settings: normal; text-indent: 0px; writing-mode: lr-tb; letter-spacing: normal; color-rendering: auto; text-orientation: mixed; opacity: 1; mix-blend-mode: normal; stroke-linejoin: miter; stroke-dasharray: none; white-space: normal; stroke-miterlimit: 4; text-align: start; display: inline; shape-rendering: auto; text-rendering: auto; dominant-baseline: auto; stroke-linecap: butt; visibility: visible; direction: ltr; color-interpolation: srgb; clip-rule: nonzero; color-interpolation-filters: linearrgb; fill: rgb(0, 0, 0); fill-opacity: 1;"/></g><g id="strokes-2b71a748-24d7-11ec-a597-6bd30b8da739" class="strokes"><g class="stroke-shape"><path rx="0" ry="0" d="m125.933,59.480L125.707,59.602L119.977,62.677L119.056,85.784L119.697,86.063C119.697,86.063,122.895,87.485,126.420,87.692C129.919,87.898,139.374,87.402,139.374,87.402L141.009,87.321L132.454,71.819L146.336,62.093L144.801,61.326C144.801,61.326,143.984,60.926,142.426,60.546C140.868,60.166,138.502,59.772,135.200,59.673C128.722,59.480,126.190,59.480,126.190,59.480ZM126.436,61.530C126.570,61.530,128.855,61.528,135.141,61.715C138.309,61.810,140.531,62.187,141.943,62.532C142.044,62.556,141.990,62.552,142.083,62.576L129.777,71.201L137.614,85.398C135.664,85.488,129.208,85.809,126.540,85.652C124.019,85.504,121.932,84.724,121.156,84.418L121.973,63.925Z" style="font: medium sans-serif; stroke-opacity: 1; vector-effect: none; stroke: none; word-spacing: normal; text-decoration: none solid; isolation: auto; baseline-shift: baseline; color: rgb(0, 0, 0); fill-rule: nonzero; text-transform: none; overflow: visible; image-rendering: auto; stroke-dashoffset: 0; text-anchor: start; font-feature-settings: normal; text-indent: 0px; writing-mode: lr-tb; letter-spacing: normal; color-rendering: auto; text-orientation: mixed; opacity: 1; mix-blend-mode: normal; stroke-linejoin: miter; stroke-dasharray: none; white-space: normal; stroke-miterlimit: 4; text-align: start; display: inline; shape-rendering: auto; text-rendering: auto; dominant-baseline: auto; stroke-linecap: butt; visibility: visible; direction: ltr; color-interpolation: srgb; clip-rule: nonzero; color-interpolation-filters: linearrgb; fill: none; stroke-width: 2;"/></g></g></g></g><g id="shape-2b71a749-24d7-11ec-a597-6bd30b8da739" rx="0" ry="0" style="fill: rgb(0, 0, 0);"><g id="shape-2b71a74a-24d7-11ec-a597-6bd30b8da739"><g class="fills" id="fills-2b71a74a-24d7-11ec-a597-6bd30b8da739"><path rx="0" ry="0" d="m19.769,54.610C19.769,54.610,19.479,50.168,26.336,49.106C33.060,48.064,28.267,60.018,28.267,60.018" style="stroke: none; stroke-linecap: butt; stroke-linejoin: miter; stroke-miterlimit: 4; stroke-dasharray: none; stroke-opacity: 1; fill: rgb(255, 255, 255);"/></g><g id="strokes-2b71a74a-24d7-11ec-a597-6bd30b8da739" class="strokes"><g class="stroke-shape"><path rx="0" ry="0" d="m19.769,54.610C19.769,54.610,19.479,50.168,26.336,49.106C33.060,48.064,28.267,60.018,28.267,60.018" style="stroke: none; stroke-linecap: butt; stroke-linejoin: miter; stroke-miterlimit: 4; stroke-dasharray: none; stroke-opacity: 1; fill: none; stroke-width: 2;"/></g></g></g><g id="shape-2b71a74b-24d7-11ec-a597-6bd30b8da739"><g class="fills" id="fills-2b71a74b-24d7-11ec-a597-6bd30b8da739"><path rx="0" ry="0" d="m26.178,48.096C22.535,48.661,20.564,50.212,19.617,51.711C18.671,53.211,18.749,54.677,18.749,54.677L20.789,54.544C20.789,54.544,20.723,53.788,21.346,52.801C21.969,51.814,23.279,50.614,26.492,50.116C27.195,50.007,27.646,50.082,27.935,50.210C28.224,50.338,28.401,50.516,28.564,50.835C28.889,51.473,28.976,52.711,28.809,54.045C28.476,56.711,27.318,59.637,27.318,59.637L29.216,60.398C29.216,60.398,30.456,57.348,30.837,54.298C31.028,52.773,31.052,51.217,30.384,49.907C30.050,49.251,29.499,48.668,28.763,48.342C28.027,48.016,27.156,47.945,26.178,48.096ZZ" style="font: medium sans-serif; stroke-opacity: 1; vector-effect: none; stroke: none; word-spacing: normal; text-decoration: none solid; isolation: auto; baseline-shift: baseline; color: rgb(0, 0, 0); fill-rule: nonzero; text-transform: none; overflow: visible; image-rendering: auto; stroke-dashoffset: 0; text-anchor: start; font-feature-settings: normal; text-indent: 0px; writing-mode: lr-tb; letter-spacing: normal; color-rendering: auto; text-orientation: mixed; opacity: 1; mix-blend-mode: normal; stroke-linejoin: miter; stroke-dasharray: none; white-space: normal; stroke-miterlimit: 4; text-align: start; display: inline; shape-rendering: auto; text-rendering: auto; dominant-baseline: auto; stroke-linecap: butt; visibility: visible; direction: ltr; color-interpolation: srgb; clip-rule: nonzero; color-interpolation-filters: linearrgb; fill: rgb(0, 0, 0); fill-opacity: 1;"/></g><g id="strokes-2b71a74b-24d7-11ec-a597-6bd30b8da739" class="strokes"><g class="stroke-shape"><path rx="0" ry="0" d="m26.178,48.096C22.535,48.661,20.564,50.212,19.617,51.711C18.671,53.211,18.749,54.677,18.749,54.677L20.789,54.544C20.789,54.544,20.723,53.788,21.346,52.801C21.969,51.814,23.279,50.614,26.492,50.116C27.195,50.007,27.646,50.082,27.935,50.210C28.224,50.338,28.401,50.516,28.564,50.835C28.889,51.473,28.976,52.711,28.809,54.045C28.476,56.711,27.318,59.637,27.318,59.637L29.216,60.398C29.216,60.398,30.456,57.348,30.837,54.298C31.028,52.773,31.052,51.217,30.384,49.907C30.050,49.251,29.499,48.668,28.763,48.342C28.027,48.016,27.156,47.945,26.178,48.096ZZ" style="font: medium sans-serif; stroke-opacity: 1; vector-effect: none; stroke: none; word-spacing: normal; text-decoration: none solid; isolation: auto; baseline-shift: baseline; color: rgb(0, 0, 0); fill-rule: nonzero; text-transform: none; overflow: visible; image-rendering: auto; stroke-dashoffset: 0; text-anchor: start; font-feature-settings: normal; text-indent: 0px; writing-mode: lr-tb; letter-spacing: normal; color-rendering: auto; text-orientation: mixed; opacity: 1; mix-blend-mode: normal; stroke-linejoin: miter; stroke-dasharray: none; white-space: normal; stroke-miterlimit: 4; text-align: start; display: inline; shape-rendering: auto; text-rendering: auto; dominant-baseline: auto; stroke-linecap: butt; visibility: visible; direction: ltr; color-interpolation: srgb; clip-rule: nonzero; color-interpolation-filters: linearrgb; fill: none; stroke-width: 2;"/></g></g></g></g><g id="shape-2b71ce50-24d7-11ec-a597-6bd30b8da739" rx="0" ry="0" style="fill: rgb(0, 0, 0);"><g id="shape-2b71ce51-24d7-11ec-a597-6bd30b8da739"><g class="fills" id="fills-2b71ce51-24d7-11ec-a597-6bd30b8da739"><path rx="0" ry="0" d="m126.476,81.456C126.476,81.456,125.762,85.886,114.378,85.822C103.214,85.759,114.156,74.741,114.156,74.741" style="stroke: none; stroke-linecap: butt; stroke-linejoin: miter; stroke-miterlimit: 4; stroke-dasharray: none; stroke-opacity: 1; fill: rgb(255, 255, 255);"/></g><g id="strokes-2b71ce51-24d7-11ec-a597-6bd30b8da739" class="strokes"><g class="stroke-shape"><path rx="0" ry="0" d="m126.476,81.456C126.476,81.456,125.762,85.886,114.378,85.822C103.214,85.759,114.156,74.741,114.156,74.741" style="stroke: none; stroke-linecap: butt; stroke-linejoin: miter; stroke-miterlimit: 4; stroke-dasharray: none; stroke-opacity: 1; fill: none; stroke-width: 1.99999;"/></g></g></g><g id="shape-2b71ce52-24d7-11ec-a597-6bd30b8da739"><g class="fills" id="fills-2b71ce52-24d7-11ec-a597-6bd30b8da739"><path rx="0" ry="0" d="m113.432,74.021C113.432,74.021,110.622,76.798,109.160,79.811C108.429,81.318,107.935,83.019,108.727,84.536C109.123,85.295,109.845,85.901,110.785,86.277C111.725,86.652,112.892,86.835,114.372,86.844C120.197,86.876,123.438,85.767,125.274,84.506C126.192,83.876,126.748,83.207,127.067,82.668C127.385,82.129,127.484,81.618,127.484,81.618L125.466,81.293C125.466,81.293,125.477,81.338,125.306,81.628C125.135,81.917,124.800,82.350,124.116,82.820C122.750,83.758,119.943,84.831,114.384,84.800C113.073,84.792,112.140,84.618,111.541,84.378C110.943,84.139,110.687,83.873,110.539,83.590C110.243,83.023,110.391,81.959,111.000,80.704C112.218,78.193,114.881,75.460,114.881,75.460Z" style="font: medium sans-serif; stroke-opacity: 1; vector-effect: none; stroke: none; word-spacing: normal; text-decoration: none solid; isolation: auto; baseline-shift: baseline; color: rgb(0, 0, 0); fill-rule: nonzero; text-transform: none; overflow: visible; image-rendering: auto; stroke-dashoffset: 0; text-anchor: start; font-feature-settings: normal; text-indent: 0px; writing-mode: lr-tb; letter-spacing: normal; color-rendering: auto; text-orientation: mixed; opacity: 1; mix-blend-mode: normal; stroke-linejoin: miter; stroke-dasharray: none; white-space: normal; stroke-miterlimit: 4; text-align: start; display: inline; shape-rendering: auto; text-rendering: auto; dominant-baseline: auto; stroke-linecap: butt; visibility: visible; direction: ltr; color-interpolation: srgb; clip-rule: nonzero; color-interpolation-filters: linearrgb; fill: rgb(0, 0, 0); fill-opacity: 1;"/></g><g id="strokes-2b71ce52-24d7-11ec-a597-6bd30b8da739" class="strokes"><g class="stroke-shape"><path rx="0" ry="0" d="m113.432,74.021C113.432,74.021,110.622,76.798,109.160,79.811C108.429,81.318,107.935,83.019,108.727,84.536C109.123,85.295,109.845,85.901,110.785,86.277C111.725,86.652,112.892,86.835,114.372,86.844C120.197,86.876,123.438,85.767,125.274,84.506C126.192,83.876,126.748,83.207,127.067,82.668C127.385,82.129,127.484,81.618,127.484,81.618L125.466,81.293C125.466,81.293,125.477,81.338,125.306,81.628C125.135,81.917,124.800,82.350,124.116,82.820C122.750,83.758,119.943,84.831,114.384,84.800C113.073,84.792,112.140,84.618,111.541,84.378C110.943,84.139,110.687,83.873,110.539,83.590C110.243,83.023,110.391,81.959,111.000,80.704C112.218,78.193,114.881,75.460,114.881,75.460Z" style="font: medium sans-serif; stroke-opacity: 1; vector-effect: none; stroke: none; word-spacing: normal; text-decoration: none solid; isolation: auto; baseline-shift: baseline; color: rgb(0, 0, 0); fill-rule: nonzero; text-transform: none; overflow: visible; image-rendering: auto; stroke-dashoffset: 0; text-anchor: start; font-feature-settings: normal; text-indent: 0px; writing-mode: lr-tb; letter-spacing: normal; color-rendering: auto; text-orientation: mixed; opacity: 1; mix-blend-mode: normal; stroke-linejoin: miter; stroke-dasharray: none; white-space: normal; stroke-miterlimit: 4; text-align: start; display: inline; shape-rendering: auto; text-rendering: auto; dominant-baseline: auto; stroke-linecap: butt; visibility: visible; direction: ltr; color-interpolation: srgb; clip-rule: nonzero; color-interpolation-filters: linearrgb; fill: none; stroke-width: 1.99999;"/></g></g></g></g><g id="shape-2b71ce53-24d7-11ec-a597-6bd30b8da739"><g class="fills" id="fills-2b71ce53-24d7-11ec-a597-6bd30b8da739"><path rx="0" ry="0" d="m76.263,111.007C76.263,111.007,99.923,100.771,111.221,84.547C119.550,72.588,134.990,41.491,112.766,27.764C92.237,15.083,76.070,33.365,76.070,33.365C76.070,33.365,54.245,14.051,37.055,28.729C18.558,44.525,27.580,74.165,49.030,93.432C65.157,107.917,76.263,111.007,76.263,111.007ZZ" style="stroke-dasharray: none; stroke: none; stroke-opacity: 1; stroke-linejoin: miter; stroke-linecap: butt; stroke-miterlimit: 4; fill: rgb(250, 181, 245); fill-opacity: 1;"/></g><g id="strokes-2b71ce53-24d7-11ec-a597-6bd30b8da739" class="strokes"><g class="stroke-shape"><path rx="0" ry="0" d="m76.263,111.007C76.263,111.007,99.923,100.771,111.221,84.547C119.550,72.588,134.990,41.491,112.766,27.764C92.237,15.083,76.070,33.365,76.070,33.365C76.070,33.365,54.245,14.051,37.055,28.729C18.558,44.525,27.580,74.165,49.030,93.432C65.157,107.917,76.263,111.007,76.263,111.007ZZ" style="stroke-dasharray: none; stroke: none; stroke-opacity: 1; stroke-linejoin: miter; stroke-linecap: butt; stroke-miterlimit: 4; fill: none; stroke-width: 2;"/></g></g></g><g id="shape-2b71ce54-24d7-11ec-a597-6bd30b8da739"><g class="fills" id="fills-2b71ce54-24d7-11ec-a597-6bd30b8da739"><path rx="0" ry="0" d="m50.311,22.262C45.653,22.533,40.855,24.141,36.392,27.952C26.841,36.108,24.382,47.945,27.065,60.001C29.748,72.057,37.481,84.431,48.347,94.191C56.470,101.488,63.347,105.929,68.209,108.551C73.072,111.172,75.990,111.992,75.990,111.992L76.337,112.090L76.668,111.946C76.668,111.946,100.494,101.738,112.060,85.131C116.293,79.054,122.287,68.224,124.454,57.013C125.537,51.407,125.662,45.692,124.049,40.445C122.435,35.199,119.051,30.445,113.304,26.894C102.750,20.375,93.121,21.796,86.299,24.878C80.287,27.594,76.856,31.124,76.002,32.034C75.038,31.213,70.409,27.357,63.383,24.591C59.484,23.056,54.968,21.990,50.311,22.262ZZM50.496,24.260C54.766,24.024,58.929,25.034,62.634,26.493C70.046,29.411,75.393,34.130,75.393,34.130L76.157,34.807L76.836,34.042C76.836,34.042,80.746,29.629,87.140,26.741C93.533,23.852,102.254,22.471,112.230,28.633C117.594,31.946,120.613,36.228,122.094,41.046C123.576,45.865,123.487,51.246,122.448,56.625C120.368,67.384,114.480,78.082,110.384,83.963C99.600,99.448,77.214,109.456,76.201,109.904C75.783,109.780,73.487,109.074,69.179,106.752C64.457,104.207,57.718,99.861,49.714,92.672C39.130,83.165,31.627,71.087,29.061,59.558C26.495,48.028,28.774,37.147,37.720,29.507C41.852,25.979,46.227,24.495,50.496,24.260ZZ" style="font: medium sans-serif; stroke-opacity: 1; vector-effect: none; stroke: none; word-spacing: normal; text-decoration: none solid; isolation: auto; baseline-shift: baseline; color: rgb(0, 0, 0); fill-rule: nonzero; text-transform: none; overflow: visible; image-rendering: auto; stroke-dashoffset: 0; text-anchor: start; font-feature-settings: normal; text-indent: 0px; writing-mode: lr-tb; letter-spacing: normal; color-rendering: auto; text-orientation: mixed; opacity: 1; mix-blend-mode: normal; stroke-linejoin: miter; stroke-dasharray: none; white-space: normal; stroke-miterlimit: 4; text-align: start; display: inline; shape-rendering: auto; text-rendering: auto; dominant-baseline: auto; stroke-linecap: butt; visibility: visible; direction: ltr; color-interpolation: srgb; clip-rule: nonzero; color-interpolation-filters: linearrgb; fill: rgb(242, 58, 229); fill-opacity: 1;"/></g><g id="strokes-2b71ce54-24d7-11ec-a597-6bd30b8da739" class="strokes"><g class="stroke-shape"><path rx="0" ry="0" d="m50.311,22.262C45.653,22.533,40.855,24.141,36.392,27.952C26.841,36.108,24.382,47.945,27.065,60.001C29.748,72.057,37.481,84.431,48.347,94.191C56.470,101.488,63.347,105.929,68.209,108.551C73.072,111.172,75.990,111.992,75.990,111.992L76.337,112.090L76.668,111.946C76.668,111.946,100.494,101.738,112.060,85.131C116.293,79.054,122.287,68.224,124.454,57.013C125.537,51.407,125.662,45.692,124.049,40.445C122.435,35.199,119.051,30.445,113.304,26.894C102.750,20.375,93.121,21.796,86.299,24.878C80.287,27.594,76.856,31.124,76.002,32.034C75.038,31.213,70.409,27.357,63.383,24.591C59.484,23.056,54.968,21.990,50.311,22.262ZZM50.496,24.260C54.766,24.024,58.929,25.034,62.634,26.493C70.046,29.411,75.393,34.130,75.393,34.130L76.157,34.807L76.836,34.042C76.836,34.042,80.746,29.629,87.140,26.741C93.533,23.852,102.254,22.471,112.230,28.633C117.594,31.946,120.613,36.228,122.094,41.046C123.576,45.865,123.487,51.246,122.448,56.625C120.368,67.384,114.480,78.082,110.384,83.963C99.600,99.448,77.214,109.456,76.201,109.904C75.783,109.780,73.487,109.074,69.179,106.752C64.457,104.207,57.718,99.861,49.714,92.672C39.130,83.165,31.627,71.087,29.061,59.558C26.495,48.028,28.774,37.147,37.720,29.507C41.852,25.979,46.227,24.495,50.496,24.260ZZ" style="font: medium sans-serif; stroke-opacity: 1; vector-effect: none; stroke: none; word-spacing: normal; text-decoration: none solid; isolation: auto; baseline-shift: baseline; color: rgb(0, 0, 0); fill-rule: nonzero; text-transform: none; overflow: visible; image-rendering: auto; stroke-dashoffset: 0; text-anchor: start; font-feature-settings: normal; text-indent: 0px; writing-mode: lr-tb; letter-spacing: normal; color-rendering: auto; text-orientation: mixed; opacity: 1; mix-blend-mode: normal; stroke-linejoin: miter; stroke-dasharray: none; white-space: normal; stroke-miterlimit: 4; text-align: start; display: inline; shape-rendering: auto; text-rendering: auto; dominant-baseline: auto; stroke-linecap: butt; visibility: visible; direction: ltr; color-interpolation: srgb; clip-rule: nonzero; color-interpolation-filters: linearrgb; fill: none; stroke-width: 2;"/></g></g></g><g id="shape-2b71ce55-24d7-11ec-a597-6bd30b8da739"><g class="fills" id="fills-2b71ce55-24d7-11ec-a597-6bd30b8da739"><path rx="0" ry="0" d="m40.784,0.141L38.881,0.888L40.384,4.712L42.287,3.966ZM44.600,9.407L42.714,10.197L45.855,17.709L47.740,16.920ZM18.268,11.922L16.875,13.417L26.981,22.840L28.374,21.345ZM29.977,22.952L28.656,24.513L30.432,26.014L31.751,24.453ZM5.635,37.737L5.471,39.775L8.887,40.046L9.048,38.010ZM11.356,38.555L11.222,40.593L23.649,41.414L23.783,39.374ZM113.861,91.085L113.028,92.951L125.865,98.686L126.699,96.820ZM104.026,102.598L102.649,104.109L107.294,108.343L108.671,106.832ZM110.859,109.020L109.475,110.525L114.529,115.167L115.911,113.662ZM93.168,112.553L91.383,113.547L96.709,123.108L98.495,122.112ZM99.599,124.184L97.789,125.132L99.292,128.000L101.102,127.052Z" style="font: medium sans-serif; stroke-opacity: 1; vector-effect: none; stroke: none; word-spacing: normal; text-decoration: none solid; isolation: auto; baseline-shift: baseline; color: rgb(0, 0, 0); fill-rule: nonzero; text-transform: none; overflow: visible; image-rendering: auto; stroke-dashoffset: 0; text-anchor: start; font-feature-settings: normal; text-indent: 0px; writing-mode: lr-tb; letter-spacing: normal; color-rendering: auto; text-orientation: mixed; opacity: 1; mix-blend-mode: normal; stroke-linejoin: miter; stroke-dasharray: none; white-space: normal; stroke-miterlimit: 4; text-align: start; display: inline; shape-rendering: auto; text-rendering: auto; dominant-baseline: auto; stroke-linecap: butt; visibility: visible; direction: ltr; color-interpolation: srgb; clip-rule: nonzero; color-interpolation-filters: linearrgb; fill: rgb(177, 247, 228); fill-opacity: 1;"/></g><g id="strokes-2b71ce55-24d7-11ec-a597-6bd30b8da739" class="strokes"><g class="stroke-shape"><path rx="0" ry="0" d="m40.784,0.141L38.881,0.888L40.384,4.712L42.287,3.966ZM44.600,9.407L42.714,10.197L45.855,17.709L47.740,16.920ZM18.268,11.922L16.875,13.417L26.981,22.840L28.374,21.345ZM29.977,22.952L28.656,24.513L30.432,26.014L31.751,24.453ZM5.635,37.737L5.471,39.775L8.887,40.046L9.048,38.010ZM11.356,38.555L11.222,40.593L23.649,41.414L23.783,39.374ZM113.861,91.085L113.028,92.951L125.865,98.686L126.699,96.820ZM104.026,102.598L102.649,104.109L107.294,108.343L108.671,106.832ZM110.859,109.020L109.475,110.525L114.529,115.167L115.911,113.662ZM93.168,112.553L91.383,113.547L96.709,123.108L98.495,122.112ZM99.599,124.184L97.789,125.132L99.292,128.000L101.102,127.052Z" style="font: medium sans-serif; stroke-opacity: 1; vector-effect: none; stroke: none; word-spacing: normal; text-decoration: none solid; isolation: auto; baseline-shift: baseline; color: rgb(0, 0, 0); fill-rule: nonzero; text-transform: none; overflow: visible; image-rendering: auto; stroke-dashoffset: 0; text-anchor: start; font-feature-settings: normal; text-indent: 0px; writing-mode: lr-tb; letter-spacing: normal; color-rendering: auto; text-orientation: mixed; opacity: 1; mix-blend-mode: normal; stroke-linejoin: miter; stroke-dasharray: none; white-space: normal; stroke-miterlimit: 4; text-align: start; display: inline; shape-rendering: auto; text-rendering: auto; dominant-baseline: auto; stroke-linecap: butt; visibility: visible; direction: ltr; color-interpolation: srgb; clip-rule: nonzero; color-interpolation-filters: linearrgb; fill: none; stroke-width: 2;"/></g></g></g><g id="shape-2b71ce56-24d7-11ec-a597-6bd30b8da739" rx="0" ry="0" style="fill: rgb(0, 0, 0);"><g id="shape-2b71ce57-24d7-11ec-a597-6bd30b8da739"><g class="fills" id="fills-2b71ce57-24d7-11ec-a597-6bd30b8da739"><path rx="0" ry="0" d="m31.663,35.292C34.925,35.292,33.503,39.307,36.932,39.307C40.361,39.307,39.441,35.292,41.950,35.292" style="fill: none; stroke-miterlimit: 4; stroke-dasharray: none; stroke-opacity: 1;"/></g><g id="strokes-2b71ce57-24d7-11ec-a597-6bd30b8da739" class="strokes"><g class="stroke-shape"><path rx="0" ry="0" d="m31.663,35.292C34.925,35.292,33.503,39.307,36.932,39.307C40.361,39.307,39.441,35.292,41.950,35.292" style="fill: none; stroke-miterlimit: 4; stroke-dasharray: none; stroke-opacity: 1; stroke-width: 0.999998; stroke: rgb(242, 58, 229);"/></g></g></g><g id="shape-2b71ce58-24d7-11ec-a597-6bd30b8da739"><g class="fills" id="fills-2b71ce58-24d7-11ec-a597-6bd30b8da739"><path rx="0" ry="0" d="m28.014,48.184C31.693,48.184,29.937,44.169,33.199,44.169C36.460,44.169,35.039,48.184,38.467,48.184C41.896,48.184,40.976,44.169,43.485,44.169" style="fill: none; stroke-miterlimit: 4; stroke-dasharray: none; stroke-opacity: 1;"/></g><g id="strokes-2b71ce58-24d7-11ec-a597-6bd30b8da739" class="strokes"><g class="stroke-shape"><path rx="0" ry="0" d="m28.014,48.184C31.693,48.184,29.937,44.169,33.199,44.169C36.460,44.169,35.039,48.184,38.467,48.184C41.896,48.184,40.976,44.169,43.485,44.169" style="fill: none; stroke-miterlimit: 4; stroke-dasharray: none; stroke-opacity: 1; stroke-width: 0.999998; stroke: rgb(242, 58, 229);"/></g></g></g><g id="shape-2b71ce59-24d7-11ec-a597-6bd30b8da739"><g class="fills" id="fills-2b71ce59-24d7-11ec-a597-6bd30b8da739"><path rx="0" ry="0" d="m27.992,52.842C31.254,52.842,29.581,56.856,33.261,56.856C36.940,56.856,35.184,52.842,38.446,52.842C41.707,52.842,40.286,56.856,43.714,56.856C47.143,56.856,46.223,52.842,48.732,52.842" style="fill: none; stroke-miterlimit: 4; stroke-dasharray: none; stroke-opacity: 1;"/></g><g id="strokes-2b71ce59-24d7-11ec-a597-6bd30b8da739" class="strokes"><g class="stroke-shape"><path rx="0" ry="0" d="m27.992,52.842C31.254,52.842,29.581,56.856,33.261,56.856C36.940,56.856,35.184,52.842,38.446,52.842C41.707,52.842,40.286,56.856,43.714,56.856C47.143,56.856,46.223,52.842,48.732,52.842" style="fill: none; stroke-miterlimit: 4; stroke-dasharray: none; stroke-opacity: 1; stroke-width: 0.999998; stroke: rgb(242, 58, 229);"/></g></g></g><g id="shape-2b71ce5a-24d7-11ec-a597-6bd30b8da739"><g class="fills" id="fills-2b71ce5a-24d7-11ec-a597-6bd30b8da739"><path rx="0" ry="0" d="m48.476,92.660C51.737,92.660,50.065,96.674,53.744,96.674C57.424,96.674,55.668,92.660,58.929,92.660C62.191,92.660,60.769,96.674,64.198,96.674C67.627,96.674,66.707,92.660,69.216,92.660" style="fill: none; stroke-miterlimit: 4; stroke-dasharray: none; stroke-opacity: 1;"/></g><g id="strokes-2b71ce5a-24d7-11ec-a597-6bd30b8da739" class="strokes"><g class="stroke-shape"><path rx="0" ry="0" d="m48.476,92.660C51.737,92.660,50.065,96.674,53.744,96.674C57.424,96.674,55.668,92.660,58.929,92.660C62.191,92.660,60.769,96.674,64.198,96.674C67.627,96.674,66.707,92.660,69.216,92.660" style="fill: none; stroke-miterlimit: 4; stroke-dasharray: none; stroke-opacity: 1; stroke-width: 0.999998; stroke: rgb(242, 58, 229);"/></g></g></g><g id="shape-2b71ce5b-24d7-11ec-a597-6bd30b8da739"><g class="fills" id="fills-2b71ce5b-24d7-11ec-a597-6bd30b8da739"><path rx="0" ry="0" d="m61.543,103.886C65.223,103.886,63.466,99.871,66.728,99.871C69.989,99.871,68.568,103.886,71.997,103.886C75.425,103.886,74.505,99.871,77.014,99.871" style="fill: none; stroke-miterlimit: 4; stroke-dasharray: none; stroke-opacity: 1;"/></g><g id="strokes-2b71ce5b-24d7-11ec-a597-6bd30b8da739" class="strokes"><g class="stroke-shape"><path rx="0" ry="0" d="m61.543,103.886C65.223,103.886,63.466,99.871,66.728,99.871C69.989,99.871,68.568,103.886,71.997,103.886C75.425,103.886,74.505,99.871,77.014,99.871" style="fill: none; stroke-miterlimit: 4; stroke-dasharray: none; stroke-opacity: 1; stroke-width: 0.999998; stroke: rgb(242, 58, 229);"/></g></g></g></g><g id="shape-2b71ce5c-24d7-11ec-a597-6bd30b8da739" rx="0" ry="0" style="fill: rgb(0, 0, 0);"><g id="shape-2b71ce5d-24d7-11ec-a597-6bd30b8da739"><g class="fills" id="fills-2b71ce5d-24d7-11ec-a597-6bd30b8da739"><path rx="0" ry="0" d="m19.769,55.286L19.672,82.712C19.672,82.712,30.392,91.404,45.940,90.631C61.487,89.858,81.284,76.435,100.599,74.407C119.913,72.379,126.673,82.133,126.673,82.133L127.252,54.224C127.252,54.224,122.713,46.691,101.854,46.209C80.995,45.726,64.867,62.143,46.422,62.432C27.978,62.722,19.769,55.286,19.769,55.286ZZ" style="stroke: none; stroke-linecap: butt; stroke-linejoin: miter; stroke-miterlimit: 4; stroke-dasharray: none; stroke-opacity: 1; fill: rgb(255, 255, 255);"/></g><g id="strokes-2b71ce5d-24d7-11ec-a597-6bd30b8da739" class="strokes"><g class="stroke-shape"><path rx="0" ry="0" d="m19.769,55.286L19.672,82.712C19.672,82.712,30.392,91.404,45.940,90.631C61.487,89.858,81.284,76.435,100.599,74.407C119.913,72.379,126.673,82.133,126.673,82.133L127.252,54.224C127.252,54.224,122.713,46.691,101.854,46.209C80.995,45.726,64.867,62.143,46.422,62.432C27.978,62.722,19.769,55.286,19.769,55.286ZZ" style="stroke: none; stroke-linecap: butt; stroke-linejoin: miter; stroke-miterlimit: 4; stroke-dasharray: none; stroke-opacity: 1; fill: none; stroke-width: 2;"/></g></g></g><g id="shape-2b71ce5e-24d7-11ec-a597-6bd30b8da739"><g class="fills" id="fills-2b71ce5e-24d7-11ec-a597-6bd30b8da739"><path rx="0" ry="0" d="m101.878,45.186C91.175,44.938,81.766,49.014,72.808,53.100C63.850,57.187,55.330,61.270,46.406,61.410C37.324,61.553,30.809,59.796,26.574,58.025C22.825,56.457,21.181,55.110,20.793,54.779L20.795,54.264L19.769,54.264L17.118,54.264L18.745,55.739L18.649,83.199L19.029,83.506C19.029,83.506,30.041,92.445,45.991,91.652C54.037,91.252,62.930,87.644,72.235,83.939C81.541,80.234,91.245,76.417,100.705,75.424C110.180,74.429,116.469,76.321,120.398,78.412C124.326,80.504,125.833,82.716,125.833,82.716L127.630,85.307L128.280,53.949L128.127,53.697C128.127,53.697,127.742,53.078,126.921,52.298C126.100,51.518,124.800,50.504,122.847,49.490C118.940,47.461,112.429,45.430,101.878,45.186ZZM101.831,47.230C112.139,47.469,118.327,49.446,121.905,51.304C123.693,52.233,124.832,53.133,125.514,53.781C126.074,54.313,126.161,54.483,126.222,54.577L125.701,79.692C124.698,78.773,123.343,77.664,121.358,76.608C117.078,74.329,110.330,72.357,100.491,73.390C90.637,74.425,80.787,78.334,71.479,82.041C62.170,85.748,53.392,89.237,45.889,89.610C31.518,90.324,21.694,82.962,20.697,82.187L20.785,57.290C21.900,58.021,23.559,58.980,25.785,59.911C30.266,61.785,37.076,63.601,46.438,63.454C55.959,63.304,64.725,59.035,73.656,54.961C82.588,50.887,91.675,46.995,101.831,47.230ZZ" style="font: medium sans-serif; stroke-opacity: 1; vector-effect: none; stroke: none; word-spacing: normal; text-decoration: none solid; isolation: auto; baseline-shift: baseline; color: rgb(0, 0, 0); fill-rule: nonzero; text-transform: none; overflow: visible; image-rendering: auto; stroke-dashoffset: 0; text-anchor: start; font-feature-settings: normal; text-indent: 0px; writing-mode: lr-tb; letter-spacing: normal; color-rendering: auto; text-orientation: mixed; opacity: 1; mix-blend-mode: normal; stroke-linejoin: miter; stroke-dasharray: none; white-space: normal; stroke-miterlimit: 4; text-align: start; display: inline; shape-rendering: auto; text-rendering: auto; dominant-baseline: auto; stroke-linecap: butt; visibility: visible; direction: ltr; color-interpolation: srgb; clip-rule: nonzero; color-interpolation-filters: linearrgb; fill: rgb(0, 0, 0); fill-opacity: 1;"/></g><g id="strokes-2b71ce5e-24d7-11ec-a597-6bd30b8da739" class="strokes"><g class="stroke-shape"><path rx="0" ry="0" d="m101.878,45.186C91.175,44.938,81.766,49.014,72.808,53.100C63.850,57.187,55.330,61.270,46.406,61.410C37.324,61.553,30.809,59.796,26.574,58.025C22.825,56.457,21.181,55.110,20.793,54.779L20.795,54.264L19.769,54.264L17.118,54.264L18.745,55.739L18.649,83.199L19.029,83.506C19.029,83.506,30.041,92.445,45.991,91.652C54.037,91.252,62.930,87.644,72.235,83.939C81.541,80.234,91.245,76.417,100.705,75.424C110.180,74.429,116.469,76.321,120.398,78.412C124.326,80.504,125.833,82.716,125.833,82.716L127.630,85.307L128.280,53.949L128.127,53.697C128.127,53.697,127.742,53.078,126.921,52.298C126.100,51.518,124.800,50.504,122.847,49.490C118.940,47.461,112.429,45.430,101.878,45.186ZZM101.831,47.230C112.139,47.469,118.327,49.446,121.905,51.304C123.693,52.233,124.832,53.133,125.514,53.781C126.074,54.313,126.161,54.483,126.222,54.577L125.701,79.692C124.698,78.773,123.343,77.664,121.358,76.608C117.078,74.329,110.330,72.357,100.491,73.390C90.637,74.425,80.787,78.334,71.479,82.041C62.170,85.748,53.392,89.237,45.889,89.610C31.518,90.324,21.694,82.962,20.697,82.187L20.785,57.290C21.900,58.021,23.559,58.980,25.785,59.911C30.266,61.785,37.076,63.601,46.438,63.454C55.959,63.304,64.725,59.035,73.656,54.961C82.588,50.887,91.675,46.995,101.831,47.230ZZ" style="font: medium sans-serif; stroke-opacity: 1; vector-effect: none; stroke: none; word-spacing: normal; text-decoration: none solid; isolation: auto; baseline-shift: baseline; color: rgb(0, 0, 0); fill-rule: nonzero; text-transform: none; overflow: visible; image-rendering: auto; stroke-dashoffset: 0; text-anchor: start; font-feature-settings: normal; text-indent: 0px; writing-mode: lr-tb; letter-spacing: normal; color-rendering: auto; text-orientation: mixed; opacity: 1; mix-blend-mode: normal; stroke-linejoin: miter; stroke-dasharray: none; white-space: normal; stroke-miterlimit: 4; text-align: start; display: inline; shape-rendering: auto; text-rendering: auto; dominant-baseline: auto; stroke-linecap: butt; visibility: visible; direction: ltr; color-interpolation: srgb; clip-rule: nonzero; color-interpolation-filters: linearrgb; fill: none; stroke-width: 2;"/></g></g></g></g><g id="shape-2b71ce5f-24d7-11ec-a597-6bd30b8da739" rx="0" ry="0" style="fill: rgb(0, 0, 0);"><g id="shape-2b71f560-24d7-11ec-a597-6bd30b8da739"><g class="fills" id="fills-2b71f560-24d7-11ec-a597-6bd30b8da739"><path rx="0" ry="0" d="M106.232,44.368C101.406,44.368,97.220,45.769,94.218,48.697L94.216,48.701L94.214,48.703C91.219,51.639,89.768,55.794,89.768,60.576C89.768,65.400,90.947,69.496,93.585,72.452L93.591,72.458L93.595,72.462C96.256,75.412,100.187,76.838,104.703,76.838C106.402,76.838,108.071,76.713,109.705,76.463C111.388,76.219,113.137,75.796,114.961,75.201L116.725,74.626L116.725,56.418L113.637,56.418L117.460,47.212L115.143,46.215C112.300,44.991,109.303,44.368,106.232,44.368ZL106.232,44.368ZZM101.522,50.181C100.375,50.729,99.292,51.411,98.431,52.372C96.486,54.543,95.575,57.467,95.575,60.686C95.575,63.921,96.221,66.724,97.872,68.869L97.878,68.879L97.887,68.887C98.654,69.866,99.672,70.572,100.779,71.113C99.411,70.666,98.272,70.009,97.398,69.041C95.816,67.264,94.883,64.581,94.883,60.576C94.883,56.769,95.884,54.227,97.789,52.358L97.791,52.356C97.792,52.355,97.792,52.355,97.793,52.354C98.802,51.371,100.045,50.664,101.522,50.181ZZM56.863,52.396L67.627,84.121L77.443,84.121L88.227,52.396L77.091,52.396L76.525,54.178L72.531,66.722L68.001,52.396L56.863,52.396ZZM106.196,54.176C107.901,54.176,109.500,54.558,111.112,55.364L113.222,56.418L101.875,56.418C102.010,56.222,102.081,55.959,102.238,55.783C103.237,54.669,104.329,54.176,106.196,54.176ZZM63.997,57.510L64.255,57.510L67.772,68.638L63.997,57.510ZZM80.830,57.510L81.088,57.510L77.012,69.502L80.830,57.510ZZM101.054,58.055L101.054,58.975L101.054,63.855C100.828,63.014,100.689,61.973,100.689,60.686C100.689,59.637,100.836,58.803,101.054,58.055ZZM46.464,60.562C43.241,60.562,40.359,61.361,38.193,63.183L38.189,63.185L38.186,63.188C36.036,65.010,34.897,67.760,34.897,70.690C34.897,72.271,35.213,73.797,35.913,75.145C36.546,76.365,37.410,77.451,38.456,78.357C39.560,79.313,40.949,80.116,42.700,80.940C44.386,81.742,45.542,82.375,45.799,82.548L45.810,82.556L45.821,82.562C46.171,82.793,46.322,82.963,46.387,83.046C46.315,83.087,45.979,83.259,45.117,83.259C44.358,83.259,43.431,83.135,42.351,82.852C41.315,82.578,39.902,82.062,38.187,81.297L34.588,79.692L34.588,90.469L36.023,91.171C38.600,92.431,41.520,93.032,44.680,93.032C48.142,93.032,51.180,92.245,53.482,90.399L53.485,90.397C55.782,88.564,57.047,85.739,57.047,82.722C57.047,80.535,56.418,78.437,55.129,76.772C53.779,75.017,51.771,73.722,49.095,72.443C47.263,71.568,46.040,70.900,45.856,70.780C45.622,70.606,45.526,70.497,45.516,70.486C45.495,70.504,45.620,70.371,46.283,70.371C46.962,70.371,47.660,70.457,48.392,70.640L48.397,70.642L48.401,70.642C49.141,70.825,50.226,71.193,51.573,71.746L53.930,72.712L57.690,63.650L55.381,62.648C53.906,62.008,52.468,61.503,51.061,61.137C49.588,60.751,48.050,60.562,46.464,60.562ZL46.464,60.562ZZM111.210,61.530L111.611,61.530L111.611,70.765C111.475,70.800,111.344,70.829,111.210,70.861L111.210,61.530ZZM102.517,66.226L106.096,66.226L106.096,66.923C105.756,66.946,105.400,67.029,105.066,67.029C103.804,67.029,103.109,66.716,102.517,66.226ZZM42.010,66.818C41.028,67.769,40.412,69.174,40.412,70.508C40.412,71.401,40.642,72.350,41.135,73.155L41.145,73.170L41.155,73.187C41.631,73.938,42.247,74.495,42.932,74.979L42.960,75.001L42.990,75.019C43.842,75.587,44.979,76.144,46.892,77.057C49.186,78.154,50.585,79.248,51.079,79.891L51.084,79.898L51.088,79.901C51.641,80.615,51.934,81.440,51.934,82.722C51.934,84.509,51.466,85.467,50.295,86.401L50.291,86.405L50.287,86.407C50.197,86.479,50.035,86.512,49.938,86.580C50.882,85.606,51.515,84.286,51.515,82.996C51.515,82.003,51.189,80.947,50.593,80.121C50.063,79.377,49.394,78.798,48.642,78.301C47.786,77.725,46.653,77.158,44.886,76.317L44.882,76.315L44.876,76.313C43.375,75.607,42.325,74.942,41.804,74.490C41.223,73.988,40.790,73.437,40.453,72.788C40.182,72.267,40.011,71.609,40.011,70.690C40.011,68.913,40.464,67.964,41.490,67.093C41.627,66.978,41.855,66.921,42.010,66.818ZZM74.475,76.963L73.780,79.007L71.291,79.007L70.616,77.021L74.475,76.963ZZM46.400,82.995C46.400,82.996,46.400,82.996,46.400,82.995ZC46.400,82.998,46.400,82.995,46.400,82.995ZL46.400,82.995ZZM49.454,87.179L49.454,87.179ZC49.439,87.190,49.439,87.186,49.454,87.179ZC49.445,87.182,49.450,87.182,49.454,87.179ZZ" style="font: 36.4749px / 1.25 sans-serif; stroke-opacity: 1; vector-effect: none; stroke: none; word-spacing: 0px; text-decoration: none solid; isolation: auto; baseline-shift: baseline; color: rgb(0, 0, 0); fill-rule: nonzero; text-transform: none; overflow: visible; paint-order: markers stroke; image-rendering: auto; stroke-dashoffset: 0; text-anchor: start; font-feature-settings: normal; text-indent: 0px; writing-mode: lr-tb; letter-spacing: 0px; color-rendering: auto; text-orientation: mixed; opacity: 1; mix-blend-mode: normal; stroke-linejoin: miter; stroke-dasharray: none; white-space: normal; stroke-miterlimit: 4; text-align: start; display: inline; shape-rendering: auto; text-rendering: auto; dominant-baseline: auto; stroke-linecap: butt; visibility: visible; direction: ltr; color-interpolation: srgb; clip-rule: nonzero; color-interpolation-filters: linearrgb; fill: rgb(0, 0, 0); fill-opacity: 1;"/></g><g id="strokes-2b71f560-24d7-11ec-a597-6bd30b8da739" class="strokes"><g class="stroke-shape"><path rx="0" ry="0" d="M106.232,44.368C101.406,44.368,97.220,45.769,94.218,48.697L94.216,48.701L94.214,48.703C91.219,51.639,89.768,55.794,89.768,60.576C89.768,65.400,90.947,69.496,93.585,72.452L93.591,72.458L93.595,72.462C96.256,75.412,100.187,76.838,104.703,76.838C106.402,76.838,108.071,76.713,109.705,76.463C111.388,76.219,113.137,75.796,114.961,75.201L116.725,74.626L116.725,56.418L113.637,56.418L117.460,47.212L115.143,46.215C112.300,44.991,109.303,44.368,106.232,44.368ZL106.232,44.368ZZM101.522,50.181C100.375,50.729,99.292,51.411,98.431,52.372C96.486,54.543,95.575,57.467,95.575,60.686C95.575,63.921,96.221,66.724,97.872,68.869L97.878,68.879L97.887,68.887C98.654,69.866,99.672,70.572,100.779,71.113C99.411,70.666,98.272,70.009,97.398,69.041C95.816,67.264,94.883,64.581,94.883,60.576C94.883,56.769,95.884,54.227,97.789,52.358L97.791,52.356C97.792,52.355,97.792,52.355,97.793,52.354C98.802,51.371,100.045,50.664,101.522,50.181ZZM56.863,52.396L67.627,84.121L77.443,84.121L88.227,52.396L77.091,52.396L76.525,54.178L72.531,66.722L68.001,52.396L56.863,52.396ZZM106.196,54.176C107.901,54.176,109.500,54.558,111.112,55.364L113.222,56.418L101.875,56.418C102.010,56.222,102.081,55.959,102.238,55.783C103.237,54.669,104.329,54.176,106.196,54.176ZZM63.997,57.510L64.255,57.510L67.772,68.638L63.997,57.510ZZM80.830,57.510L81.088,57.510L77.012,69.502L80.830,57.510ZZM101.054,58.055L101.054,58.975L101.054,63.855C100.828,63.014,100.689,61.973,100.689,60.686C100.689,59.637,100.836,58.803,101.054,58.055ZZM46.464,60.562C43.241,60.562,40.359,61.361,38.193,63.183L38.189,63.185L38.186,63.188C36.036,65.010,34.897,67.760,34.897,70.690C34.897,72.271,35.213,73.797,35.913,75.145C36.546,76.365,37.410,77.451,38.456,78.357C39.560,79.313,40.949,80.116,42.700,80.940C44.386,81.742,45.542,82.375,45.799,82.548L45.810,82.556L45.821,82.562C46.171,82.793,46.322,82.963,46.387,83.046C46.315,83.087,45.979,83.259,45.117,83.259C44.358,83.259,43.431,83.135,42.351,82.852C41.315,82.578,39.902,82.062,38.187,81.297L34.588,79.692L34.588,90.469L36.023,91.171C38.600,92.431,41.520,93.032,44.680,93.032C48.142,93.032,51.180,92.245,53.482,90.399L53.485,90.397C55.782,88.564,57.047,85.739,57.047,82.722C57.047,80.535,56.418,78.437,55.129,76.772C53.779,75.017,51.771,73.722,49.095,72.443C47.263,71.568,46.040,70.900,45.856,70.780C45.622,70.606,45.526,70.497,45.516,70.486C45.495,70.504,45.620,70.371,46.283,70.371C46.962,70.371,47.660,70.457,48.392,70.640L48.397,70.642L48.401,70.642C49.141,70.825,50.226,71.193,51.573,71.746L53.930,72.712L57.690,63.650L55.381,62.648C53.906,62.008,52.468,61.503,51.061,61.137C49.588,60.751,48.050,60.562,46.464,60.562ZL46.464,60.562ZZM111.210,61.530L111.611,61.530L111.611,70.765C111.475,70.800,111.344,70.829,111.210,70.861L111.210,61.530ZZM102.517,66.226L106.096,66.226L106.096,66.923C105.756,66.946,105.400,67.029,105.066,67.029C103.804,67.029,103.109,66.716,102.517,66.226ZZM42.010,66.818C41.028,67.769,40.412,69.174,40.412,70.508C40.412,71.401,40.642,72.350,41.135,73.155L41.145,73.170L41.155,73.187C41.631,73.938,42.247,74.495,42.932,74.979L42.960,75.001L42.990,75.019C43.842,75.587,44.979,76.144,46.892,77.057C49.186,78.154,50.585,79.248,51.079,79.891L51.084,79.898L51.088,79.901C51.641,80.615,51.934,81.440,51.934,82.722C51.934,84.509,51.466,85.467,50.295,86.401L50.291,86.405L50.287,86.407C50.197,86.479,50.035,86.512,49.938,86.580C50.882,85.606,51.515,84.286,51.515,82.996C51.515,82.003,51.189,80.947,50.593,80.121C50.063,79.377,49.394,78.798,48.642,78.301C47.786,77.725,46.653,77.158,44.886,76.317L44.882,76.315L44.876,76.313C43.375,75.607,42.325,74.942,41.804,74.490C41.223,73.988,40.790,73.437,40.453,72.788C40.182,72.267,40.011,71.609,40.011,70.690C40.011,68.913,40.464,67.964,41.490,67.093C41.627,66.978,41.855,66.921,42.010,66.818ZZM74.475,76.963L73.780,79.007L71.291,79.007L70.616,77.021L74.475,76.963ZZM46.400,82.995C46.400,82.996,46.400,82.996,46.400,82.995ZC46.400,82.998,46.400,82.995,46.400,82.995ZL46.400,82.995ZZM49.454,87.179L49.454,87.179ZC49.439,87.190,49.439,87.186,49.454,87.179ZC49.445,87.182,49.450,87.182,49.454,87.179ZZ" style="font: 36.4749px / 1.25 sans-serif; stroke-opacity: 1; vector-effect: none; stroke: none; word-spacing: 0px; text-decoration: none solid; isolation: auto; baseline-shift: baseline; color: rgb(0, 0, 0); fill-rule: nonzero; text-transform: none; overflow: visible; paint-order: markers stroke; image-rendering: auto; stroke-dashoffset: 0; text-anchor: start; font-feature-settings: normal; text-indent: 0px; writing-mode: lr-tb; letter-spacing: 0px; color-rendering: auto; text-orientation: mixed; opacity: 1; mix-blend-mode: normal; stroke-linejoin: miter; stroke-dasharray: none; white-space: normal; stroke-miterlimit: 4; text-align: start; display: inline; shape-rendering: auto; text-rendering: auto; dominant-baseline: auto; stroke-linecap: butt; visibility: visible; direction: ltr; color-interpolation: srgb; clip-rule: nonzero; color-interpolation-filters: linearrgb; fill: none; stroke-width: 18.9108;"/></g></g></g><g id="shape-2b71f561-24d7-11ec-a597-6bd30b8da739"><g class="fills" id="fills-2b71f561-24d7-11ec-a597-6bd30b8da739"><path rx="0" ry="0" d="M106.232,46.924C101.876,46.924,98.466,48.126,96.002,50.528C93.551,52.931,92.326,56.280,92.326,60.576C92.326,64.993,93.381,68.384,95.493,70.750C97.616,73.104,100.686,74.281,104.703,74.281C106.280,74.281,107.821,74.166,109.326,73.935C110.843,73.717,112.457,73.329,114.168,72.771L114.168,58.974L103.611,58.974L103.611,63.670L108.652,63.670L108.652,69.221C107.439,69.464,106.244,69.585,105.067,69.585C102.810,69.585,101.087,68.827,99.898,67.310C98.721,65.781,98.132,63.573,98.132,60.685C98.132,57.918,98.866,55.716,100.335,54.078C101.803,52.440,103.757,51.620,106.196,51.620C108.295,51.620,110.315,52.106,112.256,53.076L114.131,48.563C111.595,47.471,108.962,46.924,106.232,46.924ZZM60.431,54.953L69.459,81.563L75.611,81.563L84.657,54.953L78.960,54.953L73.919,70.788C73.142,73.579,72.687,75.533,72.553,76.649C72.481,76.164,72.293,75.302,71.989,74.065C71.698,72.815,71.413,71.722,71.134,70.788L66.128,54.953L60.431,54.953ZZM46.464,63.118C43.649,63.118,41.441,63.792,39.839,65.139C38.249,66.486,37.454,68.336,37.454,70.690C37.454,71.940,37.697,73.032,38.182,73.966C38.668,74.901,39.317,75.720,40.130,76.424C40.943,77.127,42.162,77.861,43.788,78.626C45.523,79.451,46.670,80.052,47.228,80.428C47.799,80.804,48.229,81.198,48.521,81.611C48.812,82.011,48.957,82.472,48.957,82.994C48.957,83.928,48.624,84.632,47.957,85.105C47.301,85.579,46.355,85.815,45.117,85.815C44.086,85.815,42.945,85.652,41.695,85.324C40.458,84.996,38.941,84.432,37.145,83.631L37.145,88.873C39.329,89.941,41.841,90.475,44.680,90.475C47.762,90.475,50.165,89.783,51.888,88.400C53.623,87.017,54.491,85.124,54.491,82.721C54.491,80.986,54.030,79.524,53.107,78.335C52.185,77.134,50.481,75.938,47.993,74.749C46.112,73.851,44.917,73.232,44.407,72.893C43.910,72.541,43.546,72.182,43.315,71.818C43.084,71.442,42.969,71.006,42.969,70.508C42.969,69.707,43.254,69.058,43.825,68.560C44.395,68.063,45.214,67.814,46.282,67.814C47.180,67.814,48.090,67.930,49.012,68.160C49.947,68.391,51.124,68.797,52.543,69.380L54.363,64.993C52.992,64.398,51.675,63.937,50.413,63.610C49.164,63.282,47.848,63.118,46.464,63.118ZZ" style="stroke: none; word-spacing: 0px; paint-order: markers stroke; font-family: sans-serif; letter-spacing: 0px; font-style: normal; font-weight: normal; stroke-dasharray: none; stroke-miterlimit: 4; line-height: 1.25; font-size: 36.4749px; fill: rgb(255, 255, 255); fill-opacity: 1;"/></g><g id="strokes-2b71f561-24d7-11ec-a597-6bd30b8da739" class="strokes"><g class="stroke-shape"><path rx="0" ry="0" d="M106.232,46.924C101.876,46.924,98.466,48.126,96.002,50.528C93.551,52.931,92.326,56.280,92.326,60.576C92.326,64.993,93.381,68.384,95.493,70.750C97.616,73.104,100.686,74.281,104.703,74.281C106.280,74.281,107.821,74.166,109.326,73.935C110.843,73.717,112.457,73.329,114.168,72.771L114.168,58.974L103.611,58.974L103.611,63.670L108.652,63.670L108.652,69.221C107.439,69.464,106.244,69.585,105.067,69.585C102.810,69.585,101.087,68.827,99.898,67.310C98.721,65.781,98.132,63.573,98.132,60.685C98.132,57.918,98.866,55.716,100.335,54.078C101.803,52.440,103.757,51.620,106.196,51.620C108.295,51.620,110.315,52.106,112.256,53.076L114.131,48.563C111.595,47.471,108.962,46.924,106.232,46.924ZZM60.431,54.953L69.459,81.563L75.611,81.563L84.657,54.953L78.960,54.953L73.919,70.788C73.142,73.579,72.687,75.533,72.553,76.649C72.481,76.164,72.293,75.302,71.989,74.065C71.698,72.815,71.413,71.722,71.134,70.788L66.128,54.953L60.431,54.953ZZM46.464,63.118C43.649,63.118,41.441,63.792,39.839,65.139C38.249,66.486,37.454,68.336,37.454,70.690C37.454,71.940,37.697,73.032,38.182,73.966C38.668,74.901,39.317,75.720,40.130,76.424C40.943,77.127,42.162,77.861,43.788,78.626C45.523,79.451,46.670,80.052,47.228,80.428C47.799,80.804,48.229,81.198,48.521,81.611C48.812,82.011,48.957,82.472,48.957,82.994C48.957,83.928,48.624,84.632,47.957,85.105C47.301,85.579,46.355,85.815,45.117,85.815C44.086,85.815,42.945,85.652,41.695,85.324C40.458,84.996,38.941,84.432,37.145,83.631L37.145,88.873C39.329,89.941,41.841,90.475,44.680,90.475C47.762,90.475,50.165,89.783,51.888,88.400C53.623,87.017,54.491,85.124,54.491,82.721C54.491,80.986,54.030,79.524,53.107,78.335C52.185,77.134,50.481,75.938,47.993,74.749C46.112,73.851,44.917,73.232,44.407,72.893C43.910,72.541,43.546,72.182,43.315,71.818C43.084,71.442,42.969,71.006,42.969,70.508C42.969,69.707,43.254,69.058,43.825,68.560C44.395,68.063,45.214,67.814,46.282,67.814C47.180,67.814,48.090,67.930,49.012,68.160C49.947,68.391,51.124,68.797,52.543,69.380L54.363,64.993C52.992,64.398,51.675,63.937,50.413,63.610C49.164,63.282,47.848,63.118,46.464,63.118ZZ" style="stroke: none; word-spacing: 0px; paint-order: markers stroke; font-family: sans-serif; letter-spacing: 0px; font-style: normal; font-weight: normal; stroke-dasharray: none; stroke-miterlimit: 4; line-height: 1.25; font-size: 36.4749px; fill: none; stroke-width: 18.9108;"/></g></g></g></g></g></g></svg>