<svg xmlns:xlink="http://www.w3.org/1999/xlink" width="103.195" xmlns="http://www.w3.org/2000/svg" height="96.546" id="screenshot-2b7291a1-24d7-11ec-a597-6bd30b8da739" viewBox="-1.351 -0.645 103.195 96.546" style="-webkit-print-color-adjust: exact;" fill="none" version="1.1"><g id="shape-2b7291a1-24d7-11ec-a597-6bd30b8da739" width="102.73067mm" version="1.1" height="95.979378mm" rx="0" ry="0" style="fill: rgb(0, 0, 0);"><g id="shape-2b7291a2-24d7-11ec-a597-6bd30b8da739" rx="0" ry="0" style="fill: rgb(0, 0, 0);"><g id="shape-2b7291a3-24d7-11ec-a597-6bd30b8da739" rx="0" ry="0" style="fill: rgb(0, 0, 0);"><g id="shape-2b7291a4-24d7-11ec-a597-6bd30b8da739"><g class="fills" id="fills-2b7291a4-24d7-11ec-a597-6bd30b8da739"><path rx="0" ry="0" d="m33.721,93.394C33.031,93.108,32.210,92.767,31.896,92.636C31.582,92.504,30.520,91.965,29.535,91.437C21.710,87.242,15.618,81.197,11.233,73.273C8.056,67.534,6.226,61.109,5.798,54.190C5.270,45.664,7.456,36.585,11.811,29.217C16.329,21.575,22.726,15.578,30.549,11.654C34.227,9.808,37.152,8.760,41.025,7.898C44.522,7.119,46.236,6.952,50.690,6.952C55.144,6.952,56.859,7.119,60.355,7.898C64.228,8.760,67.153,9.808,70.832,11.654C78.654,15.578,85.052,21.575,89.569,29.217C93.924,36.585,96.111,45.664,95.583,54.190C95.079,62.325,92.725,69.509,88.343,76.286C83.473,83.817,76.519,89.648,68.176,93.195C66.337,93.977,65.485,94.072,64.562,93.596C63.456,93.026,63.464,93.045,61.189,85.729C60.136,82.342,57.187,72.936,56.749,71.564C55.187,66.680,54.640,64.736,54.640,64.070C54.640,63.073,55.192,62.318,56.596,61.395C63.231,57.030,63.744,47.872,57.625,42.984C54.914,40.817,50.967,40.037,47.665,41.014C42.680,42.489,39.482,46.739,39.477,51.893C39.473,55.660,41.453,59.203,44.785,61.395C45.404,61.803,46.075,62.389,46.314,62.732C47.059,63.801,47.012,64.044,44.559,71.785C43.977,73.622,40.827,83.676,40.190,85.729C38.557,90.990,38.113,92.304,37.810,92.759C37.398,93.379,36.353,93.919,35.571,93.916C35.231,93.914,34.438,93.691,33.721,93.394ZZ" style="stroke-miterlimit: 4; stroke-dasharray: none; stroke-opacity: 1; fill: rgb(177, 247, 228); fill-opacity: 1;"/></g><g id="strokes-2b7291a4-24d7-11ec-a597-6bd30b8da739" class="strokes"><g class="stroke-shape"><path rx="0" ry="0" d="m33.721,93.394C33.031,93.108,32.210,92.767,31.896,92.636C31.582,92.504,30.520,91.965,29.535,91.437C21.710,87.242,15.618,81.197,11.233,73.273C8.056,67.534,6.226,61.109,5.798,54.190C5.270,45.664,7.456,36.585,11.811,29.217C16.329,21.575,22.726,15.578,30.549,11.654C34.227,9.808,37.152,8.760,41.025,7.898C44.522,7.119,46.236,6.952,50.690,6.952C55.144,6.952,56.859,7.119,60.355,7.898C64.228,8.760,67.153,9.808,70.832,11.654C78.654,15.578,85.052,21.575,89.569,29.217C93.924,36.585,96.111,45.664,95.583,54.190C95.079,62.325,92.725,69.509,88.343,76.286C83.473,83.817,76.519,89.648,68.176,93.195C66.337,93.977,65.485,94.072,64.562,93.596C63.456,93.026,63.464,93.045,61.189,85.729C60.136,82.342,57.187,72.936,56.749,71.564C55.187,66.680,54.640,64.736,54.640,64.070C54.640,63.073,55.192,62.318,56.596,61.395C63.231,57.030,63.744,47.872,57.625,42.984C54.914,40.817,50.967,40.037,47.665,41.014C42.680,42.489,39.482,46.739,39.477,51.893C39.473,55.660,41.453,59.203,44.785,61.395C45.404,61.803,46.075,62.389,46.314,62.732C47.059,63.801,47.012,64.044,44.559,71.785C43.977,73.622,40.827,83.676,40.190,85.729C38.557,90.990,38.113,92.304,37.810,92.759C37.398,93.379,36.353,93.919,35.571,93.916C35.231,93.914,34.438,93.691,33.721,93.394ZZ" style="stroke-miterlimit: 4; stroke-dasharray: none; stroke-opacity: 1; fill: none; stroke-width: 2; stroke: rgb(49, 239, 184);"/></g></g></g><g id="shape-2b7291a5-24d7-11ec-a597-6bd30b8da739"><g class="fills" id="fills-2b7291a5-24d7-11ec-a597-6bd30b8da739"><path rx="0" ry="0" d="m16.670,22.121L16.670,23.107C17.355,23.107,17.694,23.288,17.976,23.568C18.258,23.849,18.470,24.277,18.703,24.763C18.936,25.249,19.192,25.795,19.663,26.239C20.135,26.682,20.825,26.976,21.747,26.976C22.669,26.976,23.376,26.687,23.879,26.252C24.382,25.817,24.683,25.270,24.937,24.773C25.191,24.276,25.404,23.823,25.647,23.538C25.890,23.252,26.111,23.107,26.584,23.107L26.584,22.121C25.848,22.121,25.271,22.461,24.897,22.901C24.523,23.340,24.300,23.856,24.060,24.326C23.820,24.797,23.570,25.217,23.234,25.508C22.898,25.798,22.477,25.991,21.747,25.991C21.017,25.991,20.638,25.803,20.339,25.521C20.039,25.239,19.823,24.817,19.592,24.336C19.362,23.855,19.119,23.315,18.671,22.870C18.222,22.425,17.557,22.121,16.670,22.121ZZ" style="font: medium sans-serif; stroke-opacity: 1; vector-effect: none; stroke: none; word-spacing: normal; text-decoration: none solid; isolation: auto; baseline-shift: baseline; color: rgb(0, 0, 0); fill-rule: nonzero; text-transform: none; overflow: visible; image-rendering: auto; stroke-dashoffset: 0; text-anchor: start; font-feature-settings: normal; text-indent: 0px; writing-mode: lr-tb; letter-spacing: normal; color-rendering: auto; text-orientation: mixed; opacity: 1; mix-blend-mode: normal; stroke-linejoin: miter; stroke-dasharray: none; white-space: normal; stroke-miterlimit: 4; text-align: start; display: inline; shape-rendering: auto; text-rendering: auto; dominant-baseline: auto; stroke-linecap: butt; visibility: visible; direction: ltr; color-interpolation: srgb; clip-rule: nonzero; color-interpolation-filters: linearrgb; fill: rgb(49, 239, 184); fill-opacity: 1;"/></g><g id="strokes-2b7291a5-24d7-11ec-a597-6bd30b8da739" class="strokes"><g class="stroke-shape"><path rx="0" ry="0" d="m16.670,22.121L16.670,23.107C17.355,23.107,17.694,23.288,17.976,23.568C18.258,23.849,18.470,24.277,18.703,24.763C18.936,25.249,19.192,25.795,19.663,26.239C20.135,26.682,20.825,26.976,21.747,26.976C22.669,26.976,23.376,26.687,23.879,26.252C24.382,25.817,24.683,25.270,24.937,24.773C25.191,24.276,25.404,23.823,25.647,23.538C25.890,23.252,26.111,23.107,26.584,23.107L26.584,22.121C25.848,22.121,25.271,22.461,24.897,22.901C24.523,23.340,24.300,23.856,24.060,24.326C23.820,24.797,23.570,25.217,23.234,25.508C22.898,25.798,22.477,25.991,21.747,25.991C21.017,25.991,20.638,25.803,20.339,25.521C20.039,25.239,19.823,24.817,19.592,24.336C19.362,23.855,19.119,23.315,18.671,22.870C18.222,22.425,17.557,22.121,16.670,22.121ZZ" style="font: medium sans-serif; stroke-opacity: 1; vector-effect: none; stroke: none; word-spacing: normal; text-decoration: none solid; isolation: auto; baseline-shift: baseline; color: rgb(0, 0, 0); fill-rule: nonzero; text-transform: none; overflow: visible; image-rendering: auto; stroke-dashoffset: 0; text-anchor: start; font-feature-settings: normal; text-indent: 0px; writing-mode: lr-tb; letter-spacing: normal; color-rendering: auto; text-orientation: mixed; opacity: 1; mix-blend-mode: normal; stroke-linejoin: miter; stroke-dasharray: none; white-space: normal; stroke-miterlimit: 4; text-align: start; display: inline; shape-rendering: auto; text-rendering: auto; dominant-baseline: auto; stroke-linecap: butt; visibility: visible; direction: ltr; color-interpolation: srgb; clip-rule: nonzero; color-interpolation-filters: linearrgb; fill: none; stroke-width: 0.999998;"/></g></g></g><g id="shape-2b7291a6-24d7-11ec-a597-6bd30b8da739"><g class="fills" id="fills-2b7291a6-24d7-11ec-a597-6bd30b8da739"><path rx="0" ry="0" d="m14.500,30.679C13.613,30.679,12.955,30.985,12.531,31.439C12.107,31.893,11.902,32.436,11.698,32.913C11.495,33.390,11.299,33.798,11.002,34.075C10.705,34.352,10.300,34.548,9.503,34.548L9.503,35.533C10.479,35.533,11.192,35.245,11.673,34.796C12.155,34.348,12.395,33.790,12.604,33.300C12.814,32.809,12.997,32.384,13.251,32.113C13.505,31.841,13.815,31.664,14.500,31.664C15.184,31.664,15.526,31.846,15.808,32.126C16.090,32.406,16.302,32.833,16.535,33.319C16.768,33.805,17.024,34.351,17.495,34.795C17.966,35.238,18.656,35.533,19.579,35.533C20.501,35.533,21.208,35.243,21.710,34.808C22.213,34.373,22.513,33.827,22.767,33.330C23.020,32.833,23.235,32.381,23.479,32.095C23.722,31.809,23.942,31.664,24.416,31.664L24.416,30.679C23.680,30.679,23.102,31.017,22.728,31.456C22.354,31.896,22.129,32.412,21.889,32.882C21.649,33.353,21.402,33.773,21.066,34.063C20.730,34.354,20.309,34.548,19.579,34.548C18.849,34.548,18.470,34.359,18.170,34.077C17.871,33.795,17.653,33.375,17.422,32.894C17.191,32.413,16.951,31.871,16.502,31.426C16.054,30.981,15.386,30.679,14.500,30.679ZZ" style="font: medium sans-serif; stroke-opacity: 1; vector-effect: none; stroke: none; word-spacing: normal; text-decoration: none solid; isolation: auto; baseline-shift: baseline; color: rgb(0, 0, 0); fill-rule: nonzero; text-transform: none; overflow: visible; image-rendering: auto; stroke-dashoffset: 0; text-anchor: start; font-feature-settings: normal; text-indent: 0px; writing-mode: lr-tb; letter-spacing: normal; color-rendering: auto; text-orientation: mixed; opacity: 1; mix-blend-mode: normal; stroke-linejoin: miter; stroke-dasharray: none; white-space: normal; stroke-miterlimit: 4; text-align: start; display: inline; shape-rendering: auto; text-rendering: auto; dominant-baseline: auto; stroke-linecap: butt; visibility: visible; direction: ltr; color-interpolation: srgb; clip-rule: nonzero; color-interpolation-filters: linearrgb; fill: rgb(49, 239, 184); fill-opacity: 1;"/></g><g id="strokes-2b7291a6-24d7-11ec-a597-6bd30b8da739" class="strokes"><g class="stroke-shape"><path rx="0" ry="0" d="m14.500,30.679C13.613,30.679,12.955,30.985,12.531,31.439C12.107,31.893,11.902,32.436,11.698,32.913C11.495,33.390,11.299,33.798,11.002,34.075C10.705,34.352,10.300,34.548,9.503,34.548L9.503,35.533C10.479,35.533,11.192,35.245,11.673,34.796C12.155,34.348,12.395,33.790,12.604,33.300C12.814,32.809,12.997,32.384,13.251,32.113C13.505,31.841,13.815,31.664,14.500,31.664C15.184,31.664,15.526,31.846,15.808,32.126C16.090,32.406,16.302,32.833,16.535,33.319C16.768,33.805,17.024,34.351,17.495,34.795C17.966,35.238,18.656,35.533,19.579,35.533C20.501,35.533,21.208,35.243,21.710,34.808C22.213,34.373,22.513,33.827,22.767,33.330C23.020,32.833,23.235,32.381,23.479,32.095C23.722,31.809,23.942,31.664,24.416,31.664L24.416,30.679C23.680,30.679,23.102,31.017,22.728,31.456C22.354,31.896,22.129,32.412,21.889,32.882C21.649,33.353,21.402,33.773,21.066,34.063C20.730,34.354,20.309,34.548,19.579,34.548C18.849,34.548,18.470,34.359,18.170,34.077C17.871,33.795,17.653,33.375,17.422,32.894C17.191,32.413,16.951,31.871,16.502,31.426C16.054,30.981,15.386,30.679,14.500,30.679ZZ" style="font: medium sans-serif; stroke-opacity: 1; vector-effect: none; stroke: none; word-spacing: normal; text-decoration: none solid; isolation: auto; baseline-shift: baseline; color: rgb(0, 0, 0); fill-rule: nonzero; text-transform: none; overflow: visible; image-rendering: auto; stroke-dashoffset: 0; text-anchor: start; font-feature-settings: normal; text-indent: 0px; writing-mode: lr-tb; letter-spacing: normal; color-rendering: auto; text-orientation: mixed; opacity: 1; mix-blend-mode: normal; stroke-linejoin: miter; stroke-dasharray: none; white-space: normal; stroke-miterlimit: 4; text-align: start; display: inline; shape-rendering: auto; text-rendering: auto; dominant-baseline: auto; stroke-linecap: butt; visibility: visible; direction: ltr; color-interpolation: srgb; clip-rule: nonzero; color-interpolation-filters: linearrgb; fill: none; stroke-width: 0.999998;"/></g></g></g><g id="shape-2b7291a7-24d7-11ec-a597-6bd30b8da739"><g class="fills" id="fills-2b7291a7-24d7-11ec-a597-6bd30b8da739"><path rx="0" ry="0" d="m7.396,39.037L7.396,40.022C8.081,40.022,8.398,40.200,8.660,40.474C8.922,40.749,9.116,41.177,9.336,41.667C9.555,42.157,9.806,42.712,10.294,43.158C10.782,43.604,11.497,43.893,12.474,43.893C13.450,43.893,14.164,43.605,14.646,43.156C15.127,42.707,15.368,42.150,15.577,41.659C15.786,41.169,15.970,40.742,16.223,40.470C16.477,40.199,16.787,40.022,17.472,40.022C18.157,40.022,18.498,40.203,18.780,40.484C19.063,40.764,19.275,41.192,19.508,41.678C19.741,42.165,19.996,42.711,20.468,43.154C20.939,43.598,21.629,43.893,22.551,43.893C23.474,43.893,24.180,43.602,24.683,43.168C25.186,42.733,25.486,42.185,25.739,41.688C25.993,41.191,26.208,40.741,26.451,40.455C26.694,40.169,26.913,40.022,27.386,40.022L27.386,39.037C26.650,39.037,26.075,39.376,25.701,39.816C25.327,40.256,25.102,40.771,24.862,41.242C24.622,41.712,24.374,42.132,24.038,42.423C23.702,42.714,23.281,42.908,22.551,42.908C21.821,42.908,21.443,42.718,21.143,42.436C20.843,42.154,20.625,41.732,20.394,41.251C20.164,40.770,19.923,40.230,19.475,39.785C19.027,39.340,18.359,39.037,17.472,39.037C16.585,39.037,15.928,39.345,15.504,39.799C15.080,40.253,14.874,40.794,14.671,41.271C14.467,41.748,14.271,42.158,13.974,42.435C13.677,42.711,13.271,42.908,12.474,42.908C11.676,42.908,11.265,42.710,10.959,42.431C10.654,42.151,10.448,41.740,10.234,41.263C10.020,40.786,9.805,40.246,9.374,39.795C8.943,39.344,8.283,39.037,7.396,39.037ZZ" style="font: medium sans-serif; stroke-opacity: 1; vector-effect: none; stroke: none; word-spacing: normal; text-decoration: none solid; isolation: auto; baseline-shift: baseline; color: rgb(0, 0, 0); fill-rule: nonzero; text-transform: none; overflow: visible; image-rendering: auto; stroke-dashoffset: 0; text-anchor: start; font-feature-settings: normal; text-indent: 0px; writing-mode: lr-tb; letter-spacing: normal; color-rendering: auto; text-orientation: mixed; opacity: 1; mix-blend-mode: normal; stroke-linejoin: miter; stroke-dasharray: none; white-space: normal; stroke-miterlimit: 4; text-align: start; display: inline; shape-rendering: auto; text-rendering: auto; dominant-baseline: auto; stroke-linecap: butt; visibility: visible; direction: ltr; color-interpolation: srgb; clip-rule: nonzero; color-interpolation-filters: linearrgb; fill: rgb(49, 239, 184); fill-opacity: 1;"/></g><g id="strokes-2b7291a7-24d7-11ec-a597-6bd30b8da739" class="strokes"><g class="stroke-shape"><path rx="0" ry="0" d="m7.396,39.037L7.396,40.022C8.081,40.022,8.398,40.200,8.660,40.474C8.922,40.749,9.116,41.177,9.336,41.667C9.555,42.157,9.806,42.712,10.294,43.158C10.782,43.604,11.497,43.893,12.474,43.893C13.450,43.893,14.164,43.605,14.646,43.156C15.127,42.707,15.368,42.150,15.577,41.659C15.786,41.169,15.970,40.742,16.223,40.470C16.477,40.199,16.787,40.022,17.472,40.022C18.157,40.022,18.498,40.203,18.780,40.484C19.063,40.764,19.275,41.192,19.508,41.678C19.741,42.165,19.996,42.711,20.468,43.154C20.939,43.598,21.629,43.893,22.551,43.893C23.474,43.893,24.180,43.602,24.683,43.168C25.186,42.733,25.486,42.185,25.739,41.688C25.993,41.191,26.208,40.741,26.451,40.455C26.694,40.169,26.913,40.022,27.386,40.022L27.386,39.037C26.650,39.037,26.075,39.376,25.701,39.816C25.327,40.256,25.102,40.771,24.862,41.242C24.622,41.712,24.374,42.132,24.038,42.423C23.702,42.714,23.281,42.908,22.551,42.908C21.821,42.908,21.443,42.718,21.143,42.436C20.843,42.154,20.625,41.732,20.394,41.251C20.164,40.770,19.923,40.230,19.475,39.785C19.027,39.340,18.359,39.037,17.472,39.037C16.585,39.037,15.928,39.345,15.504,39.799C15.080,40.253,14.874,40.794,14.671,41.271C14.467,41.748,14.271,42.158,13.974,42.435C13.677,42.711,13.271,42.908,12.474,42.908C11.676,42.908,11.265,42.710,10.959,42.431C10.654,42.151,10.448,41.740,10.234,41.263C10.020,40.786,9.805,40.246,9.374,39.795C8.943,39.344,8.283,39.037,7.396,39.037ZZ" style="font: medium sans-serif; stroke-opacity: 1; vector-effect: none; stroke: none; word-spacing: normal; text-decoration: none solid; isolation: auto; baseline-shift: baseline; color: rgb(0, 0, 0); fill-rule: nonzero; text-transform: none; overflow: visible; image-rendering: auto; stroke-dashoffset: 0; text-anchor: start; font-feature-settings: normal; text-indent: 0px; writing-mode: lr-tb; letter-spacing: normal; color-rendering: auto; text-orientation: mixed; opacity: 1; mix-blend-mode: normal; stroke-linejoin: miter; stroke-dasharray: none; white-space: normal; stroke-miterlimit: 4; text-align: start; display: inline; shape-rendering: auto; text-rendering: auto; dominant-baseline: auto; stroke-linecap: butt; visibility: visible; direction: ltr; color-interpolation: srgb; clip-rule: nonzero; color-interpolation-filters: linearrgb; fill: none; stroke-width: 0.999998;"/></g></g></g><g id="shape-2b72b8b0-24d7-11ec-a597-6bd30b8da739"><g class="fills" id="fills-2b72b8b0-24d7-11ec-a597-6bd30b8da739"><path rx="0" ry="0" d="m13.066,77.418L13.066,78.403C13.751,78.403,14.068,78.581,14.330,78.855C14.592,79.129,14.784,79.556,15.004,80.046C15.223,80.536,15.476,81.093,15.964,81.539C16.452,81.985,17.167,82.272,18.143,82.272C19.120,82.272,19.834,81.984,20.316,81.535C20.797,81.086,21.037,80.529,21.247,80.038C21.456,79.548,21.639,79.123,21.893,78.851C22.147,78.579,22.457,78.403,23.142,78.403C23.827,78.403,24.168,78.584,24.450,78.865C24.732,79.145,24.944,79.571,25.177,80.057C25.410,80.544,25.666,81.090,26.137,81.533C26.609,81.977,27.299,82.272,28.221,82.272C29.143,82.272,29.850,81.983,30.353,81.549C30.856,81.114,31.155,80.566,31.409,80.069C31.663,79.572,31.878,79.120,32.121,78.834C32.364,78.548,32.583,78.403,33.056,78.403L33.056,77.418C32.320,77.418,31.745,77.755,31.371,78.195C30.997,78.635,30.772,79.150,30.532,79.621C30.292,80.091,30.044,80.511,29.708,80.802C29.372,81.093,28.951,81.287,28.221,81.287C27.491,81.287,27.112,81.099,26.813,80.817C26.513,80.535,26.295,80.113,26.064,79.632C25.834,79.151,25.593,78.611,25.145,78.166C24.696,77.721,24.029,77.418,23.142,77.418C22.255,77.418,21.598,77.726,21.174,78.180C20.750,78.633,20.544,79.174,20.341,79.651C20.137,80.129,19.941,80.539,19.644,80.815C19.347,81.092,18.941,81.287,18.143,81.287C17.346,81.287,16.935,81.091,16.629,80.812C16.324,80.532,16.118,80.121,15.904,79.644C15.690,79.167,15.475,78.625,15.044,78.174C14.613,77.723,13.953,77.418,13.066,77.418ZZ" style="font: medium sans-serif; stroke-opacity: 1; vector-effect: none; stroke: none; word-spacing: normal; text-decoration: none solid; isolation: auto; baseline-shift: baseline; color: rgb(0, 0, 0); fill-rule: nonzero; text-transform: none; overflow: visible; image-rendering: auto; stroke-dashoffset: 0; text-anchor: start; font-feature-settings: normal; text-indent: 0px; writing-mode: lr-tb; letter-spacing: normal; color-rendering: auto; text-orientation: mixed; opacity: 1; mix-blend-mode: normal; stroke-linejoin: miter; stroke-dasharray: none; white-space: normal; stroke-miterlimit: 4; text-align: start; display: inline; shape-rendering: auto; text-rendering: auto; dominant-baseline: auto; stroke-linecap: butt; visibility: visible; direction: ltr; color-interpolation: srgb; clip-rule: nonzero; color-interpolation-filters: linearrgb; fill: rgb(49, 239, 184); fill-opacity: 1;"/></g><g id="strokes-2b72b8b0-24d7-11ec-a597-6bd30b8da739" class="strokes"><g class="stroke-shape"><path rx="0" ry="0" d="m13.066,77.418L13.066,78.403C13.751,78.403,14.068,78.581,14.330,78.855C14.592,79.129,14.784,79.556,15.004,80.046C15.223,80.536,15.476,81.093,15.964,81.539C16.452,81.985,17.167,82.272,18.143,82.272C19.120,82.272,19.834,81.984,20.316,81.535C20.797,81.086,21.037,80.529,21.247,80.038C21.456,79.548,21.639,79.123,21.893,78.851C22.147,78.579,22.457,78.403,23.142,78.403C23.827,78.403,24.168,78.584,24.450,78.865C24.732,79.145,24.944,79.571,25.177,80.057C25.410,80.544,25.666,81.090,26.137,81.533C26.609,81.977,27.299,82.272,28.221,82.272C29.143,82.272,29.850,81.983,30.353,81.549C30.856,81.114,31.155,80.566,31.409,80.069C31.663,79.572,31.878,79.120,32.121,78.834C32.364,78.548,32.583,78.403,33.056,78.403L33.056,77.418C32.320,77.418,31.745,77.755,31.371,78.195C30.997,78.635,30.772,79.150,30.532,79.621C30.292,80.091,30.044,80.511,29.708,80.802C29.372,81.093,28.951,81.287,28.221,81.287C27.491,81.287,27.112,81.099,26.813,80.817C26.513,80.535,26.295,80.113,26.064,79.632C25.834,79.151,25.593,78.611,25.145,78.166C24.696,77.721,24.029,77.418,23.142,77.418C22.255,77.418,21.598,77.726,21.174,78.180C20.750,78.633,20.544,79.174,20.341,79.651C20.137,80.129,19.941,80.539,19.644,80.815C19.347,81.092,18.941,81.287,18.143,81.287C17.346,81.287,16.935,81.091,16.629,80.812C16.324,80.532,16.118,80.121,15.904,79.644C15.690,79.167,15.475,78.625,15.044,78.174C14.613,77.723,13.953,77.418,13.066,77.418ZZ" style="font: medium sans-serif; stroke-opacity: 1; vector-effect: none; stroke: none; word-spacing: normal; text-decoration: none solid; isolation: auto; baseline-shift: baseline; color: rgb(0, 0, 0); fill-rule: nonzero; text-transform: none; overflow: visible; image-rendering: auto; stroke-dashoffset: 0; text-anchor: start; font-feature-settings: normal; text-indent: 0px; writing-mode: lr-tb; letter-spacing: normal; color-rendering: auto; text-orientation: mixed; opacity: 1; mix-blend-mode: normal; stroke-linejoin: miter; stroke-dasharray: none; white-space: normal; stroke-miterlimit: 4; text-align: start; display: inline; shape-rendering: auto; text-rendering: auto; dominant-baseline: auto; stroke-linecap: butt; visibility: visible; direction: ltr; color-interpolation: srgb; clip-rule: nonzero; color-interpolation-filters: linearrgb; fill: none; stroke-width: 0.999998;"/></g></g></g><g id="shape-2b72b8b1-24d7-11ec-a597-6bd30b8da739"><g class="fills" id="fills-2b72b8b1-24d7-11ec-a597-6bd30b8da739"><path rx="0" ry="0" d="m12.229,57.561C11.342,57.561,10.685,57.869,10.261,58.323C9.837,58.776,9.632,59.317,9.428,59.794C9.224,60.271,9.026,60.682,8.730,60.958C8.433,61.235,8.028,61.430,7.231,61.430L7.231,62.415C8.207,62.415,8.920,62.127,9.401,61.678C9.882,61.229,10.125,60.671,10.334,60.181C10.544,59.691,10.727,59.266,10.981,58.994C11.234,58.722,11.544,58.546,12.229,58.546C12.914,58.546,13.253,58.727,13.536,59.007C13.818,59.288,14.030,59.714,14.263,60.200C14.496,60.687,14.752,61.233,15.223,61.676C15.694,62.120,16.384,62.415,17.307,62.415C18.229,62.415,18.935,62.126,19.438,61.691C19.941,61.257,20.243,60.709,20.496,60.212C20.750,59.715,20.965,59.263,21.208,58.977C21.451,58.691,21.670,58.546,22.143,58.546L22.143,57.561C21.407,57.561,20.832,57.898,20.458,58.338C20.084,58.778,19.859,59.293,19.619,59.764C19.379,60.234,19.130,60.654,18.794,60.945C18.458,61.236,18.037,61.430,17.307,61.430C16.576,61.430,16.198,61.242,15.898,60.960C15.599,60.678,15.382,60.256,15.152,59.775C14.921,59.294,14.678,58.754,14.230,58.309C13.782,57.864,13.116,57.561,12.229,57.561ZZ" style="font: medium sans-serif; stroke-opacity: 1; vector-effect: none; stroke: none; word-spacing: normal; text-decoration: none solid; isolation: auto; baseline-shift: baseline; color: rgb(0, 0, 0); fill-rule: nonzero; text-transform: none; overflow: visible; image-rendering: auto; stroke-dashoffset: 0; text-anchor: start; font-feature-settings: normal; text-indent: 0px; writing-mode: lr-tb; letter-spacing: normal; color-rendering: auto; text-orientation: mixed; opacity: 1; mix-blend-mode: normal; stroke-linejoin: miter; stroke-dasharray: none; white-space: normal; stroke-miterlimit: 4; text-align: start; display: inline; shape-rendering: auto; text-rendering: auto; dominant-baseline: auto; stroke-linecap: butt; visibility: visible; direction: ltr; color-interpolation: srgb; clip-rule: nonzero; color-interpolation-filters: linearrgb; fill: rgb(49, 239, 184); fill-opacity: 1;"/></g><g id="strokes-2b72b8b1-24d7-11ec-a597-6bd30b8da739" class="strokes"><g class="stroke-shape"><path rx="0" ry="0" d="m12.229,57.561C11.342,57.561,10.685,57.869,10.261,58.323C9.837,58.776,9.632,59.317,9.428,59.794C9.224,60.271,9.026,60.682,8.730,60.958C8.433,61.235,8.028,61.430,7.231,61.430L7.231,62.415C8.207,62.415,8.920,62.127,9.401,61.678C9.882,61.229,10.125,60.671,10.334,60.181C10.544,59.691,10.727,59.266,10.981,58.994C11.234,58.722,11.544,58.546,12.229,58.546C12.914,58.546,13.253,58.727,13.536,59.007C13.818,59.288,14.030,59.714,14.263,60.200C14.496,60.687,14.752,61.233,15.223,61.676C15.694,62.120,16.384,62.415,17.307,62.415C18.229,62.415,18.935,62.126,19.438,61.691C19.941,61.257,20.243,60.709,20.496,60.212C20.750,59.715,20.965,59.263,21.208,58.977C21.451,58.691,21.670,58.546,22.143,58.546L22.143,57.561C21.407,57.561,20.832,57.898,20.458,58.338C20.084,58.778,19.859,59.293,19.619,59.764C19.379,60.234,19.130,60.654,18.794,60.945C18.458,61.236,18.037,61.430,17.307,61.430C16.576,61.430,16.198,61.242,15.898,60.960C15.599,60.678,15.382,60.256,15.152,59.775C14.921,59.294,14.678,58.754,14.230,58.309C13.782,57.864,13.116,57.561,12.229,57.561ZZ" style="font: medium sans-serif; stroke-opacity: 1; vector-effect: none; stroke: none; word-spacing: normal; text-decoration: none solid; isolation: auto; baseline-shift: baseline; color: rgb(0, 0, 0); fill-rule: nonzero; text-transform: none; overflow: visible; image-rendering: auto; stroke-dashoffset: 0; text-anchor: start; font-feature-settings: normal; text-indent: 0px; writing-mode: lr-tb; letter-spacing: normal; color-rendering: auto; text-orientation: mixed; opacity: 1; mix-blend-mode: normal; stroke-linejoin: miter; stroke-dasharray: none; white-space: normal; stroke-miterlimit: 4; text-align: start; display: inline; shape-rendering: auto; text-rendering: auto; dominant-baseline: auto; stroke-linecap: butt; visibility: visible; direction: ltr; color-interpolation: srgb; clip-rule: nonzero; color-interpolation-filters: linearrgb; fill: none; stroke-width: 0.999998;"/></g></g></g><g id="shape-2b72b8b2-24d7-11ec-a597-6bd30b8da739"><g class="fills" id="fills-2b72b8b2-24d7-11ec-a597-6bd30b8da739"><path rx="0" ry="0" d="m10.777,48.551C9.890,48.551,9.232,48.857,8.808,49.311C8.385,49.765,8.179,50.308,7.975,50.785C7.772,51.262,7.576,51.670,7.279,51.947C6.982,52.223,6.575,52.420,5.778,52.420L5.778,53.405C6.754,53.405,7.469,53.117,7.950,52.668C8.432,52.219,8.672,51.662,8.882,51.171C9.091,50.681,9.274,50.256,9.528,49.984C9.782,49.712,10.092,49.536,10.777,49.536C11.462,49.536,11.803,49.717,12.085,49.998C12.367,50.278,12.577,50.704,12.810,51.190C13.043,51.677,13.301,52.223,13.772,52.666C14.243,53.110,14.932,53.405,15.854,53.405C16.776,53.405,17.485,53.114,17.988,52.680C18.490,52.245,18.790,51.699,19.044,51.202C19.298,50.705,19.513,50.253,19.756,49.967C19.999,49.681,20.218,49.536,20.691,49.536L20.691,48.551C19.955,48.551,19.379,48.888,19.005,49.328C18.631,49.768,18.407,50.283,18.167,50.754C17.926,51.224,17.679,51.644,17.343,51.935C17.007,52.226,16.584,52.420,15.854,52.420C15.124,52.420,14.747,52.231,14.448,51.949C14.148,51.667,13.930,51.246,13.699,50.765C13.469,50.284,13.228,49.742,12.779,49.297C12.331,48.852,11.664,48.551,10.777,48.551ZZ" style="font: medium sans-serif; stroke-opacity: 1; vector-effect: none; stroke: none; word-spacing: normal; text-decoration: none solid; isolation: auto; baseline-shift: baseline; color: rgb(0, 0, 0); fill-rule: nonzero; text-transform: none; overflow: visible; image-rendering: auto; stroke-dashoffset: 0; text-anchor: start; font-feature-settings: normal; text-indent: 0px; writing-mode: lr-tb; letter-spacing: normal; color-rendering: auto; text-orientation: mixed; opacity: 1; mix-blend-mode: normal; stroke-linejoin: miter; stroke-dasharray: none; white-space: normal; stroke-miterlimit: 4; text-align: start; display: inline; shape-rendering: auto; text-rendering: auto; dominant-baseline: auto; stroke-linecap: butt; visibility: visible; direction: ltr; color-interpolation: srgb; clip-rule: nonzero; color-interpolation-filters: linearrgb; fill: rgb(49, 239, 184); fill-opacity: 1;"/></g><g id="strokes-2b72b8b2-24d7-11ec-a597-6bd30b8da739" class="strokes"><g class="stroke-shape"><path rx="0" ry="0" d="m10.777,48.551C9.890,48.551,9.232,48.857,8.808,49.311C8.385,49.765,8.179,50.308,7.975,50.785C7.772,51.262,7.576,51.670,7.279,51.947C6.982,52.223,6.575,52.420,5.778,52.420L5.778,53.405C6.754,53.405,7.469,53.117,7.950,52.668C8.432,52.219,8.672,51.662,8.882,51.171C9.091,50.681,9.274,50.256,9.528,49.984C9.782,49.712,10.092,49.536,10.777,49.536C11.462,49.536,11.803,49.717,12.085,49.998C12.367,50.278,12.577,50.704,12.810,51.190C13.043,51.677,13.301,52.223,13.772,52.666C14.243,53.110,14.932,53.405,15.854,53.405C16.776,53.405,17.485,53.114,17.988,52.680C18.490,52.245,18.790,51.699,19.044,51.202C19.298,50.705,19.513,50.253,19.756,49.967C19.999,49.681,20.218,49.536,20.691,49.536L20.691,48.551C19.955,48.551,19.379,48.888,19.005,49.328C18.631,49.768,18.407,50.283,18.167,50.754C17.926,51.224,17.679,51.644,17.343,51.935C17.007,52.226,16.584,52.420,15.854,52.420C15.124,52.420,14.747,52.231,14.448,51.949C14.148,51.667,13.930,51.246,13.699,50.765C13.469,50.284,13.228,49.742,12.779,49.297C12.331,48.852,11.664,48.551,10.777,48.551ZZ" style="font: medium sans-serif; stroke-opacity: 1; vector-effect: none; stroke: none; word-spacing: normal; text-decoration: none solid; isolation: auto; baseline-shift: baseline; color: rgb(0, 0, 0); fill-rule: nonzero; text-transform: none; overflow: visible; image-rendering: auto; stroke-dashoffset: 0; text-anchor: start; font-feature-settings: normal; text-indent: 0px; writing-mode: lr-tb; letter-spacing: normal; color-rendering: auto; text-orientation: mixed; opacity: 1; mix-blend-mode: normal; stroke-linejoin: miter; stroke-dasharray: none; white-space: normal; stroke-miterlimit: 4; text-align: start; display: inline; shape-rendering: auto; text-rendering: auto; dominant-baseline: auto; stroke-linecap: butt; visibility: visible; direction: ltr; color-interpolation: srgb; clip-rule: nonzero; color-interpolation-filters: linearrgb; fill: none; stroke-width: 0.999998;"/></g></g></g><g id="shape-2b72b8b3-24d7-11ec-a597-6bd30b8da739"><g class="fills" id="fills-2b72b8b3-24d7-11ec-a597-6bd30b8da739"><path rx="0" ry="0" d="m9.715,68.481L9.715,69.466C10.400,69.466,10.719,69.646,10.981,69.920C11.243,70.195,11.434,70.621,11.654,71.111C11.874,71.601,12.126,72.156,12.614,72.602C13.102,73.048,13.818,73.337,14.794,73.337C15.770,73.337,16.483,73.049,16.964,72.600C17.446,72.151,17.688,71.594,17.897,71.103C18.107,70.613,18.288,70.186,18.542,69.914C18.795,69.643,19.105,69.466,19.790,69.466C20.475,69.466,20.816,69.648,21.099,69.928C21.381,70.208,21.593,70.636,21.826,71.123C22.059,71.609,22.315,72.155,22.786,72.598C23.257,73.042,23.947,73.337,24.870,73.337C25.792,73.337,26.499,73.047,27.001,72.612C27.504,72.177,27.806,71.629,28.060,71.132C28.313,70.635,28.526,70.185,28.769,69.899C29.013,69.613,29.233,69.466,29.706,69.466L29.706,68.481C28.971,68.481,28.393,68.821,28.019,69.260C27.645,69.700,27.422,70.216,27.182,70.686C26.942,71.156,26.693,71.577,26.357,71.867C26.021,72.158,25.600,72.352,24.870,72.352C24.140,72.352,23.761,72.163,23.461,71.881C23.162,71.599,22.945,71.177,22.715,70.695C22.484,70.214,22.241,69.675,21.793,69.229C21.345,68.784,20.677,68.481,19.790,68.481C18.903,68.481,18.246,68.789,17.822,69.243C17.398,69.697,17.195,70.238,16.991,70.715C16.787,71.192,16.590,71.602,16.293,71.879C15.996,72.155,15.591,72.352,14.794,72.352C13.997,72.352,13.583,72.154,13.278,71.875C12.972,71.596,12.766,71.184,12.552,70.707C12.339,70.230,12.123,69.690,11.692,69.239C11.262,68.788,10.602,68.481,9.715,68.481ZZ" style="font: medium sans-serif; stroke-opacity: 1; vector-effect: none; stroke: none; word-spacing: normal; text-decoration: none solid; isolation: auto; baseline-shift: baseline; color: rgb(0, 0, 0); fill-rule: nonzero; text-transform: none; overflow: visible; image-rendering: auto; stroke-dashoffset: 0; text-anchor: start; font-feature-settings: normal; text-indent: 0px; writing-mode: lr-tb; letter-spacing: normal; color-rendering: auto; text-orientation: mixed; opacity: 1; mix-blend-mode: normal; stroke-linejoin: miter; stroke-dasharray: none; white-space: normal; stroke-miterlimit: 4; text-align: start; display: inline; shape-rendering: auto; text-rendering: auto; dominant-baseline: auto; stroke-linecap: butt; visibility: visible; direction: ltr; color-interpolation: srgb; clip-rule: nonzero; color-interpolation-filters: linearrgb; fill: rgb(49, 239, 184); fill-opacity: 1;"/></g><g id="strokes-2b72b8b3-24d7-11ec-a597-6bd30b8da739" class="strokes"><g class="stroke-shape"><path rx="0" ry="0" d="m9.715,68.481L9.715,69.466C10.400,69.466,10.719,69.646,10.981,69.920C11.243,70.195,11.434,70.621,11.654,71.111C11.874,71.601,12.126,72.156,12.614,72.602C13.102,73.048,13.818,73.337,14.794,73.337C15.770,73.337,16.483,73.049,16.964,72.600C17.446,72.151,17.688,71.594,17.897,71.103C18.107,70.613,18.288,70.186,18.542,69.914C18.795,69.643,19.105,69.466,19.790,69.466C20.475,69.466,20.816,69.648,21.099,69.928C21.381,70.208,21.593,70.636,21.826,71.123C22.059,71.609,22.315,72.155,22.786,72.598C23.257,73.042,23.947,73.337,24.870,73.337C25.792,73.337,26.499,73.047,27.001,72.612C27.504,72.177,27.806,71.629,28.060,71.132C28.313,70.635,28.526,70.185,28.769,69.899C29.013,69.613,29.233,69.466,29.706,69.466L29.706,68.481C28.971,68.481,28.393,68.821,28.019,69.260C27.645,69.700,27.422,70.216,27.182,70.686C26.942,71.156,26.693,71.577,26.357,71.867C26.021,72.158,25.600,72.352,24.870,72.352C24.140,72.352,23.761,72.163,23.461,71.881C23.162,71.599,22.945,71.177,22.715,70.695C22.484,70.214,22.241,69.675,21.793,69.229C21.345,68.784,20.677,68.481,19.790,68.481C18.903,68.481,18.246,68.789,17.822,69.243C17.398,69.697,17.195,70.238,16.991,70.715C16.787,71.192,16.590,71.602,16.293,71.879C15.996,72.155,15.591,72.352,14.794,72.352C13.997,72.352,13.583,72.154,13.278,71.875C12.972,71.596,12.766,71.184,12.552,70.707C12.339,70.230,12.123,69.690,11.692,69.239C11.262,68.788,10.602,68.481,9.715,68.481ZZ" style="font: medium sans-serif; stroke-opacity: 1; vector-effect: none; stroke: none; word-spacing: normal; text-decoration: none solid; isolation: auto; baseline-shift: baseline; color: rgb(0, 0, 0); fill-rule: nonzero; text-transform: none; overflow: visible; image-rendering: auto; stroke-dashoffset: 0; text-anchor: start; font-feature-settings: normal; text-indent: 0px; writing-mode: lr-tb; letter-spacing: normal; color-rendering: auto; text-orientation: mixed; opacity: 1; mix-blend-mode: normal; stroke-linejoin: miter; stroke-dasharray: none; white-space: normal; stroke-miterlimit: 4; text-align: start; display: inline; shape-rendering: auto; text-rendering: auto; dominant-baseline: auto; stroke-linecap: butt; visibility: visible; direction: ltr; color-interpolation: srgb; clip-rule: nonzero; color-interpolation-filters: linearrgb; fill: none; stroke-width: 0.999998;"/></g></g></g><g id="shape-2b72b8b4-24d7-11ec-a597-6bd30b8da739"><g class="fills" id="fills-2b72b8b4-24d7-11ec-a597-6bd30b8da739"><path rx="0" ry="0" d="m30.590,85.046C29.667,85.046,28.977,85.342,28.506,85.785C28.035,86.229,27.779,86.775,27.546,87.261C27.313,87.747,27.103,88.173,26.820,88.454C26.538,88.734,26.197,88.915,25.512,88.915L25.512,89.900C26.399,89.900,27.065,89.597,27.513,89.152C27.961,88.707,28.204,88.167,28.435,87.686C28.665,87.205,28.882,86.785,29.181,86.503C29.481,86.221,29.859,86.031,30.590,86.031C31.320,86.031,31.743,86.226,32.079,86.516C32.415,86.807,32.662,87.227,32.902,87.697C33.142,88.168,33.367,88.683,33.741,89.123C34.115,89.563,34.690,89.900,35.426,89.900L35.426,88.915C34.953,88.915,34.734,88.770,34.491,88.484C34.248,88.199,34.033,87.746,33.779,87.249C33.526,86.752,33.224,86.205,32.721,85.770C32.218,85.335,31.512,85.046,30.590,85.046ZZ" style="font: medium sans-serif; stroke-opacity: 1; vector-effect: none; stroke: none; word-spacing: normal; text-decoration: none solid; isolation: auto; baseline-shift: baseline; color: rgb(0, 0, 0); fill-rule: nonzero; text-transform: none; overflow: visible; image-rendering: auto; stroke-dashoffset: 0; text-anchor: start; font-feature-settings: normal; text-indent: 0px; writing-mode: lr-tb; letter-spacing: normal; color-rendering: auto; text-orientation: mixed; opacity: 1; mix-blend-mode: normal; stroke-linejoin: miter; stroke-dasharray: none; white-space: normal; stroke-miterlimit: 4; text-align: start; display: inline; shape-rendering: auto; text-rendering: auto; dominant-baseline: auto; stroke-linecap: butt; visibility: visible; direction: ltr; color-interpolation: srgb; clip-rule: nonzero; color-interpolation-filters: linearrgb; fill: rgb(49, 239, 184); fill-opacity: 1;"/></g><g id="strokes-2b72b8b4-24d7-11ec-a597-6bd30b8da739" class="strokes"><g class="stroke-shape"><path rx="0" ry="0" d="m30.590,85.046C29.667,85.046,28.977,85.342,28.506,85.785C28.035,86.229,27.779,86.775,27.546,87.261C27.313,87.747,27.103,88.173,26.820,88.454C26.538,88.734,26.197,88.915,25.512,88.915L25.512,89.900C26.399,89.900,27.065,89.597,27.513,89.152C27.961,88.707,28.204,88.167,28.435,87.686C28.665,87.205,28.882,86.785,29.181,86.503C29.481,86.221,29.859,86.031,30.590,86.031C31.320,86.031,31.743,86.226,32.079,86.516C32.415,86.807,32.662,87.227,32.902,87.697C33.142,88.168,33.367,88.683,33.741,89.123C34.115,89.563,34.690,89.900,35.426,89.900L35.426,88.915C34.953,88.915,34.734,88.770,34.491,88.484C34.248,88.199,34.033,87.746,33.779,87.249C33.526,86.752,33.224,86.205,32.721,85.770C32.218,85.335,31.512,85.046,30.590,85.046ZZ" style="font: medium sans-serif; stroke-opacity: 1; vector-effect: none; stroke: none; word-spacing: normal; text-decoration: none solid; isolation: auto; baseline-shift: baseline; color: rgb(0, 0, 0); fill-rule: nonzero; text-transform: none; overflow: visible; image-rendering: auto; stroke-dashoffset: 0; text-anchor: start; font-feature-settings: normal; text-indent: 0px; writing-mode: lr-tb; letter-spacing: normal; color-rendering: auto; text-orientation: mixed; opacity: 1; mix-blend-mode: normal; stroke-linejoin: miter; stroke-dasharray: none; white-space: normal; stroke-miterlimit: 4; text-align: start; display: inline; shape-rendering: auto; text-rendering: auto; dominant-baseline: auto; stroke-linecap: butt; visibility: visible; direction: ltr; color-interpolation: srgb; clip-rule: nonzero; color-interpolation-filters: linearrgb; fill: none; stroke-width: 0.999998;"/></g></g></g><g id="shape-2b732de0-24d7-11ec-a597-6bd30b8da739"><g class="fills" id="fills-2b732de0-24d7-11ec-a597-6bd30b8da739"><path rx="0" ry="0" d="m50.691,5.966C46.212,5.966,44.345,6.149,40.811,6.936C36.876,7.812,33.838,8.902,30.107,10.774C22.117,14.782,15.573,20.916,10.963,28.715C6.501,36.263,4.273,45.515,4.814,54.251C5.251,61.305,7.121,67.879,10.371,73.751C14.841,81.827,21.085,88.025,29.070,92.305C30.068,92.840,31.046,93.348,31.515,93.544C31.833,93.678,32.654,94.018,33.345,94.304C33.741,94.468,34.148,94.609,34.520,94.714C34.892,94.819,35.184,94.899,35.565,94.901L35.567,94.901C36.186,94.904,36.756,94.718,37.281,94.447C37.806,94.176,38.286,93.824,38.632,93.304C39.171,92.492,39.497,91.287,41.131,86.022C41.765,83.977,44.920,73.909,45.498,72.083C46.725,68.211,47.353,66.234,47.603,64.945C47.728,64.300,47.765,63.791,47.663,63.306C47.560,62.821,47.321,62.454,47.122,62.169C46.690,61.548,46.034,61.038,45.325,60.572C42.251,58.549,40.458,55.315,40.461,51.895C40.466,47.147,43.344,43.321,47.946,41.959C50.905,41.083,54.574,41.805,57.011,43.752C62.640,48.250,62.182,56.541,56.055,60.572C55.300,61.068,54.717,61.549,54.297,62.124C53.876,62.700,53.656,63.389,53.656,64.069C53.656,64.672,53.821,65.298,54.160,66.501C54.498,67.704,55.029,69.417,55.811,71.863C56.241,73.210,59.197,82.638,60.249,86.022C61.387,89.680,61.939,91.488,62.408,92.580C62.876,93.673,63.561,94.188,64.111,94.472C64.705,94.778,65.409,94.927,66.135,94.847C66.860,94.766,67.604,94.509,68.561,94.102C77.080,90.480,84.194,84.517,89.170,76.821C93.637,69.913,96.053,62.540,96.566,54.251C97.107,45.515,94.879,36.263,90.417,28.715C85.807,20.916,79.263,14.782,71.274,10.774C67.542,8.902,64.504,7.812,60.569,6.936C57.035,6.149,55.170,5.966,50.691,5.966ZZM50.691,7.936C55.120,7.936,56.682,8.090,60.141,8.860C63.952,9.708,66.765,10.716,70.390,12.534C78.046,16.375,84.297,22.231,88.722,29.717C92.970,36.904,95.114,45.813,94.599,54.128C94.105,62.110,91.813,69.106,87.515,75.752C82.752,83.118,75.958,88.815,67.791,92.288C66.909,92.663,66.308,92.845,65.917,92.888C65.526,92.932,65.341,92.890,65.013,92.721C64.457,92.434,64.591,92.672,64.218,91.803C63.846,90.934,63.268,89.095,62.131,85.437C61.076,82.045,58.133,72.661,57.686,71.265C56.907,68.828,56.382,67.125,56.057,65.968C55.731,64.812,55.626,64.133,55.626,64.069C55.626,63.753,55.681,63.568,55.888,63.286C56.094,63.004,56.490,62.645,57.138,62.219C64.283,57.519,64.848,47.493,58.241,42.213C55.255,39.828,51.029,38.992,47.386,40.070C42.017,41.659,38.497,46.331,38.491,51.893C38.487,56.005,40.654,59.857,44.244,62.219C44.774,62.567,45.459,63.229,45.506,63.296C45.679,63.545,45.713,63.609,45.735,63.712C45.757,63.815,45.770,64.052,45.669,64.570C45.469,65.604,44.846,67.618,43.620,71.488C43.035,73.336,39.889,83.375,39.249,85.437C37.618,90.694,37.055,92.117,36.991,92.215C36.924,92.315,36.673,92.543,36.377,92.696C36.081,92.849,35.740,92.931,35.576,92.931C35.617,92.931,35.344,92.898,35.055,92.817C34.767,92.736,34.419,92.617,34.099,92.484C33.410,92.199,32.586,91.856,32.277,91.726C32.118,91.660,30.972,91.088,30.001,90.568C22.336,86.459,16.396,80.568,12.095,72.796C8.991,67.190,7.201,60.912,6.781,54.128C6.266,45.813,8.410,36.904,12.658,29.717C17.083,22.231,23.334,16.375,30.990,12.534C34.615,10.716,37.428,9.708,41.239,8.860C44.698,8.090,46.262,7.936,50.691,7.936ZZ" style="font: medium sans-serif; stroke-opacity: 1; vector-effect: none; stroke: none; word-spacing: normal; text-decoration: none solid; isolation: auto; baseline-shift: baseline; color: rgb(0, 0, 0); fill-rule: nonzero; text-transform: none; overflow: visible; image-rendering: auto; stroke-dashoffset: 0; text-anchor: start; font-feature-settings: normal; text-indent: 0px; writing-mode: lr-tb; letter-spacing: normal; color-rendering: auto; text-orientation: mixed; opacity: 1; mix-blend-mode: normal; stroke-linejoin: miter; stroke-dasharray: none; white-space: normal; stroke-miterlimit: 4; text-align: start; display: inline; shape-rendering: auto; text-rendering: auto; dominant-baseline: auto; stroke-linecap: butt; visibility: visible; direction: ltr; color-interpolation: srgb; clip-rule: nonzero; color-interpolation-filters: linearrgb; fill: rgb(49, 239, 184); fill-opacity: 1;"/></g><g id="strokes-2b732de0-24d7-11ec-a597-6bd30b8da739" class="strokes"><g class="stroke-shape"><path rx="0" ry="0" d="m50.691,5.966C46.212,5.966,44.345,6.149,40.811,6.936C36.876,7.812,33.838,8.902,30.107,10.774C22.117,14.782,15.573,20.916,10.963,28.715C6.501,36.263,4.273,45.515,4.814,54.251C5.251,61.305,7.121,67.879,10.371,73.751C14.841,81.827,21.085,88.025,29.070,92.305C30.068,92.840,31.046,93.348,31.515,93.544C31.833,93.678,32.654,94.018,33.345,94.304C33.741,94.468,34.148,94.609,34.520,94.714C34.892,94.819,35.184,94.899,35.565,94.901L35.567,94.901C36.186,94.904,36.756,94.718,37.281,94.447C37.806,94.176,38.286,93.824,38.632,93.304C39.171,92.492,39.497,91.287,41.131,86.022C41.765,83.977,44.920,73.909,45.498,72.083C46.725,68.211,47.353,66.234,47.603,64.945C47.728,64.300,47.765,63.791,47.663,63.306C47.560,62.821,47.321,62.454,47.122,62.169C46.690,61.548,46.034,61.038,45.325,60.572C42.251,58.549,40.458,55.315,40.461,51.895C40.466,47.147,43.344,43.321,47.946,41.959C50.905,41.083,54.574,41.805,57.011,43.752C62.640,48.250,62.182,56.541,56.055,60.572C55.300,61.068,54.717,61.549,54.297,62.124C53.876,62.700,53.656,63.389,53.656,64.069C53.656,64.672,53.821,65.298,54.160,66.501C54.498,67.704,55.029,69.417,55.811,71.863C56.241,73.210,59.197,82.638,60.249,86.022C61.387,89.680,61.939,91.488,62.408,92.580C62.876,93.673,63.561,94.188,64.111,94.472C64.705,94.778,65.409,94.927,66.135,94.847C66.860,94.766,67.604,94.509,68.561,94.102C77.080,90.480,84.194,84.517,89.170,76.821C93.637,69.913,96.053,62.540,96.566,54.251C97.107,45.515,94.879,36.263,90.417,28.715C85.807,20.916,79.263,14.782,71.274,10.774C67.542,8.902,64.504,7.812,60.569,6.936C57.035,6.149,55.170,5.966,50.691,5.966ZZM50.691,7.936C55.120,7.936,56.682,8.090,60.141,8.860C63.952,9.708,66.765,10.716,70.390,12.534C78.046,16.375,84.297,22.231,88.722,29.717C92.970,36.904,95.114,45.813,94.599,54.128C94.105,62.110,91.813,69.106,87.515,75.752C82.752,83.118,75.958,88.815,67.791,92.288C66.909,92.663,66.308,92.845,65.917,92.888C65.526,92.932,65.341,92.890,65.013,92.721C64.457,92.434,64.591,92.672,64.218,91.803C63.846,90.934,63.268,89.095,62.131,85.437C61.076,82.045,58.133,72.661,57.686,71.265C56.907,68.828,56.382,67.125,56.057,65.968C55.731,64.812,55.626,64.133,55.626,64.069C55.626,63.753,55.681,63.568,55.888,63.286C56.094,63.004,56.490,62.645,57.138,62.219C64.283,57.519,64.848,47.493,58.241,42.213C55.255,39.828,51.029,38.992,47.386,40.070C42.017,41.659,38.497,46.331,38.491,51.893C38.487,56.005,40.654,59.857,44.244,62.219C44.774,62.567,45.459,63.229,45.506,63.296C45.679,63.545,45.713,63.609,45.735,63.712C45.757,63.815,45.770,64.052,45.669,64.570C45.469,65.604,44.846,67.618,43.620,71.488C43.035,73.336,39.889,83.375,39.249,85.437C37.618,90.694,37.055,92.117,36.991,92.215C36.924,92.315,36.673,92.543,36.377,92.696C36.081,92.849,35.740,92.931,35.576,92.931C35.617,92.931,35.344,92.898,35.055,92.817C34.767,92.736,34.419,92.617,34.099,92.484C33.410,92.199,32.586,91.856,32.277,91.726C32.118,91.660,30.972,91.088,30.001,90.568C22.336,86.459,16.396,80.568,12.095,72.796C8.991,67.190,7.201,60.912,6.781,54.128C6.266,45.813,8.410,36.904,12.658,29.717C17.083,22.231,23.334,16.375,30.990,12.534C34.615,10.716,37.428,9.708,41.239,8.860C44.698,8.090,46.262,7.936,50.691,7.936ZZ" style="font: medium sans-serif; stroke-opacity: 1; vector-effect: none; stroke: none; word-spacing: normal; text-decoration: none solid; isolation: auto; baseline-shift: baseline; color: rgb(0, 0, 0); fill-rule: nonzero; text-transform: none; overflow: visible; image-rendering: auto; stroke-dashoffset: 0; text-anchor: start; font-feature-settings: normal; text-indent: 0px; writing-mode: lr-tb; letter-spacing: normal; color-rendering: auto; text-orientation: mixed; opacity: 1; mix-blend-mode: normal; stroke-linejoin: miter; stroke-dasharray: none; white-space: normal; stroke-miterlimit: 4; text-align: start; display: inline; shape-rendering: auto; text-rendering: auto; dominant-baseline: auto; stroke-linecap: butt; visibility: visible; direction: ltr; color-interpolation: srgb; clip-rule: nonzero; color-interpolation-filters: linearrgb; fill: none; stroke-width: 2;"/></g></g></g></g><g id="shape-2b732de1-24d7-11ec-a597-6bd30b8da739" rx="0" ry="0" style="fill: rgb(0, 0, 0);"><g id="shape-2b732de2-24d7-11ec-a597-6bd30b8da739"><g class="fills" id="fills-2b732de2-24d7-11ec-a597-6bd30b8da739"><path rx="0" ry="0" d="m3.558,30.056L3.558,73.256L5.528,73.256L5.528,30.056Z" style="font: medium sans-serif; stroke-opacity: 1; vector-effect: none; stroke: none; word-spacing: normal; text-decoration: none solid; isolation: auto; baseline-shift: baseline; color: rgb(0, 0, 0); fill-rule: nonzero; text-transform: none; overflow: visible; image-rendering: auto; stroke-dashoffset: 0; text-anchor: start; font-feature-settings: normal; text-indent: 0px; writing-mode: lr-tb; letter-spacing: normal; color-rendering: auto; text-orientation: mixed; opacity: 1; mix-blend-mode: normal; stroke-linejoin: miter; stroke-dasharray: none; white-space: normal; stroke-miterlimit: 4; text-align: start; display: inline; shape-rendering: auto; text-rendering: auto; dominant-baseline: auto; stroke-linecap: butt; visibility: visible; direction: ltr; color-interpolation: srgb; clip-rule: nonzero; color-interpolation-filters: linearrgb; fill: rgb(0, 0, 0); fill-opacity: 1;"/></g><g id="strokes-2b732de2-24d7-11ec-a597-6bd30b8da739" class="strokes"><g class="stroke-shape"><path rx="0" ry="0" d="m3.558,30.056L3.558,73.256L5.528,73.256L5.528,30.056Z" style="font: medium sans-serif; stroke-opacity: 1; vector-effect: none; stroke: none; word-spacing: normal; text-decoration: none solid; isolation: auto; baseline-shift: baseline; color: rgb(0, 0, 0); fill-rule: nonzero; text-transform: none; overflow: visible; image-rendering: auto; stroke-dashoffset: 0; text-anchor: start; font-feature-settings: normal; text-indent: 0px; writing-mode: lr-tb; letter-spacing: normal; color-rendering: auto; text-orientation: mixed; opacity: 1; mix-blend-mode: normal; stroke-linejoin: miter; stroke-dasharray: none; white-space: normal; stroke-miterlimit: 4; text-align: start; display: inline; shape-rendering: auto; text-rendering: auto; dominant-baseline: auto; stroke-linecap: butt; visibility: visible; direction: ltr; color-interpolation: srgb; clip-rule: nonzero; color-interpolation-filters: linearrgb; fill: none; stroke-width: 2;"/></g></g></g><g id="shape-2b732de3-24d7-11ec-a597-6bd30b8da739"><g class="fills" id="fills-2b732de3-24d7-11ec-a597-6bd30b8da739"><rect rx="0" ry="0" x="1" y="48" transform="matrix(1.000000, -0.000000, -0.000000, 1.000000, -0.000000, -0.000001)" width="8" height="8" style="stroke: none; stroke-miterlimit: 4; stroke-dasharray: none; stroke-opacity: 1; paint-order: markers; fill: rgb(255, 255, 255); fill-opacity: 1;"/></g><g id="strokes-2b732de3-24d7-11ec-a597-6bd30b8da739" class="strokes"><g class="stroke-shape"><rect rx="0" ry="0" x="1" y="48" transform="matrix(1.000000, -0.000000, -0.000000, 1.000000, -0.000000, -0.000001)" width="8" height="8" style="stroke: none; stroke-miterlimit: 4; stroke-dasharray: none; stroke-opacity: 1; paint-order: markers; fill: none; stroke-width: 2;"/></g></g></g><g id="shape-2b732de4-24d7-11ec-a597-6bd30b8da739"><g class="fills" id="fills-2b732de4-24d7-11ec-a597-6bd30b8da739"><path rx="0" ry="0" d="m4.543,23.124C2.109,23.124,0.112,25.118,0.112,27.553C0.112,29.987,2.109,31.982,4.543,31.982C6.978,31.982,8.972,29.987,8.972,27.553C8.972,25.118,6.978,23.124,4.543,23.124ZZM4.543,25.094C5.913,25.094,7.002,26.183,7.002,27.553C7.002,28.923,5.913,30.012,4.543,30.012C3.173,30.012,2.082,28.923,2.082,27.553C2.082,26.183,3.173,25.094,4.543,25.094ZZ" style="font: medium sans-serif; stroke-opacity: 1; vector-effect: none; stroke: none; word-spacing: normal; text-decoration: none solid; isolation: auto; baseline-shift: baseline; color: rgb(0, 0, 0); fill-rule: nonzero; text-transform: none; overflow: visible; paint-order: markers; image-rendering: auto; stroke-dashoffset: 0; text-anchor: start; font-feature-settings: normal; text-indent: 0px; writing-mode: lr-tb; letter-spacing: normal; color-rendering: auto; text-orientation: mixed; opacity: 1; mix-blend-mode: normal; stroke-linejoin: miter; stroke-dasharray: none; white-space: normal; stroke-miterlimit: 4; text-align: start; display: inline; shape-rendering: auto; text-rendering: auto; dominant-baseline: auto; stroke-linecap: butt; visibility: visible; direction: ltr; color-interpolation: srgb; clip-rule: nonzero; color-interpolation-filters: linearrgb; fill: rgb(0, 0, 0); fill-opacity: 1;"/></g><g id="strokes-2b732de4-24d7-11ec-a597-6bd30b8da739" class="strokes"><g class="stroke-shape"><path rx="0" ry="0" d="m4.543,23.124C2.109,23.124,0.112,25.118,0.112,27.553C0.112,29.987,2.109,31.982,4.543,31.982C6.978,31.982,8.972,29.987,8.972,27.553C8.972,25.118,6.978,23.124,4.543,23.124ZZM4.543,25.094C5.913,25.094,7.002,26.183,7.002,27.553C7.002,28.923,5.913,30.012,4.543,30.012C3.173,30.012,2.082,28.923,2.082,27.553C2.082,26.183,3.173,25.094,4.543,25.094ZZ" style="font: medium sans-serif; stroke-opacity: 1; vector-effect: none; stroke: none; word-spacing: normal; text-decoration: none solid; isolation: auto; baseline-shift: baseline; color: rgb(0, 0, 0); fill-rule: nonzero; text-transform: none; overflow: visible; paint-order: markers; image-rendering: auto; stroke-dashoffset: 0; text-anchor: start; font-feature-settings: normal; text-indent: 0px; writing-mode: lr-tb; letter-spacing: normal; color-rendering: auto; text-orientation: mixed; opacity: 1; mix-blend-mode: normal; stroke-linejoin: miter; stroke-dasharray: none; white-space: normal; stroke-miterlimit: 4; text-align: start; display: inline; shape-rendering: auto; text-rendering: auto; dominant-baseline: auto; stroke-linecap: butt; visibility: visible; direction: ltr; color-interpolation: srgb; clip-rule: nonzero; color-interpolation-filters: linearrgb; fill: none; stroke-width: 2;"/></g></g></g><g id="shape-2b732de5-24d7-11ec-a597-6bd30b8da739"><g class="fills" id="fills-2b732de5-24d7-11ec-a597-6bd30b8da739"><path rx="0" ry="0" d="m4.543,71.600C2.109,71.600,0.112,73.594,0.112,76.029C0.112,78.463,2.109,80.460,4.543,80.460C6.978,80.460,8.972,78.463,8.972,76.029C8.972,73.594,6.978,71.600,4.543,71.600ZZM4.543,73.570C5.913,73.570,7.002,74.659,7.002,76.029C7.002,77.398,5.913,78.489,4.543,78.489C3.173,78.489,2.082,77.398,2.082,76.029C2.082,74.659,3.173,73.570,4.543,73.570ZZ" style="font: medium sans-serif; stroke-opacity: 1; vector-effect: none; stroke: none; word-spacing: normal; text-decoration: none solid; isolation: auto; baseline-shift: baseline; color: rgb(0, 0, 0); fill-rule: nonzero; text-transform: none; overflow: visible; paint-order: markers; image-rendering: auto; stroke-dashoffset: 0; text-anchor: start; font-feature-settings: normal; text-indent: 0px; writing-mode: lr-tb; letter-spacing: normal; color-rendering: auto; text-orientation: mixed; opacity: 1; mix-blend-mode: normal; stroke-linejoin: miter; stroke-dasharray: none; white-space: normal; stroke-miterlimit: 4; text-align: start; display: inline; shape-rendering: auto; text-rendering: auto; dominant-baseline: auto; stroke-linecap: butt; visibility: visible; direction: ltr; color-interpolation: srgb; clip-rule: nonzero; color-interpolation-filters: linearrgb; fill: rgb(0, 0, 0); fill-opacity: 1;"/></g><g id="strokes-2b732de5-24d7-11ec-a597-6bd30b8da739" class="strokes"><g class="stroke-shape"><path rx="0" ry="0" d="m4.543,71.600C2.109,71.600,0.112,73.594,0.112,76.029C0.112,78.463,2.109,80.460,4.543,80.460C6.978,80.460,8.972,78.463,8.972,76.029C8.972,73.594,6.978,71.600,4.543,71.600ZZM4.543,73.570C5.913,73.570,7.002,74.659,7.002,76.029C7.002,77.398,5.913,78.489,4.543,78.489C3.173,78.489,2.082,77.398,2.082,76.029C2.082,74.659,3.173,73.570,4.543,73.570ZZ" style="font: medium sans-serif; stroke-opacity: 1; vector-effect: none; stroke: none; word-spacing: normal; text-decoration: none solid; isolation: auto; baseline-shift: baseline; color: rgb(0, 0, 0); fill-rule: nonzero; text-transform: none; overflow: visible; paint-order: markers; image-rendering: auto; stroke-dashoffset: 0; text-anchor: start; font-feature-settings: normal; text-indent: 0px; writing-mode: lr-tb; letter-spacing: normal; color-rendering: auto; text-orientation: mixed; opacity: 1; mix-blend-mode: normal; stroke-linejoin: miter; stroke-dasharray: none; white-space: normal; stroke-miterlimit: 4; text-align: start; display: inline; shape-rendering: auto; text-rendering: auto; dominant-baseline: auto; stroke-linecap: butt; visibility: visible; direction: ltr; color-interpolation: srgb; clip-rule: nonzero; color-interpolation-filters: linearrgb; fill: none; stroke-width: 2;"/></g></g></g><g id="shape-2b732de6-24d7-11ec-a597-6bd30b8da739"><g class="fills" id="fills-2b732de6-24d7-11ec-a597-6bd30b8da739"><path rx="0" ry="0" d="m-0.351,46.581L-0.351,47.566L-0.351,56.554L9.438,56.554L9.438,46.581ZM1.619,48.551L7.467,48.551L7.467,54.584L1.619,54.584Z" style="font: medium sans-serif; stroke-opacity: 1; vector-effect: none; stroke: none; word-spacing: normal; text-decoration: none solid; isolation: auto; baseline-shift: baseline; color: rgb(0, 0, 0); fill-rule: nonzero; text-transform: none; overflow: visible; paint-order: markers; image-rendering: auto; stroke-dashoffset: 0; text-anchor: start; font-feature-settings: normal; text-indent: 0px; writing-mode: lr-tb; letter-spacing: normal; color-rendering: auto; text-orientation: mixed; opacity: 1; mix-blend-mode: normal; stroke-linejoin: miter; stroke-dasharray: none; white-space: normal; stroke-miterlimit: 4; text-align: start; display: inline; shape-rendering: auto; text-rendering: auto; dominant-baseline: auto; stroke-linecap: butt; visibility: visible; direction: ltr; color-interpolation: srgb; clip-rule: nonzero; color-interpolation-filters: linearrgb; fill: rgb(242, 58, 229); fill-opacity: 1;"/></g><g id="strokes-2b732de6-24d7-11ec-a597-6bd30b8da739" class="strokes"><g class="stroke-shape"><path rx="0" ry="0" d="m-0.351,46.581L-0.351,47.566L-0.351,56.554L9.438,56.554L9.438,46.581ZM1.619,48.551L7.467,48.551L7.467,54.584L1.619,54.584Z" style="font: medium sans-serif; stroke-opacity: 1; vector-effect: none; stroke: none; word-spacing: normal; text-decoration: none solid; isolation: auto; baseline-shift: baseline; color: rgb(0, 0, 0); fill-rule: nonzero; text-transform: none; overflow: visible; paint-order: markers; image-rendering: auto; stroke-dashoffset: 0; text-anchor: start; font-feature-settings: normal; text-indent: 0px; writing-mode: lr-tb; letter-spacing: normal; color-rendering: auto; text-orientation: mixed; opacity: 1; mix-blend-mode: normal; stroke-linejoin: miter; stroke-dasharray: none; white-space: normal; stroke-miterlimit: 4; text-align: start; display: inline; shape-rendering: auto; text-rendering: auto; dominant-baseline: auto; stroke-linecap: butt; visibility: visible; direction: ltr; color-interpolation: srgb; clip-rule: nonzero; color-interpolation-filters: linearrgb; fill: none; stroke-width: 2;"/></g></g></g></g><g id="shape-2b732de7-24d7-11ec-a597-6bd30b8da739" rx="0" ry="0" style="fill: rgb(0, 0, 0);"><g id="shape-2b732de8-24d7-11ec-a597-6bd30b8da739"><g class="fills" id="fills-2b732de8-24d7-11ec-a597-6bd30b8da739"><path rx="0" ry="0" d="m71.982,4.264L28.781,4.264L28.781,6.235L71.982,6.235Z" style="font: medium sans-serif; stroke-opacity: 1; vector-effect: none; stroke: none; word-spacing: normal; text-decoration: none solid; isolation: auto; baseline-shift: baseline; color: rgb(0, 0, 0); fill-rule: nonzero; text-transform: none; overflow: visible; image-rendering: auto; stroke-dashoffset: 0; text-anchor: start; font-feature-settings: normal; text-indent: 0px; writing-mode: lr-tb; letter-spacing: normal; color-rendering: auto; text-orientation: mixed; opacity: 1; mix-blend-mode: normal; stroke-linejoin: miter; stroke-dasharray: none; white-space: normal; stroke-miterlimit: 4; text-align: start; display: inline; shape-rendering: auto; text-rendering: auto; dominant-baseline: auto; stroke-linecap: butt; visibility: visible; direction: ltr; color-interpolation: srgb; clip-rule: nonzero; color-interpolation-filters: linearrgb; fill: rgb(0, 0, 0); fill-opacity: 1;"/></g><g id="strokes-2b732de8-24d7-11ec-a597-6bd30b8da739" class="strokes"><g class="stroke-shape"><path rx="0" ry="0" d="m71.982,4.264L28.781,4.264L28.781,6.235L71.982,6.235Z" style="font: medium sans-serif; stroke-opacity: 1; vector-effect: none; stroke: none; word-spacing: normal; text-decoration: none solid; isolation: auto; baseline-shift: baseline; color: rgb(0, 0, 0); fill-rule: nonzero; text-transform: none; overflow: visible; image-rendering: auto; stroke-dashoffset: 0; text-anchor: start; font-feature-settings: normal; text-indent: 0px; writing-mode: lr-tb; letter-spacing: normal; color-rendering: auto; text-orientation: mixed; opacity: 1; mix-blend-mode: normal; stroke-linejoin: miter; stroke-dasharray: none; white-space: normal; stroke-miterlimit: 4; text-align: start; display: inline; shape-rendering: auto; text-rendering: auto; dominant-baseline: auto; stroke-linecap: butt; visibility: visible; direction: ltr; color-interpolation: srgb; clip-rule: nonzero; color-interpolation-filters: linearrgb; fill: none; stroke-width: 2;"/></g></g></g><g id="shape-2b732de9-24d7-11ec-a597-6bd30b8da739"><g class="fills" id="fills-2b732de9-24d7-11ec-a597-6bd30b8da739"><rect rx="0" ry="0" x="47" y="1" transform="matrix(0.000000, 1.000000, -1.000000, -0.000000, 56.000000, -46.000001)" width="8" height="8" style="stroke: none; stroke-miterlimit: 4; stroke-dasharray: none; stroke-opacity: 1; paint-order: markers; fill: rgb(255, 255, 255); fill-opacity: 1;"/></g><g id="strokes-2b732de9-24d7-11ec-a597-6bd30b8da739" class="strokes"><g class="stroke-shape"><rect rx="0" ry="0" x="47" y="1" transform="matrix(0.000000, 1.000000, -1.000000, -0.000000, 56.000000, -46.000001)" width="8" height="8" style="stroke: none; stroke-miterlimit: 4; stroke-dasharray: none; stroke-opacity: 1; paint-order: markers; fill: none; stroke-width: 2;"/></g></g></g><g id="shape-2b732dea-24d7-11ec-a597-6bd30b8da739"><g class="fills" id="fills-2b732dea-24d7-11ec-a597-6bd30b8da739"><path rx="0" ry="0" d="m78.914,5.250C78.914,2.815,76.919,0.819,74.485,0.819C72.050,0.819,70.056,2.815,70.056,5.250C70.056,7.684,72.050,9.678,74.485,9.678C76.919,9.678,78.914,7.684,78.914,5.250ZZM76.944,5.250C76.944,6.619,75.854,7.708,74.485,7.708C73.115,7.708,72.026,6.619,72.026,5.250C72.026,3.880,73.115,2.789,74.485,2.789C75.854,2.789,76.944,3.880,76.944,5.250ZZ" style="font: medium sans-serif; stroke-opacity: 1; vector-effect: none; stroke: none; word-spacing: normal; text-decoration: none solid; isolation: auto; baseline-shift: baseline; color: rgb(0, 0, 0); fill-rule: nonzero; text-transform: none; overflow: visible; paint-order: markers; image-rendering: auto; stroke-dashoffset: 0; text-anchor: start; font-feature-settings: normal; text-indent: 0px; writing-mode: lr-tb; letter-spacing: normal; color-rendering: auto; text-orientation: mixed; opacity: 1; mix-blend-mode: normal; stroke-linejoin: miter; stroke-dasharray: none; white-space: normal; stroke-miterlimit: 4; text-align: start; display: inline; shape-rendering: auto; text-rendering: auto; dominant-baseline: auto; stroke-linecap: butt; visibility: visible; direction: ltr; color-interpolation: srgb; clip-rule: nonzero; color-interpolation-filters: linearrgb; fill: rgb(0, 0, 0); fill-opacity: 1;"/></g><g id="strokes-2b732dea-24d7-11ec-a597-6bd30b8da739" class="strokes"><g class="stroke-shape"><path rx="0" ry="0" d="m78.914,5.250C78.914,2.815,76.919,0.819,74.485,0.819C72.050,0.819,70.056,2.815,70.056,5.250C70.056,7.684,72.050,9.678,74.485,9.678C76.919,9.678,78.914,7.684,78.914,5.250ZZM76.944,5.250C76.944,6.619,75.854,7.708,74.485,7.708C73.115,7.708,72.026,6.619,72.026,5.250C72.026,3.880,73.115,2.789,74.485,2.789C75.854,2.789,76.944,3.880,76.944,5.250ZZ" style="font: medium sans-serif; stroke-opacity: 1; vector-effect: none; stroke: none; word-spacing: normal; text-decoration: none solid; isolation: auto; baseline-shift: baseline; color: rgb(0, 0, 0); fill-rule: nonzero; text-transform: none; overflow: visible; paint-order: markers; image-rendering: auto; stroke-dashoffset: 0; text-anchor: start; font-feature-settings: normal; text-indent: 0px; writing-mode: lr-tb; letter-spacing: normal; color-rendering: auto; text-orientation: mixed; opacity: 1; mix-blend-mode: normal; stroke-linejoin: miter; stroke-dasharray: none; white-space: normal; stroke-miterlimit: 4; text-align: start; display: inline; shape-rendering: auto; text-rendering: auto; dominant-baseline: auto; stroke-linecap: butt; visibility: visible; direction: ltr; color-interpolation: srgb; clip-rule: nonzero; color-interpolation-filters: linearrgb; fill: none; stroke-width: 2;"/></g></g></g><g id="shape-2b732deb-24d7-11ec-a597-6bd30b8da739"><g class="fills" id="fills-2b732deb-24d7-11ec-a597-6bd30b8da739"><path rx="0" ry="0" d="m30.438,5.250C30.438,2.815,28.443,0.819,26.009,0.819C23.574,0.819,21.578,2.815,21.578,5.250C21.578,7.684,23.574,9.678,26.009,9.678C28.443,9.678,30.438,7.684,30.438,5.250ZZM28.468,5.250C28.468,6.619,27.379,7.708,26.009,7.708C24.639,7.708,23.548,6.619,23.548,5.250C23.548,3.880,24.639,2.789,26.009,2.789C27.379,2.789,28.468,3.880,28.468,5.250ZZ" style="font: medium sans-serif; stroke-opacity: 1; vector-effect: none; stroke: none; word-spacing: normal; text-decoration: none solid; isolation: auto; baseline-shift: baseline; color: rgb(0, 0, 0); fill-rule: nonzero; text-transform: none; overflow: visible; paint-order: markers; image-rendering: auto; stroke-dashoffset: 0; text-anchor: start; font-feature-settings: normal; text-indent: 0px; writing-mode: lr-tb; letter-spacing: normal; color-rendering: auto; text-orientation: mixed; opacity: 1; mix-blend-mode: normal; stroke-linejoin: miter; stroke-dasharray: none; white-space: normal; stroke-miterlimit: 4; text-align: start; display: inline; shape-rendering: auto; text-rendering: auto; dominant-baseline: auto; stroke-linecap: butt; visibility: visible; direction: ltr; color-interpolation: srgb; clip-rule: nonzero; color-interpolation-filters: linearrgb; fill: rgb(0, 0, 0); fill-opacity: 1;"/></g><g id="strokes-2b732deb-24d7-11ec-a597-6bd30b8da739" class="strokes"><g class="stroke-shape"><path rx="0" ry="0" d="m30.438,5.250C30.438,2.815,28.443,0.819,26.009,0.819C23.574,0.819,21.578,2.815,21.578,5.250C21.578,7.684,23.574,9.678,26.009,9.678C28.443,9.678,30.438,7.684,30.438,5.250ZZM28.468,5.250C28.468,6.619,27.379,7.708,26.009,7.708C24.639,7.708,23.548,6.619,23.548,5.250C23.548,3.880,24.639,2.789,26.009,2.789C27.379,2.789,28.468,3.880,28.468,5.250ZZ" style="font: medium sans-serif; stroke-opacity: 1; vector-effect: none; stroke: none; word-spacing: normal; text-decoration: none solid; isolation: auto; baseline-shift: baseline; color: rgb(0, 0, 0); fill-rule: nonzero; text-transform: none; overflow: visible; paint-order: markers; image-rendering: auto; stroke-dashoffset: 0; text-anchor: start; font-feature-settings: normal; text-indent: 0px; writing-mode: lr-tb; letter-spacing: normal; color-rendering: auto; text-orientation: mixed; opacity: 1; mix-blend-mode: normal; stroke-linejoin: miter; stroke-dasharray: none; white-space: normal; stroke-miterlimit: 4; text-align: start; display: inline; shape-rendering: auto; text-rendering: auto; dominant-baseline: auto; stroke-linecap: butt; visibility: visible; direction: ltr; color-interpolation: srgb; clip-rule: nonzero; color-interpolation-filters: linearrgb; fill: none; stroke-width: 2;"/></g></g></g><g id="shape-2b732dec-24d7-11ec-a597-6bd30b8da739"><g class="fills" id="fills-2b732dec-24d7-11ec-a597-6bd30b8da739"><path rx="0" ry="0" d="m55.457,0.355L54.472,0.355L45.483,0.355L45.483,10.144L55.457,10.144ZM53.487,2.325L53.487,8.174L47.453,8.174L47.453,2.325Z" style="font: medium sans-serif; stroke-opacity: 1; vector-effect: none; stroke: none; word-spacing: normal; text-decoration: none solid; isolation: auto; baseline-shift: baseline; color: rgb(0, 0, 0); fill-rule: nonzero; text-transform: none; overflow: visible; paint-order: markers; image-rendering: auto; stroke-dashoffset: 0; text-anchor: start; font-feature-settings: normal; text-indent: 0px; writing-mode: lr-tb; letter-spacing: normal; color-rendering: auto; text-orientation: mixed; opacity: 1; mix-blend-mode: normal; stroke-linejoin: miter; stroke-dasharray: none; white-space: normal; stroke-miterlimit: 4; text-align: start; display: inline; shape-rendering: auto; text-rendering: auto; dominant-baseline: auto; stroke-linecap: butt; visibility: visible; direction: ltr; color-interpolation: srgb; clip-rule: nonzero; color-interpolation-filters: linearrgb; fill: rgb(242, 58, 229); fill-opacity: 1;"/></g><g id="strokes-2b732dec-24d7-11ec-a597-6bd30b8da739" class="strokes"><g class="stroke-shape"><path rx="0" ry="0" d="m55.457,0.355L54.472,0.355L45.483,0.355L45.483,10.144L55.457,10.144ZM53.487,2.325L53.487,8.174L47.453,8.174L47.453,2.325Z" style="font: medium sans-serif; stroke-opacity: 1; vector-effect: none; stroke: none; word-spacing: normal; text-decoration: none solid; isolation: auto; baseline-shift: baseline; color: rgb(0, 0, 0); fill-rule: nonzero; text-transform: none; overflow: visible; paint-order: markers; image-rendering: auto; stroke-dashoffset: 0; text-anchor: start; font-feature-settings: normal; text-indent: 0px; writing-mode: lr-tb; letter-spacing: normal; color-rendering: auto; text-orientation: mixed; opacity: 1; mix-blend-mode: normal; stroke-linejoin: miter; stroke-dasharray: none; white-space: normal; stroke-miterlimit: 4; text-align: start; display: inline; shape-rendering: auto; text-rendering: auto; dominant-baseline: auto; stroke-linecap: butt; visibility: visible; direction: ltr; color-interpolation: srgb; clip-rule: nonzero; color-interpolation-filters: linearrgb; fill: none; stroke-width: 2;"/></g></g></g></g><g id="shape-2b7354f0-24d7-11ec-a597-6bd30b8da739" rx="0" ry="0" style="fill: rgb(0, 0, 0);"><g id="shape-2b7354f1-24d7-11ec-a597-6bd30b8da739"><g class="fills" id="fills-2b7354f1-24d7-11ec-a597-6bd30b8da739"><path rx="0" ry="0" d="m94.964,30.056L94.964,73.256L96.934,73.256L96.934,30.056Z" style="font: medium sans-serif; stroke-opacity: 1; vector-effect: none; stroke: none; word-spacing: normal; text-decoration: none solid; isolation: auto; baseline-shift: baseline; color: rgb(0, 0, 0); fill-rule: nonzero; text-transform: none; overflow: visible; image-rendering: auto; stroke-dashoffset: 0; text-anchor: start; font-feature-settings: normal; text-indent: 0px; writing-mode: lr-tb; letter-spacing: normal; color-rendering: auto; text-orientation: mixed; opacity: 1; mix-blend-mode: normal; stroke-linejoin: miter; stroke-dasharray: none; white-space: normal; stroke-miterlimit: 4; text-align: start; display: inline; shape-rendering: auto; text-rendering: auto; dominant-baseline: auto; stroke-linecap: butt; visibility: visible; direction: ltr; color-interpolation: srgb; clip-rule: nonzero; color-interpolation-filters: linearrgb; fill: rgb(0, 0, 0); fill-opacity: 1;"/></g><g id="strokes-2b7354f1-24d7-11ec-a597-6bd30b8da739" class="strokes"><g class="stroke-shape"><path rx="0" ry="0" d="m94.964,30.056L94.964,73.256L96.934,73.256L96.934,30.056Z" style="font: medium sans-serif; stroke-opacity: 1; vector-effect: none; stroke: none; word-spacing: normal; text-decoration: none solid; isolation: auto; baseline-shift: baseline; color: rgb(0, 0, 0); fill-rule: nonzero; text-transform: none; overflow: visible; image-rendering: auto; stroke-dashoffset: 0; text-anchor: start; font-feature-settings: normal; text-indent: 0px; writing-mode: lr-tb; letter-spacing: normal; color-rendering: auto; text-orientation: mixed; opacity: 1; mix-blend-mode: normal; stroke-linejoin: miter; stroke-dasharray: none; white-space: normal; stroke-miterlimit: 4; text-align: start; display: inline; shape-rendering: auto; text-rendering: auto; dominant-baseline: auto; stroke-linecap: butt; visibility: visible; direction: ltr; color-interpolation: srgb; clip-rule: nonzero; color-interpolation-filters: linearrgb; fill: none; stroke-width: 2;"/></g></g></g><g id="shape-2b7354f2-24d7-11ec-a597-6bd30b8da739"><g class="fills" id="fills-2b7354f2-24d7-11ec-a597-6bd30b8da739"><rect rx="0" ry="0" x="92" y="48" transform="matrix(1.000000, -0.000000, 0.000000, 1.000000, -0.000004, 0.000001)" width="8" height="8" style="stroke: none; stroke-miterlimit: 4; stroke-dasharray: none; stroke-opacity: 1; paint-order: markers; fill: rgb(255, 255, 255); fill-opacity: 1;"/></g><g id="strokes-2b7354f2-24d7-11ec-a597-6bd30b8da739" class="strokes"><g class="stroke-shape"><rect rx="0" ry="0" x="92" y="48" transform="matrix(1.000000, -0.000000, 0.000000, 1.000000, -0.000004, 0.000001)" width="8" height="8" style="stroke: none; stroke-miterlimit: 4; stroke-dasharray: none; stroke-opacity: 1; paint-order: markers; fill: none; stroke-width: 2;"/></g></g></g><g id="shape-2b7354f3-24d7-11ec-a597-6bd30b8da739"><g class="fills" id="fills-2b7354f3-24d7-11ec-a597-6bd30b8da739"><path rx="0" ry="0" d="m95.949,23.124C93.515,23.124,91.519,25.118,91.519,27.553C91.519,29.987,93.515,31.982,95.949,31.982C98.384,31.982,100.378,29.987,100.378,27.553C100.378,25.118,98.384,23.124,95.949,23.124ZZM95.949,25.094C97.319,25.094,98.408,26.183,98.408,27.553C98.408,28.923,97.319,30.012,95.949,30.012C94.580,30.012,93.489,28.923,93.489,27.553C93.489,26.183,94.580,25.094,95.949,25.094ZZ" style="font: medium sans-serif; stroke-opacity: 1; vector-effect: none; stroke: none; word-spacing: normal; text-decoration: none solid; isolation: auto; baseline-shift: baseline; color: rgb(0, 0, 0); fill-rule: nonzero; text-transform: none; overflow: visible; paint-order: markers; image-rendering: auto; stroke-dashoffset: 0; text-anchor: start; font-feature-settings: normal; text-indent: 0px; writing-mode: lr-tb; letter-spacing: normal; color-rendering: auto; text-orientation: mixed; opacity: 1; mix-blend-mode: normal; stroke-linejoin: miter; stroke-dasharray: none; white-space: normal; stroke-miterlimit: 4; text-align: start; display: inline; shape-rendering: auto; text-rendering: auto; dominant-baseline: auto; stroke-linecap: butt; visibility: visible; direction: ltr; color-interpolation: srgb; clip-rule: nonzero; color-interpolation-filters: linearrgb; fill: rgb(0, 0, 0); fill-opacity: 1;"/></g><g id="strokes-2b7354f3-24d7-11ec-a597-6bd30b8da739" class="strokes"><g class="stroke-shape"><path rx="0" ry="0" d="m95.949,23.124C93.515,23.124,91.519,25.118,91.519,27.553C91.519,29.987,93.515,31.982,95.949,31.982C98.384,31.982,100.378,29.987,100.378,27.553C100.378,25.118,98.384,23.124,95.949,23.124ZZM95.949,25.094C97.319,25.094,98.408,26.183,98.408,27.553C98.408,28.923,97.319,30.012,95.949,30.012C94.580,30.012,93.489,28.923,93.489,27.553C93.489,26.183,94.580,25.094,95.949,25.094ZZ" style="font: medium sans-serif; stroke-opacity: 1; vector-effect: none; stroke: none; word-spacing: normal; text-decoration: none solid; isolation: auto; baseline-shift: baseline; color: rgb(0, 0, 0); fill-rule: nonzero; text-transform: none; overflow: visible; paint-order: markers; image-rendering: auto; stroke-dashoffset: 0; text-anchor: start; font-feature-settings: normal; text-indent: 0px; writing-mode: lr-tb; letter-spacing: normal; color-rendering: auto; text-orientation: mixed; opacity: 1; mix-blend-mode: normal; stroke-linejoin: miter; stroke-dasharray: none; white-space: normal; stroke-miterlimit: 4; text-align: start; display: inline; shape-rendering: auto; text-rendering: auto; dominant-baseline: auto; stroke-linecap: butt; visibility: visible; direction: ltr; color-interpolation: srgb; clip-rule: nonzero; color-interpolation-filters: linearrgb; fill: none; stroke-width: 2;"/></g></g></g><g id="shape-2b7354f4-24d7-11ec-a597-6bd30b8da739"><g class="fills" id="fills-2b7354f4-24d7-11ec-a597-6bd30b8da739"><path rx="0" ry="0" d="m95.949,71.600C93.515,71.600,91.519,73.594,91.519,76.029C91.519,78.463,93.515,80.460,95.949,80.460C98.384,80.460,100.378,78.463,100.378,76.029C100.378,73.594,98.384,71.600,95.949,71.600ZZM95.949,73.570C97.319,73.570,98.408,74.659,98.408,76.029C98.408,77.398,97.319,78.489,95.949,78.489C94.580,78.489,93.489,77.398,93.489,76.029C93.489,74.659,94.580,73.570,95.949,73.570ZZ" style="font: medium sans-serif; stroke-opacity: 1; vector-effect: none; stroke: none; word-spacing: normal; text-decoration: none solid; isolation: auto; baseline-shift: baseline; color: rgb(0, 0, 0); fill-rule: nonzero; text-transform: none; overflow: visible; paint-order: markers; image-rendering: auto; stroke-dashoffset: 0; text-anchor: start; font-feature-settings: normal; text-indent: 0px; writing-mode: lr-tb; letter-spacing: normal; color-rendering: auto; text-orientation: mixed; opacity: 1; mix-blend-mode: normal; stroke-linejoin: miter; stroke-dasharray: none; white-space: normal; stroke-miterlimit: 4; text-align: start; display: inline; shape-rendering: auto; text-rendering: auto; dominant-baseline: auto; stroke-linecap: butt; visibility: visible; direction: ltr; color-interpolation: srgb; clip-rule: nonzero; color-interpolation-filters: linearrgb; fill: rgb(0, 0, 0); fill-opacity: 1;"/></g><g id="strokes-2b7354f4-24d7-11ec-a597-6bd30b8da739" class="strokes"><g class="stroke-shape"><path rx="0" ry="0" d="m95.949,71.600C93.515,71.600,91.519,73.594,91.519,76.029C91.519,78.463,93.515,80.460,95.949,80.460C98.384,80.460,100.378,78.463,100.378,76.029C100.378,73.594,98.384,71.600,95.949,71.600ZZM95.949,73.570C97.319,73.570,98.408,74.659,98.408,76.029C98.408,77.398,97.319,78.489,95.949,78.489C94.580,78.489,93.489,77.398,93.489,76.029C93.489,74.659,94.580,73.570,95.949,73.570ZZ" style="font: medium sans-serif; stroke-opacity: 1; vector-effect: none; stroke: none; word-spacing: normal; text-decoration: none solid; isolation: auto; baseline-shift: baseline; color: rgb(0, 0, 0); fill-rule: nonzero; text-transform: none; overflow: visible; paint-order: markers; image-rendering: auto; stroke-dashoffset: 0; text-anchor: start; font-feature-settings: normal; text-indent: 0px; writing-mode: lr-tb; letter-spacing: normal; color-rendering: auto; text-orientation: mixed; opacity: 1; mix-blend-mode: normal; stroke-linejoin: miter; stroke-dasharray: none; white-space: normal; stroke-miterlimit: 4; text-align: start; display: inline; shape-rendering: auto; text-rendering: auto; dominant-baseline: auto; stroke-linecap: butt; visibility: visible; direction: ltr; color-interpolation: srgb; clip-rule: nonzero; color-interpolation-filters: linearrgb; fill: none; stroke-width: 2;"/></g></g></g><g id="shape-2b7354f5-24d7-11ec-a597-6bd30b8da739"><g class="fills" id="fills-2b7354f5-24d7-11ec-a597-6bd30b8da739"><path rx="0" ry="0" d="m91.055,46.581L91.055,47.566L91.055,56.554L100.844,56.554L100.844,46.581ZM93.025,48.551L98.874,48.551L98.874,54.584L93.025,54.584Z" style="font: medium sans-serif; stroke-opacity: 1; vector-effect: none; stroke: none; word-spacing: normal; text-decoration: none solid; isolation: auto; baseline-shift: baseline; color: rgb(0, 0, 0); fill-rule: nonzero; text-transform: none; overflow: visible; paint-order: markers; image-rendering: auto; stroke-dashoffset: 0; text-anchor: start; font-feature-settings: normal; text-indent: 0px; writing-mode: lr-tb; letter-spacing: normal; color-rendering: auto; text-orientation: mixed; opacity: 1; mix-blend-mode: normal; stroke-linejoin: miter; stroke-dasharray: none; white-space: normal; stroke-miterlimit: 4; text-align: start; display: inline; shape-rendering: auto; text-rendering: auto; dominant-baseline: auto; stroke-linecap: butt; visibility: visible; direction: ltr; color-interpolation: srgb; clip-rule: nonzero; color-interpolation-filters: linearrgb; fill: rgb(242, 58, 229); fill-opacity: 1;"/></g><g id="strokes-2b7354f5-24d7-11ec-a597-6bd30b8da739" class="strokes"><g class="stroke-shape"><path rx="0" ry="0" d="m91.055,46.581L91.055,47.566L91.055,56.554L100.844,56.554L100.844,46.581ZM93.025,48.551L98.874,48.551L98.874,54.584L93.025,54.584Z" style="font: medium sans-serif; stroke-opacity: 1; vector-effect: none; stroke: none; word-spacing: normal; text-decoration: none solid; isolation: auto; baseline-shift: baseline; color: rgb(0, 0, 0); fill-rule: nonzero; text-transform: none; overflow: visible; paint-order: markers; image-rendering: auto; stroke-dashoffset: 0; text-anchor: start; font-feature-settings: normal; text-indent: 0px; writing-mode: lr-tb; letter-spacing: normal; color-rendering: auto; text-orientation: mixed; opacity: 1; mix-blend-mode: normal; stroke-linejoin: miter; stroke-dasharray: none; white-space: normal; stroke-miterlimit: 4; text-align: start; display: inline; shape-rendering: auto; text-rendering: auto; dominant-baseline: auto; stroke-linecap: butt; visibility: visible; direction: ltr; color-interpolation: srgb; clip-rule: nonzero; color-interpolation-filters: linearrgb; fill: none; stroke-width: 2;"/></g></g></g></g></g></g></svg>